RobotoSerifDisplay-HairlineCondItalic 00m.ufo
<glyph name="exclam" format="2">
  <advance width="160"/>
  <unicode hex="0021"/>
  <outline>
    <contour>
      <point x="194" y="735" type="line"/>
      <point x="163" y="560"/>
      <point x="121" y="392"/>
      <point x="81" y="175" type="curve"/>
      <point x="67" y="175" type="line"/>
      <point x="108" y="392"/>
      <point x="121" y="559"/>
      <point x="151" y="735" type="curve"/>
    </contour>
    <component base="period" xOffset="-17"/>
  </outline>
</glyph>
<glyph name="numbersign" format="2">
  <advance width="423"/>
  <unicode hex="0023"/>
  <outline>
    <contour>
      <point x="57" y="0" type="line"/>
      <point x="76" y="0" type="line"/>
      <point x="271" y="750" type="line"/>
      <point x="252" y="750" type="line"/>
    </contour>
    <contour>
      <point x="39" y="258" type="line"/>
      <point x="383" y="258" type="line"/>
      <point x="384" y="285" type="line"/>
      <point x="40" y="285" type="line"/>
    </contour>
    <contour>
      <point x="95" y="484" type="line"/>
      <point x="438" y="484" type="line"/>
      <point x="439" y="511" type="line"/>
      <point x="96" y="511" type="line"/>
    </contour>
    <contour>
      <point x="196" y="0" type="line"/>
      <point x="215" y="0" type="line"/>
      <point x="409" y="750" type="line"/>
      <point x="390" y="750" type="line"/>
    </contour>
  </outline>
</glyph>
<glyph name="percent" format="2">
  <advance width="497"/>
  <unicode hex="0025"/>
  <outline>
    <contour>
      <point x="187" y="720" type="curve" smooth="yes"/>
      <point x="123" y="720"/>
      <point x="70" y="633"/>
      <point x="64" y="523" type="curve" smooth="yes"/>
      <point x="60" y="447"/>
      <point x="93" y="382"/>
      <point x="147" y="382" type="curve" smooth="yes"/>
      <point x="211" y="382"/>
      <point x="262" y="468"/>
      <point x="268" y="579" type="curve" smooth="yes"/>
      <point x="273" y="655"/>
      <point x="242" y="720"/>
    </contour>
    <contour>
      <point x="189" y="704" type="curve" smooth="yes"/>
      <point x="223" y="704"/>
      <point x="240" y="660"/>
      <point x="235" y="580" type="curve" smooth="yes"/>
      <point x="230" y="486"/>
      <point x="197" y="398"/>
      <point x="146" y="398" type="curve" smooth="yes"/>
      <point x="112" y="398"/>
      <point x="93" y="440"/>
      <point x="98" y="522" type="curve" smooth="yes"/>
      <point x="104" y="616"/>
      <point x="137" y="704"/>
    </contour>
    <contour>
      <point x="391" y="328" type="curve" smooth="yes"/>
      <point x="326" y="328"/>
      <point x="274" y="241"/>
      <point x="269" y="131" type="curve" smooth="yes"/>
      <point x="264" y="55"/>
      <point x="295" y="-10"/>
      <point x="349" y="-10" type="curve" smooth="yes"/>
      <point x="414" y="-10"/>
      <point x="465" y="76"/>
      <point x="471" y="187" type="curve" smooth="yes"/>
      <point x="475" y="263"/>
      <point x="446" y="328"/>
    </contour>
    <contour>
      <point x="391" y="312" type="curve" smooth="yes"/>
      <point x="426" y="312"/>
      <point x="443" y="268"/>
      <point x="439" y="188" type="curve" smooth="yes"/>
      <point x="434" y="94"/>
      <point x="400" y="6"/>
      <point x="349" y="6" type="curve" smooth="yes"/>
      <point x="315" y="6"/>
      <point x="297" y="48"/>
      <point x="301" y="130" type="curve" smooth="yes"/>
      <point x="306" y="224"/>
      <point x="340" y="312"/>
    </contour>
    <component base="fraction" xOffset="108"/>
  </outline>
</glyph>
<glyph name="ampersand" format="2">
  <advance width="476"/>
  <unicode hex="0026"/>
  <outline>
    <contour>
      <point x="440" y="0" type="line"/>
      <point x="443" y="15" type="line"/>
      <point x="436" y="15" type="line" smooth="yes"/>
      <point x="405" y="15"/>
      <point x="391" y="38"/>
      <point x="367" y="82" type="curve" smooth="yes"/>
      <point x="260" y="272"/>
      <point x="217" y="404"/>
      <point x="224" y="536" type="curve" smooth="yes"/>
      <point x="230" y="643"/>
      <point x="267" y="703"/>
      <point x="316" y="703" type="curve" smooth="yes"/>
      <point x="352" y="703"/>
      <point x="370" y="663"/>
      <point x="367" y="607" type="curve" smooth="yes"/>
      <point x="362" y="512"/>
      <point x="314" y="461"/>
      <point x="227" y="418" type="curve"/>
      <point x="231" y="405" type="line"/>
      <point x="324" y="451"/>
      <point x="393" y="506"/>
      <point x="399" y="607" type="curve" smooth="yes"/>
      <point x="403" y="673"/>
      <point x="369" y="720"/>
      <point x="316" y="720" type="curve" smooth="yes"/>
      <point x="247" y="720"/>
      <point x="197" y="644"/>
      <point x="190" y="533" type="curve" smooth="yes"/>
      <point x="179" y="358"/>
      <point x="262" y="186"/>
      <point x="370" y="0" type="curve"/>
    </contour>
    <contour>
      <point x="179" y="7" type="curve" smooth="yes"/>
      <point x="109" y="7"/>
      <point x="74" y="75"/>
      <point x="79" y="175" type="curve" smooth="yes"/>
      <point x="86" y="302"/>
      <point x="142" y="362"/>
      <point x="217" y="400" type="curve"/>
      <point x="214" y="413" type="line"/>
      <point x="130" y="375"/>
      <point x="50" y="310"/>
      <point x="42" y="174" type="curve" smooth="yes"/>
      <point x="37" y="65"/>
      <point x="86" y="-10"/>
      <point x="176" y="-10" type="curve" smooth="yes"/>
      <point x="322" y="-10"/>
      <point x="399" y="226"/>
      <point x="432" y="343" type="curve" smooth="yes"/>
      <point x="441" y="375"/>
      <point x="463" y="379"/>
      <point x="493" y="379" type="curve" smooth="yes"/>
      <point x="495" y="379" type="line"/>
      <point x="498" y="394" type="line"/>
      <point x="370" y="394" type="line"/>
      <point x="367" y="379" type="line"/>
      <point x="369" y="379" type="line" smooth="yes"/>
      <point x="390" y="379"/>
      <point x="422" y="376"/>
      <point x="421" y="369" type="curve"/>
      <point x="390" y="223"/>
      <point x="310" y="7"/>
    </contour>
  </outline>
</glyph>
<glyph name="quotesingle" format="2">
  <advance width="119"/>
  <unicode hex="0027"/>
  <outline>
    <contour>
      <point x="151" y="710" type="line"/>
      <point x="142" y="653"/>
      <point x="123" y="621"/>
      <point x="107" y="535" type="curve"/>
      <point x="93" y="535" type="line"/>
      <point x="109" y="621"/>
      <point x="103" y="652"/>
      <point x="112" y="710" type="curve"/>
    </contour>
  </outline>
</glyph>
<glyph name="hyphen" format="2">
  <advance width="256"/>
  <unicode hex="002D"/>
  <outline>
    <contour>
      <point x="62" y="328" type="line"/>
      <point x="56" y="292" type="line"/>
      <point x="225" y="292" type="line"/>
      <point x="232" y="328" type="line"/>
    </contour>
  </outline>
</glyph>
<glyph name="zero" format="2">
  <advance width="384"/>
  <unicode hex="0030"/>
  <outline>
    <contour>
      <point x="164" y="-10" type="curve" smooth="yes"/>
      <point x="277" y="-10"/>
      <point x="368" y="162"/>
      <point x="379" y="353" type="curve" smooth="yes"/>
      <point x="388" y="514"/>
      <point x="333" y="619"/>
      <point x="253" y="619" type="curve" smooth="yes"/>
      <point x="140" y="619"/>
      <point x="48" y="447"/>
      <point x="38" y="255" type="curve" smooth="yes"/>
      <point x="29" y="95"/>
      <point x="84" y="-10"/>
    </contour>
    <contour>
      <point x="167" y="8" type="curve" smooth="yes"/>
      <point x="100" y="8"/>
      <point x="67" y="98"/>
      <point x="75" y="252" type="curve" smooth="yes"/>
      <point x="78" y="313"/>
      <point x="89" y="371"/>
      <point x="104" y="423" type="curve" smooth="yes"/>
      <point x="136" y="527"/>
      <point x="189" y="601"/>
      <point x="250" y="601" type="curve" smooth="yes"/>
      <point x="317" y="601"/>
      <point x="349" y="511"/>
      <point x="342" y="356" type="curve" smooth="yes"/>
      <point x="338" y="300"/>
      <point x="329" y="243"/>
      <point x="313" y="192" type="curve" smooth="yes"/>
      <point x="283" y="88"/>
      <point x="229" y="8"/>
    </contour>
  </outline>
</glyph>
<glyph name="one" format="2">
  <advance width="384"/>
  <unicode hex="0031"/>
  <outline>
    <contour>
      <point x="197" y="51" type="curve" smooth="yes"/>
      <point x="295" y="609" type="line"/>
      <point x="275" y="609" type="line"/>
      <point x="242" y="556"/>
      <point x="190" y="532"/>
      <point x="126" y="532" type="curve"/>
      <point x="119" y="499" type="line"/>
      <point x="163" y="498"/>
      <point x="236" y="531"/>
      <point x="259" y="579" type="curve"/>
      <point x="253" y="577" type="line"/>
      <point x="162" y="51" type="line" smooth="yes"/>
      <point x="157" y="23"/>
      <point x="133" y="16"/>
      <point x="67" y="16" type="curve" smooth="yes"/>
      <point x="44" y="16" type="line"/>
      <point x="40" y="0" type="line"/>
      <point x="298" y="0" type="line"/>
      <point x="301" y="16" type="line"/>
      <point x="288" y="16" type="line" smooth="yes"/>
      <point x="217" y="16"/>
      <point x="192" y="23"/>
    </contour>
  </outline>
</glyph>
<glyph name="two" format="2">
  <advance width="384"/>
  <unicode hex="0032"/>
  <outline>
    <contour>
      <point x="-3" y="0" type="line"/>
      <point x="1" y="24" type="line"/>
      <point x="178" y="169"/>
      <point x="321" y="305"/>
      <point x="328" y="458" type="curve" smooth="yes"/>
      <point x="334" y="556"/>
      <point x="298" y="600"/>
      <point x="239" y="600" type="curve" smooth="yes"/>
      <point x="197" y="600"/>
      <point x="163" y="585"/>
      <point x="119" y="539" type="curve"/>
      <point x="127" y="550"/>
      <point x="130" y="563"/>
      <point x="143" y="570" type="curve"/>
      <point x="125" y="462" type="line"/>
      <point x="86" y="462" type="line"/>
      <point x="101" y="550" type="line"/>
      <point x="129" y="579"/>
      <point x="178" y="618"/>
      <point x="240" y="618" type="curve" smooth="yes"/>
      <point x="322" y="618"/>
      <point x="372" y="566"/>
      <point x="365" y="457" type="curve" smooth="yes"/>
      <point x="358" y="308"/>
      <point x="188" y="155"/>
      <point x="31" y="27" type="curve"/>
      <point x="28" y="40" type="line"/>
      <point x="206" y="40" type="line" smooth="yes"/>
      <point x="267" y="40"/>
      <point x="293" y="50"/>
      <point x="303" y="90" type="curve" smooth="yes"/>
      <point x="325" y="173" type="line"/>
      <point x="338" y="173" type="line"/>
      <point x="309" y="0" type="line"/>
    </contour>
  </outline>
</glyph>
<glyph name="three" format="2">
  <advance width="384"/>
  <unicode hex="0033"/>
  <outline>
    <contour>
      <point x="165" y="-90" type="curve" smooth="yes"/>
      <point x="76" y="-90"/>
      <point x="20" y="-20"/>
      <point x="7" y="80" type="curve"/>
      <point x="19" y="92" type="line"/>
      <point x="30" y="8"/>
      <point x="75" y="-72"/>
      <point x="166" y="-72" type="curve" smooth="yes"/>
      <point x="244" y="-72"/>
      <point x="293" y="8"/>
      <point x="300" y="119" type="curve" smooth="yes"/>
      <point x="304" y="208"/>
      <point x="271" y="275"/>
      <point x="183" y="275" type="curve" smooth="yes"/>
      <point x="141" y="275" type="line"/>
      <point x="145" y="292" type="line"/>
      <point x="184" y="292" type="line" smooth="yes"/>
      <point x="275" y="292"/>
      <point x="328" y="357"/>
      <point x="333" y="462" type="curve" smooth="yes"/>
      <point x="338" y="552"/>
      <point x="307" y="600"/>
      <point x="245" y="600" type="curve" smooth="yes"/>
      <point x="207" y="600"/>
      <point x="173" y="585"/>
      <point x="136" y="548" type="curve"/>
      <point x="143" y="558"/>
      <point x="151" y="568"/>
      <point x="158" y="579" type="curve"/>
      <point x="142" y="477" type="line"/>
      <point x="103" y="477" type="line"/>
      <point x="117" y="559" type="line"/>
      <point x="141" y="582"/>
      <point x="186" y="618"/>
      <point x="246" y="618" type="curve" smooth="yes"/>
      <point x="326" y="618"/>
      <point x="375" y="560"/>
      <point x="370" y="462" type="curve" smooth="yes"/>
      <point x="365" y="361"/>
      <point x="302" y="290"/>
      <point x="212" y="283" type="curve"/>
      <point x="231" y="290" type="line"/>
      <point x="229" y="282" type="line"/>
      <point x="210" y="290" type="line"/>
      <point x="312" y="275"/>
      <point x="341" y="197"/>
      <point x="338" y="117" type="curve" smooth="yes"/>
      <point x="331" y="-2"/>
      <point x="262" y="-90"/>
    </contour>
  </outline>
</glyph>
<glyph name="five" format="2">
  <advance width="384"/>
  <unicode hex="0035"/>
  <outline>
    <contour>
      <point x="161" y="-90" type="curve" smooth="yes"/>
      <point x="269" y="-90"/>
      <point x="344" y="23"/>
      <point x="352" y="165" type="curve" smooth="yes"/>
      <point x="358" y="279"/>
      <point x="312" y="366"/>
      <point x="226" y="366" type="curve" smooth="yes"/>
      <point x="180" y="366"/>
      <point x="133" y="339"/>
      <point x="91" y="265" type="curve"/>
      <point x="96" y="266" type="line"/>
      <point x="155" y="599" type="line"/>
      <point x="143" y="567" type="line"/>
      <point x="376" y="567" type="line"/>
      <point x="389" y="609" type="line"/>
      <point x="142" y="609" type="line"/>
      <point x="77" y="240" type="line"/>
      <point x="90" y="240" type="line"/>
      <point x="127" y="308"/>
      <point x="167" y="348"/>
      <point x="223" y="348" type="curve" smooth="yes"/>
      <point x="290" y="348"/>
      <point x="321" y="275"/>
      <point x="315" y="165" type="curve" smooth="yes"/>
      <point x="308" y="29"/>
      <point x="253" y="-72"/>
      <point x="162" y="-72" type="curve" smooth="yes"/>
      <point x="82" y="-72"/>
      <point x="40" y="-4"/>
      <point x="26" y="76" type="curve"/>
      <point x="15" y="65" type="line"/>
      <point x="28" y="-19"/>
      <point x="76" y="-90"/>
    </contour>
  </outline>
</glyph>
<glyph name="A" format="2">
  <advance width="444"/>
  <unicode hex="0041"/>
  <anchor x="279" y="721" name="top"/>
  <anchor x="429" y="0" name="right"/>
  <anchor x="240" y="0" name="bottom"/>
  <outline>
    <contour>
      <point x="125" y="289" type="line"/>
      <point x="118" y="271" type="line"/>
      <point x="325" y="271" type="line"/>
      <point x="327" y="289" type="line"/>
    </contour>
    <contour>
      <point x="288" y="681" type="line"/>
      <point x="328" y="26" type="line"/>
      <point x="327" y="19"/>
      <point x="307" y="15"/>
      <point x="280" y="15" type="curve" smooth="yes"/>
      <point x="268" y="15" type="line"/>
      <point x="265" y="0" type="line"/>
      <point x="400" y="0" type="line"/>
      <point x="403" y="15" type="line"/>
      <point x="400" y="15" type="line"/>
      <point x="378" y="15"/>
      <point x="365" y="19"/>
      <point x="364" y="44" type="curve" smooth="yes"/>
      <point x="321" y="710" type="line"/>
      <point x="291" y="710" type="line"/>
      <point x="21" y="56" type="line" smooth="yes"/>
      <point x="8" y="26"/>
      <point x="-9" y="15"/>
      <point x="-31" y="15" type="curve"/>
      <point x="-34" y="15" type="line"/>
      <point x="-38" y="0" type="line"/>
      <point x="82" y="0" type="line"/>
      <point x="85" y="15" type="line"/>
      <point x="73" y="15" type="line" smooth="yes"/>
      <point x="44" y="15"/>
      <point x="28" y="25"/>
      <point x="29" y="38" type="curve"/>
      <point x="293" y="679" type="line"/>
    </contour>
  </outline>
</glyph>
<glyph name="B" format="2">
  <advance width="415"/>
  <unicode hex="0042"/>
  <outline>
    <contour>
      <point x="223" y="364" type="line" smooth="yes"/>
      <point x="314" y="364"/>
      <point x="348" y="301"/>
      <point x="343" y="206" type="curve" smooth="yes"/>
      <point x="338" y="106"/>
      <point x="288" y="18"/>
      <point x="191" y="18" type="curve" smooth="yes"/>
      <point x="83" y="18" type="line"/>
      <point x="144" y="364" type="line"/>
    </contour>
    <contour>
      <point x="288" y="692" type="line" smooth="yes"/>
      <point x="351" y="692"/>
      <point x="380" y="643"/>
      <point x="375" y="559" type="curve" smooth="yes"/>
      <point x="370" y="461"/>
      <point x="320" y="381"/>
      <point x="230" y="381" type="curve" smooth="yes"/>
      <point x="146" y="381" type="line"/>
      <point x="201" y="692" type="line"/>
    </contour>
    <contour>
      <point x="224" y="368" type="line"/>
      <point x="344" y="368"/>
      <point x="406" y="461"/>
      <point x="411" y="559" type="curve" smooth="yes"/>
      <point x="416" y="649"/>
      <point x="373" y="710"/>
      <point x="290" y="710" type="curve" smooth="yes"/>
      <point x="110" y="710" type="line"/>
      <point x="107" y="695" type="line"/>
      <point x="114" y="695" type="line" smooth="yes"/>
      <point x="146" y="695"/>
      <point x="165" y="687"/>
      <point x="161" y="668" type="curve" smooth="yes"/>
      <point x="51" y="42" type="line" smooth="yes"/>
      <point x="48" y="21"/>
      <point x="24" y="15"/>
      <point x="-5" y="15" type="curve" smooth="yes"/>
      <point x="-11" y="15" type="line"/>
      <point x="-15" y="0" type="line"/>
      <point x="186" y="0" type="line" smooth="yes"/>
      <point x="306" y="0"/>
      <point x="376" y="92"/>
      <point x="382" y="206" type="curve" smooth="yes"/>
      <point x="388" y="310"/>
      <point x="338" y="377"/>
      <point x="227" y="379" type="curve"/>
      <point x="259" y="366" type="line"/>
      <point x="263" y="380" type="line"/>
    </contour>
  </outline>
</glyph>
<glyph name="G" format="2">
  <advance width="499"/>
  <unicode hex="0047"/>
  <anchor x="293" y="741" name="top"/>
  <anchor x="253" y="0" name="bottom"/>
  <outline>
    <contour>
      <point x="414" y="82" type="curve"/>
      <point x="451" y="301" type="line" smooth="yes"/>
      <point x="456" y="326"/>
      <point x="476" y="332"/>
      <point x="501" y="332" type="curve" smooth="yes"/>
      <point x="504" y="332" type="line"/>
      <point x="507" y="347" type="line"/>
      <point x="364" y="347" type="line"/>
      <point x="360" y="332" type="line"/>
      <point x="370" y="332" type="line" smooth="yes"/>
      <point x="409" y="332"/>
      <point x="422" y="324"/>
      <point x="418" y="301" type="curve" smooth="yes"/>
      <point x="379" y="77" type="line"/>
      <point x="367" y="60"/>
      <point x="317" y="9"/>
      <point x="245" y="9" type="curve" smooth="yes"/>
      <point x="123" y="9"/>
      <point x="72" y="145"/>
      <point x="82" y="316" type="curve" smooth="yes"/>
      <point x="93" y="514"/>
      <point x="183" y="701"/>
      <point x="317" y="701" type="curve" smooth="yes"/>
      <point x="411" y="701"/>
      <point x="451" y="626"/>
      <point x="461" y="520" type="curve"/>
      <point x="472" y="520" type="line"/>
      <point x="506" y="710" type="line"/>
      <point x="490" y="710" type="line"/>
      <point x="460" y="573" type="line"/>
      <point x="466" y="577" type="line"/>
      <point x="454" y="652"/>
      <point x="404" y="720"/>
      <point x="319" y="720" type="curve" smooth="yes"/>
      <point x="168" y="720"/>
      <point x="56" y="533"/>
      <point x="44" y="320" type="curve" smooth="yes"/>
      <point x="35" y="137"/>
      <point x="107" y="-10"/>
      <point x="243" y="-10" type="curve" smooth="yes"/>
      <point x="323" y="-10"/>
      <point x="385" y="49"/>
    </contour>
  </outline>
</glyph>
<glyph name="I" format="2">
  <advance width="208"/>
  <unicode hex="0049"/>
  <anchor x="144" y="741" name="top"/>
  <anchor x="151" y="0" name="right"/>
  <anchor x="104" y="0" name="bottom"/>
  <outline>
    <contour>
      <point x="51" y="42" type="line" smooth="yes"/>
      <point x="48" y="21"/>
      <point x="24" y="15"/>
      <point x="-5" y="15" type="curve" smooth="yes"/>
      <point x="-11" y="15" type="line"/>
      <point x="-15" y="0" type="line"/>
      <point x="138" y="0" type="line"/>
      <point x="141" y="15" type="line"/>
      <point x="134" y="15" type="line" smooth="yes"/>
      <point x="105" y="15"/>
      <point x="83" y="21"/>
      <point x="87" y="43" type="curve" smooth="yes"/>
      <point x="196" y="667" type="line" smooth="yes"/>
      <point x="201" y="689"/>
      <point x="224" y="695"/>
      <point x="253" y="695" type="curve" smooth="yes"/>
      <point x="260" y="695" type="line"/>
      <point x="263" y="710" type="line"/>
      <point x="110" y="710" type="line"/>
      <point x="107" y="695" type="line"/>
      <point x="114" y="695" type="line" smooth="yes"/>
      <point x="142" y="695"/>
      <point x="166" y="689"/>
      <point x="162" y="668" type="curve" smooth="yes"/>
    </contour>
  </outline>
</glyph>
<glyph name="J" format="2">
  <advance width="353"/>
  <unicode hex="004A"/>
  <anchor x="301" y="741" name="top"/>
  <outline>
    <contour>
      <point x="309" y="667" type="curve" smooth="yes"/>
      <point x="230" y="212" type="line" smooth="yes"/>
      <point x="205" y="65"/>
      <point x="168" y="8"/>
      <point x="103" y="8" type="curve" smooth="yes"/>
      <point x="70" y="8"/>
      <point x="44" y="19"/>
      <point x="24" y="54" type="curve"/>
      <point x="26" y="43"/>
      <point x="29" y="33"/>
      <point x="32" y="23" type="curve"/>
      <point x="50" y="124" type="line"/>
      <point x="12" y="124" type="line"/>
      <point x="-2" y="47" type="line"/>
      <point x="8" y="26"/>
      <point x="43" y="-10"/>
      <point x="101" y="-10" type="curve" smooth="yes"/>
      <point x="180" y="-10"/>
      <point x="237" y="46"/>
      <point x="265" y="207" type="curve" smooth="yes"/>
      <point x="345" y="667" type="line" smooth="yes"/>
      <point x="350" y="689"/>
      <point x="373" y="695"/>
      <point x="402" y="695" type="curve" smooth="yes"/>
      <point x="409" y="695" type="line"/>
      <point x="412" y="710" type="line"/>
      <point x="257" y="710" type="line"/>
      <point x="253" y="695" type="line"/>
      <point x="262" y="695" type="line" smooth="yes"/>
      <point x="292" y="695"/>
      <point x="315" y="689"/>
    </contour>
  </outline>
</glyph>
<glyph name="L" format="2">
  <advance width="385"/>
  <unicode hex="004C"/>
  <anchor x="310" y="741" name="top"/>
  <anchor x="393" y="710" name="right"/>
  <anchor x="378" y="410" name="mid"/>
  <anchor x="270" y="0" name="bottom"/>
  <outline>
    <contour>
      <point x="265" y="710" type="line"/>
      <point x="110" y="710" type="line"/>
      <point x="107" y="695" type="line"/>
      <point x="114" y="695" type="line" smooth="yes"/>
      <point x="142" y="695"/>
      <point x="166" y="689"/>
      <point x="162" y="668" type="curve" smooth="yes"/>
      <point x="51" y="42" type="line" smooth="yes"/>
      <point x="48" y="21"/>
      <point x="24" y="15"/>
      <point x="-5" y="15" type="curve" smooth="yes"/>
      <point x="-11" y="15" type="line"/>
      <point x="-15" y="0" type="line"/>
      <point x="313" y="0" type="line"/>
      <point x="347" y="194" type="line"/>
      <point x="333" y="194" type="line"/>
      <point x="302" y="65" type="line" smooth="yes"/>
      <point x="292" y="27"/>
      <point x="272" y="18"/>
      <point x="203" y="18" type="curve" smooth="yes"/>
      <point x="83" y="18" type="line"/>
      <point x="198" y="671" type="line" smooth="yes"/>
      <point x="201" y="690"/>
      <point x="225" y="695"/>
      <point x="255" y="695" type="curve" smooth="yes"/>
      <point x="262" y="695" type="line"/>
    </contour>
  </outline>
</glyph>
<glyph name="R" format="2">
  <advance width="438"/>
  <unicode hex="0052"/>
  <anchor x="310" y="741" name="top"/>
  <anchor x="270" y="0" name="bottom"/>
  <outline>
    <contour>
      <point x="-15" y="0" type="line"/>
      <point x="140" y="0" type="line"/>
      <point x="143" y="15" type="line"/>
      <point x="136" y="15" type="line" smooth="yes"/>
      <point x="113" y="15"/>
      <point x="83" y="18"/>
      <point x="83" y="25" type="curve" smooth="yes"/>
      <point x="136" y="327" type="line"/>
      <point x="225" y="327" type="line" smooth="yes"/>
      <point x="239" y="327"/>
      <point x="253" y="328"/>
      <point x="267" y="331" type="curve" smooth="yes"/>
      <point x="360" y="348"/>
      <point x="413" y="430"/>
      <point x="419" y="535" type="curve" smooth="yes"/>
      <point x="425" y="638"/>
      <point x="374" y="710"/>
      <point x="269" y="710" type="curve" smooth="yes"/>
      <point x="110" y="710" type="line"/>
      <point x="107" y="695" type="line"/>
      <point x="114" y="695" type="line" smooth="yes"/>
      <point x="143" y="695"/>
      <point x="165" y="689"/>
      <point x="160" y="667" type="curve" smooth="yes"/>
      <point x="51" y="42" type="line" smooth="yes"/>
      <point x="48" y="20"/>
      <point x="24" y="15"/>
      <point x="-5" y="15" type="curve" smooth="yes"/>
      <point x="-11" y="15" type="line"/>
    </contour>
    <contour>
      <point x="266" y="692" type="line" smooth="yes"/>
      <point x="342" y="692"/>
      <point x="387" y="637"/>
      <point x="381" y="536" type="curve" smooth="yes"/>
      <point x="376" y="427"/>
      <point x="330" y="344"/>
      <point x="229" y="344" type="curve" smooth="yes"/>
      <point x="140" y="344" type="line"/>
      <point x="201" y="692" type="line"/>
    </contour>
    <contour>
      <point x="248" y="332" type="line"/>
      <point x="317" y="0" type="line"/>
      <point x="390" y="0" type="line"/>
      <point x="393" y="15" type="line"/>
      <point x="386" y="15" type="line" smooth="yes"/>
      <point x="362" y="15"/>
      <point x="350" y="23"/>
      <point x="345" y="49" type="curve" smooth="yes"/>
      <point x="280" y="344" type="line"/>
    </contour>
  </outline>
</glyph>
<glyph name="U" format="2">
  <advance width="509"/>
  <unicode hex="0055"/>
  <anchor x="279" y="741" name="top"/>
  <anchor x="290" y="0" name="right"/>
  <anchor x="239" y="0" name="bottom"/>
  <outline>
    <contour>
      <point x="140" y="362" type="curve" smooth="yes"/>
      <point x="196" y="685" type="line" smooth="yes"/>
      <point x="198" y="692"/>
      <point x="228" y="695"/>
      <point x="251" y="695" type="curve" smooth="yes"/>
      <point x="258" y="695" type="line"/>
      <point x="260" y="710" type="line"/>
      <point x="107" y="710" type="line"/>
      <point x="104" y="695" type="line"/>
      <point x="111" y="695" type="line" smooth="yes"/>
      <point x="140" y="695"/>
      <point x="163" y="689"/>
      <point x="159" y="668" type="curve" smooth="yes"/>
      <point x="105" y="363" type="line" smooth="yes"/>
      <point x="94" y="304"/>
      <point x="86" y="256"/>
      <point x="83" y="213" type="curve" smooth="yes"/>
      <point x="75" y="59"/>
      <point x="139" y="-10"/>
      <point x="232" y="-10" type="curve" smooth="yes"/>
      <point x="322" y="-10"/>
      <point x="395" y="69"/>
      <point x="425" y="244" type="curve" smooth="yes"/>
      <point x="498" y="655" type="line" smooth="yes"/>
      <point x="502" y="685"/>
      <point x="528" y="695"/>
      <point x="556" y="695" type="curve" smooth="yes"/>
      <point x="564" y="695" type="line"/>
      <point x="566" y="710" type="line"/>
      <point x="431" y="710" type="line"/>
      <point x="428" y="695" type="line"/>
      <point x="435" y="695" type="line" smooth="yes"/>
      <point x="458" y="695"/>
      <point x="488" y="688"/>
      <point x="485" y="675" type="curve" smooth="yes"/>
      <point x="409" y="245" type="line" smooth="yes"/>
      <point x="383" y="88"/>
      <point x="321" y="14"/>
      <point x="239" y="14" type="curve" smooth="yes"/>
      <point x="165" y="14"/>
      <point x="111" y="71"/>
      <point x="118" y="212" type="curve" smooth="yes"/>
      <point x="121" y="255"/>
      <point x="128" y="303"/>
    </contour>
  </outline>
</glyph>
<glyph name="V" format="2">
  <advance width="445"/>
  <unicode hex="0056"/>
  <outline>
    <contour>
      <point x="199" y="26" type="line"/>
      <point x="159" y="684" type="line"/>
      <point x="160" y="691"/>
      <point x="190" y="695"/>
      <point x="214" y="695" type="curve" smooth="yes"/>
      <point x="226" y="695" type="line"/>
      <point x="229" y="710" type="line"/>
      <point x="88" y="710" type="line"/>
      <point x="84" y="695" type="line"/>
      <point x="88" y="695" type="line"/>
      <point x="109" y="695"/>
      <point x="123" y="692"/>
      <point x="124" y="666" type="curve" smooth="yes"/>
      <point x="168" y="0" type="line"/>
      <point x="196" y="0" type="line"/>
      <point x="465" y="654" type="line" smooth="yes"/>
      <point x="479" y="687"/>
      <point x="497" y="694"/>
      <point x="517" y="695" type="curve"/>
      <point x="521" y="695" type="line"/>
      <point x="524" y="710" type="line"/>
      <point x="401" y="710" type="line"/>
      <point x="398" y="695" type="line"/>
      <point x="410" y="695" type="line" smooth="yes"/>
      <point x="437" y="695"/>
      <point x="458" y="685"/>
      <point x="458" y="674" type="curve"/>
      <point x="192" y="27" type="line"/>
    </contour>
  </outline>
</glyph>
<glyph name="W" format="2">
  <advance width="644"/>
  <unicode hex="0057"/>
  <anchor x="354" y="741" name="top"/>
  <outline>
    <contour>
      <point x="89" y="710" type="line"/>
      <point x="85" y="695" type="line"/>
      <point x="89" y="695" type="line" smooth="yes"/>
      <point x="111" y="695"/>
      <point x="126" y="692"/>
      <point x="126" y="667" type="curve" smooth="yes"/>
      <point x="131" y="0" type="line"/>
      <point x="161" y="0" type="line"/>
      <point x="397" y="660" type="line"/>
      <point x="390" y="661" type="line"/>
      <point x="405" y="0" type="line"/>
      <point x="435" y="0" type="line"/>
      <point x="661" y="654" type="line" smooth="yes"/>
      <point x="674" y="686"/>
      <point x="694" y="695"/>
      <point x="714" y="695" type="curve" smooth="yes"/>
      <point x="718" y="695" type="line"/>
      <point x="721" y="710" type="line"/>
      <point x="595" y="710" type="line"/>
      <point x="592" y="695" type="line"/>
      <point x="605" y="695" type="line" smooth="yes"/>
      <point x="632" y="695"/>
      <point x="654" y="685"/>
      <point x="652" y="673" type="curve"/>
      <point x="427" y="21" type="line"/>
      <point x="439" y="32" type="line"/>
      <point x="423" y="710" type="line"/>
      <point x="400" y="710" type="line"/>
      <point x="153" y="23" type="line"/>
      <point x="164" y="23" type="line"/>
      <point x="161" y="685" type="line"/>
      <point x="163" y="692"/>
      <point x="192" y="695"/>
      <point x="217" y="695" type="curve" smooth="yes"/>
      <point x="229" y="695" type="line"/>
      <point x="233" y="710" type="line"/>
    </contour>
  </outline>
</glyph>
<glyph name="Y" format="2">
  <advance width="430"/>
  <unicode hex="0059"/>
  <anchor x="239" y="741" name="top"/>
  <anchor x="199" y="0" name="bottom"/>
  <outline>
    <contour>
      <point x="91" y="0" type="line"/>
      <point x="258" y="0" type="line"/>
      <point x="262" y="15" type="line"/>
      <point x="251" y="15" type="line" smooth="yes"/>
      <point x="220" y="15"/>
      <point x="196" y="21"/>
      <point x="200" y="43" type="curve" smooth="yes"/>
      <point x="250" y="323" type="line"/>
      <point x="237" y="290" type="line"/>
      <point x="446" y="659" type="line" smooth="yes"/>
      <point x="464" y="688"/>
      <point x="481" y="695"/>
      <point x="501" y="695" type="curve" smooth="yes"/>
      <point x="505" y="695" type="line"/>
      <point x="508" y="710" type="line"/>
      <point x="384" y="710" type="line"/>
      <point x="381" y="695" type="line"/>
      <point x="393" y="695" type="line" smooth="yes"/>
      <point x="421" y="695"/>
      <point x="439" y="686"/>
      <point x="437" y="674" type="curve"/>
      <point x="232" y="311" type="line"/>
      <point x="243" y="320" type="line"/>
      <point x="162" y="684" type="line"/>
      <point x="164" y="691"/>
      <point x="194" y="695"/>
      <point x="217" y="695" type="curve" smooth="yes"/>
      <point x="229" y="695" type="line"/>
      <point x="232" y="710" type="line"/>
      <point x="90" y="710" type="line"/>
      <point x="86" y="695" type="line"/>
      <point x="89" y="695" type="line" smooth="yes"/>
      <point x="110" y="695"/>
      <point x="124" y="693"/>
      <point x="129" y="673" type="curve" smooth="yes"/>
      <point x="216" y="290" type="line"/>
      <point x="215" y="323" type="line"/>
      <point x="164" y="43" type="line" smooth="yes"/>
      <point x="161" y="21"/>
      <point x="137" y="15"/>
      <point x="106" y="15" type="curve" smooth="yes"/>
      <point x="95" y="15" type="line"/>
    </contour>
  </outline>
</glyph>
<glyph name="asciicircum" format="2">
  <advance width="343"/>
  <unicode hex="005E"/>
  <outline>
    <contour>
      <point x="91" y="364" type="line"/>
      <point x="256" y="699" type="line"/>
      <point x="257" y="710" type="line"/>
      <point x="245" y="710" type="line"/>
      <point x="72" y="364" type="line"/>
    </contour>
    <contour>
      <point x="297" y="364" type="line"/>
      <point x="313" y="364" type="line"/>
      <point x="263" y="710" type="line"/>
      <point x="250" y="710" type="line"/>
      <point x="248" y="699" type="line"/>
    </contour>
  </outline>
</glyph>
<glyph name="a" format="2">
  <advance width="371"/>
  <unicode hex="0061"/>
  <anchor x="192" y="518" name="top"/>
  <anchor x="319" y="-10" name="right"/>
  <anchor x="193" y="0" name="bottom"/>
  <outline>
    <contour>
      <point x="301" y="-7" type="curve" smooth="yes"/>
      <point x="319" y="-7"/>
      <point x="337" y="2"/>
      <point x="346" y="11" type="curve"/>
      <point x="350" y="27" type="line"/>
      <point x="344" y="24"/>
      <point x="328" y="13"/>
      <point x="310" y="13" type="curve" smooth="yes"/>
      <point x="292" y="13"/>
      <point x="284" y="26"/>
      <point x="286" y="57" type="curve" smooth="yes"/>
      <point x="287" y="76"/>
      <point x="293" y="110"/>
      <point x="297" y="133" type="curve" smooth="yes"/>
      <point x="364" y="521" type="line"/>
      <point x="351" y="521" type="line"/>
      <point x="321" y="446" type="line"/>
      <point x="316" y="441" type="line"/>
      <point x="268" y="169" type="line"/>
      <point x="268" y="166" type="line"/>
      <point x="262" y="133"/>
      <point x="254" y="87"/>
      <point x="253" y="61" type="curve" smooth="yes"/>
      <point x="250" y="13"/>
      <point x="270" y="-7"/>
    </contour>
    <contour>
      <point x="124" y="-10" type="curve" smooth="yes"/>
      <point x="192" y="-10"/>
      <point x="239" y="76"/>
      <point x="294" y="213" type="curve"/>
      <point x="288" y="230" type="line"/>
      <point x="238" y="102"/>
      <point x="191" y="9"/>
      <point x="130" y="9" type="curve" smooth="yes"/>
      <point x="88" y="9"/>
      <point x="66" y="76"/>
      <point x="72" y="184" type="curve" smooth="yes"/>
      <point x="80" y="334"/>
      <point x="144" y="510"/>
      <point x="235" y="510" type="curve" smooth="yes"/>
      <point x="284" y="510"/>
      <point x="319" y="466"/>
      <point x="332" y="380" type="curve"/>
      <point x="341" y="399" type="line"/>
      <point x="328" y="483"/>
      <point x="289" y="528"/>
      <point x="236" y="528" type="curve" smooth="yes"/>
      <point x="124" y="528"/>
      <point x="44" y="347"/>
      <point x="35" y="186" type="curve" smooth="yes"/>
      <point x="29" y="65"/>
      <point x="62" y="-10"/>
    </contour>
  </outline>
</glyph>
<glyph name="e" format="2">
  <advance width="316"/>
  <unicode hex="0065"/>
  <anchor x="186" y="518" name="top"/>
  <anchor x="288" y="1" name="right"/>
  <anchor x="176" y="0" name="bottom"/>
  <outline>
    <contour>
      <point x="161" y="-10" type="curve" smooth="yes"/>
      <point x="224" y="-10"/>
      <point x="270" y="41"/>
      <point x="300" y="111" type="curve"/>
      <point x="290" y="121" type="line"/>
      <point x="259" y="49"/>
      <point x="218" y="8"/>
      <point x="164" y="8" type="curve" smooth="yes"/>
      <point x="104" y="8"/>
      <point x="68" y="82"/>
      <point x="74" y="212" type="curve" smooth="yes"/>
      <point x="84" y="379"/>
      <point x="154" y="511"/>
      <point x="242" y="511" type="curve" smooth="yes"/>
      <point x="282" y="511"/>
      <point x="301" y="474"/>
      <point x="299" y="430" type="curve" smooth="yes"/>
      <point x="295" y="340"/>
      <point x="210" y="290"/>
      <point x="64" y="235" type="curve"/>
      <point x="60" y="219" type="line"/>
      <point x="231" y="280"/>
      <point x="328" y="342"/>
      <point x="332" y="434" type="curve" smooth="yes"/>
      <point x="335" y="483"/>
      <point x="303" y="528"/>
      <point x="243" y="528" type="curve" smooth="yes"/>
      <point x="128" y="528"/>
      <point x="47" y="373"/>
      <point x="37" y="214" type="curve" smooth="yes"/>
      <point x="30" y="73"/>
      <point x="84" y="-10"/>
    </contour>
  </outline>
</glyph>
<glyph name="f" format="2">
  <advance width="203"/>
  <unicode hex="0066"/>
  <outline>
    <contour>
      <point x="69" y="518" type="line"/>
      <point x="66" y="501" type="line"/>
      <point x="239" y="501" type="line"/>
      <point x="243" y="518" type="line"/>
    </contour>
    <contour>
      <point x="261" y="741" type="curve" smooth="yes"/>
      <point x="285" y="741"/>
      <point x="301" y="728"/>
      <point x="309" y="719" type="curve"/>
      <point x="314" y="741" type="line"/>
      <point x="299" y="752"/>
      <point x="283" y="758"/>
      <point x="262" y="758" type="curve" smooth="yes"/>
      <point x="201" y="758"/>
      <point x="153" y="704"/>
      <point x="138" y="611" type="curve" smooth="yes"/>
      <point x="13" y="-223" type="line"/>
      <point x="42" y="-223" type="line"/>
      <point x="172" y="608" type="line" smooth="yes"/>
      <point x="186" y="697"/>
      <point x="215" y="741"/>
    </contour>
  </outline>
</glyph>
<glyph name="h" format="2">
  <advance width="378"/>
  <unicode hex="0068"/>
  <anchor x="240" y="755" name="top"/>
  <anchor x="191" y="0" name="bottom"/>
  <outline>
    <contour>
      <point x="37" y="0" type="line"/>
      <point x="161" y="703" type="line" smooth="yes"/>
      <point x="163" y="723"/>
      <point x="154" y="728"/>
      <point x="128" y="733" type="curve" smooth="yes"/>
      <point x="112" y="735" type="line"/>
      <point x="114" y="750" type="line"/>
      <point x="204" y="750" type="line"/>
      <point x="71" y="0" type="line"/>
    </contour>
    <contour>
      <point x="311" y="175" type="line" smooth="yes"/>
      <point x="305" y="131"/>
      <point x="295" y="83"/>
      <point x="293" y="57" type="curve" smooth="yes"/>
      <point x="291" y="25"/>
      <point x="299" y="13"/>
      <point x="319" y="13" type="curve" smooth="yes"/>
      <point x="334" y="13"/>
      <point x="351" y="23"/>
      <point x="358" y="27" type="curve"/>
      <point x="355" y="11" type="line"/>
      <point x="346" y="2"/>
      <point x="328" y="-7"/>
      <point x="310" y="-7" type="curve" smooth="yes"/>
      <point x="279" y="-7"/>
      <point x="258" y="13"/>
      <point x="261" y="62" type="curve" smooth="yes"/>
      <point x="262" y="91"/>
      <point x="270" y="136"/>
      <point x="280" y="194" type="curve" smooth="yes"/>
      <point x="307" y="329" type="line" smooth="yes"/>
      <point x="313" y="364"/>
      <point x="320" y="395"/>
      <point x="322" y="429" type="curve" smooth="yes"/>
      <point x="324" y="482"/>
      <point x="309" y="507"/>
      <point x="276" y="507" type="curve" smooth="yes"/>
      <point x="223" y="507"/>
      <point x="173" y="425"/>
      <point x="116" y="302" type="curve"/>
      <point x="111" y="316" type="line"/>
      <point x="166" y="445"/>
      <point x="221" y="528"/>
      <point x="284" y="528" type="curve" smooth="yes"/>
      <point x="333" y="528"/>
      <point x="357" y="486"/>
      <point x="355" y="426" type="curve" smooth="yes"/>
      <point x="353" y="394"/>
      <point x="348" y="360"/>
      <point x="341" y="326" type="curve" smooth="yes"/>
    </contour>
  </outline>
</glyph>
<glyph name="l" format="2">
  <advance width="166"/>
  <unicode hex="006C"/>
  <anchor x="120" y="746" name="top"/>
  <anchor x="203" y="735" name="right"/>
  <anchor x="230" y="391" name="mid"/>
  <anchor x="82" y="0" name="bottom"/>
  <outline>
    <contour>
      <point x="99" y="174" type="curve" smooth="yes"/>
      <point x="201" y="750" type="line"/>
      <point x="112" y="750" type="line"/>
      <point x="109" y="735" type="line"/>
      <point x="125" y="733" type="line" smooth="yes"/>
      <point x="151" y="728"/>
      <point x="161" y="723"/>
      <point x="158" y="703" type="curve" smooth="yes"/>
      <point x="67" y="193" type="line" smooth="yes"/>
      <point x="59" y="135"/>
      <point x="50" y="91"/>
      <point x="49" y="62" type="curve" smooth="yes"/>
      <point x="46" y="13"/>
      <point x="67" y="-7"/>
      <point x="98" y="-7" type="curve" smooth="yes"/>
      <point x="116" y="-7"/>
      <point x="134" y="2"/>
      <point x="142" y="11" type="curve"/>
      <point x="146" y="27" type="line"/>
      <point x="139" y="23"/>
      <point x="122" y="13"/>
      <point x="107" y="13" type="curve" smooth="yes"/>
      <point x="87" y="13"/>
      <point x="80" y="25"/>
      <point x="82" y="57" type="curve" smooth="yes"/>
      <point x="84" y="83"/>
      <point x="92" y="130"/>
    </contour>
  </outline>
</glyph>
<glyph name="o" format="2">
  <advance width="367"/>
  <unicode hex="006F"/>
  <anchor x="209" y="518" name="top"/>
  <anchor x="273" y="0" name="right"/>
  <anchor x="181" y="0" name="bottom"/>
  <outline>
    <contour>
      <point x="39" y="222" type="curve" smooth="yes"/>
      <point x="32" y="92"/>
      <point x="83" y="-10"/>
      <point x="167" y="-10" type="curve" smooth="yes"/>
      <point x="273" y="-10"/>
      <point x="354" y="141"/>
      <point x="362" y="296" type="curve" smooth="yes"/>
      <point x="370" y="426"/>
      <point x="318" y="528"/>
      <point x="233" y="528" type="curve" smooth="yes"/>
      <point x="128" y="528"/>
      <point x="48" y="376"/>
    </contour>
    <contour>
      <point x="299" y="151" type="curve" smooth="yes"/>
      <point x="272" y="69"/>
      <point x="227" y="7"/>
      <point x="168" y="7" type="curve"/>
      <point x="102" y="7"/>
      <point x="69" y="94"/>
      <point x="76" y="218" type="curve" smooth="yes"/>
      <point x="79" y="269"/>
      <point x="88" y="322"/>
      <point x="102" y="367" type="curve" smooth="yes"/>
      <point x="129" y="449"/>
      <point x="173" y="511"/>
      <point x="232" y="511" type="curve"/>
      <point x="298" y="511"/>
      <point x="332" y="424"/>
      <point x="325" y="300" type="curve" smooth="yes"/>
      <point x="322" y="249"/>
      <point x="313" y="196"/>
    </contour>
  </outline>
</glyph>
<glyph name="r" format="2">
  <advance width="237"/>
  <unicode hex="0072"/>
  <anchor x="150" y="518" name="top"/>
  <anchor x="77" y="0" name="bottom"/>
  <outline>
    <contour>
      <point x="37" y="0" type="line"/>
      <point x="72" y="0" type="line"/>
      <point x="135" y="356" type="line"/>
      <point x="135" y="362" type="line"/>
      <point x="162" y="518" type="line"/>
      <point x="75" y="518" type="line"/>
      <point x="71" y="503" type="line"/>
      <point x="88" y="501" type="line" smooth="yes"/>
      <point x="114" y="496"/>
      <point x="123" y="491"/>
      <point x="119" y="471" type="curve" smooth="yes"/>
    </contour>
    <contour>
      <point x="274" y="523" type="line"/>
      <point x="272" y="524"/>
      <point x="265" y="526"/>
      <point x="252" y="526" type="curve" smooth="yes"/>
      <point x="199" y="526"/>
      <point x="152" y="421"/>
      <point x="116" y="312" type="curve"/>
      <point x="118" y="292" type="line"/>
      <point x="170" y="443"/>
      <point x="197" y="481"/>
      <point x="239" y="481" type="curve" smooth="yes"/>
      <point x="254" y="481"/>
      <point x="261" y="476"/>
      <point x="266" y="474" type="curve"/>
    </contour>
  </outline>
</glyph>
<glyph name="s" format="2">
  <advance width="302"/>
  <unicode hex="0073"/>
  <anchor x="182" y="518" name="top"/>
  <anchor x="157" y="0" name="bottom"/>
  <outline>
    <contour>
      <point x="136" y="-10" type="curve" smooth="yes"/>
      <point x="217" y="-10"/>
      <point x="269" y="49"/>
      <point x="274" y="140" type="curve" smooth="yes"/>
      <point x="278" y="225"/>
      <point x="232" y="254"/>
      <point x="189" y="287" type="curve" smooth="yes"/>
      <point x="147" y="318"/>
      <point x="114" y="343"/>
      <point x="117" y="402" type="curve" smooth="yes"/>
      <point x="120" y="468"/>
      <point x="152" y="511"/>
      <point x="210" y="511" type="curve" smooth="yes"/>
      <point x="252" y="511"/>
      <point x="279" y="490"/>
      <point x="292" y="463" type="curve"/>
      <point x="293" y="473"/>
      <point x="289" y="483"/>
      <point x="278" y="494" type="curve"/>
      <point x="265" y="417" type="line"/>
      <point x="300" y="417" type="line"/>
      <point x="311" y="481" type="line"/>
      <point x="300" y="495"/>
      <point x="268" y="528"/>
      <point x="212" y="528" type="curve" smooth="yes"/>
      <point x="144" y="528"/>
      <point x="91" y="478"/>
      <point x="87" y="396" type="curve" smooth="yes"/>
      <point x="82" y="315"/>
      <point x="120" y="288"/>
      <point x="161" y="255" type="curve" smooth="yes"/>
      <point x="202" y="222"/>
      <point x="246" y="197"/>
      <point x="244" y="134" type="curve" smooth="yes"/>
      <point x="239" y="54"/>
      <point x="199" y="7"/>
      <point x="138" y="7" type="curve" smooth="yes"/>
      <point x="93" y="7"/>
      <point x="57" y="30"/>
      <point x="35" y="72" type="curve"/>
      <point x="35" y="63"/>
      <point x="40" y="48"/>
      <point x="46" y="35" type="curve"/>
      <point x="63" y="123" type="line"/>
      <point x="26" y="123" type="line"/>
      <point x="13" y="57" type="line"/>
      <point x="31" y="26"/>
      <point x="76" y="-10"/>
    </contour>
  </outline>
</glyph>
<glyph name="currency" format="2">
  <advance width="384"/>
  <unicode hex="00A4"/>
  <outline>
    <contour>
      <point x="36" y="142" type="line"/>
      <point x="120" y="241" type="line"/>
      <point x="109" y="255" type="line"/>
      <point x="26" y="157" type="line"/>
    </contour>
    <contour>
      <point x="92" y="597" type="line"/>
      <point x="139" y="513" type="line"/>
      <point x="152" y="524" type="line"/>
      <point x="105" y="610" type="line"/>
    </contour>
    <contour>
      <point x="200" y="199" type="curve" smooth="yes"/>
      <point x="138" y="199"/>
      <point x="92" y="264"/>
      <point x="98" y="367" type="curve" smooth="yes"/>
      <point x="103" y="474"/>
      <point x="160" y="553"/>
      <point x="234" y="553" type="curve" smooth="yes"/>
      <point x="295" y="553"/>
      <point x="342" y="489"/>
      <point x="337" y="385" type="curve" smooth="yes"/>
      <point x="331" y="282"/>
      <point x="275" y="199"/>
    </contour>
    <contour>
      <point x="199" y="181" type="curve"/>
      <point x="280" y="181"/>
      <point x="348" y="273"/>
      <point x="354" y="385" type="curve" smooth="yes"/>
      <point x="360" y="497"/>
      <point x="308" y="572"/>
      <point x="235" y="572" type="curve" smooth="yes"/>
      <point x="153" y="572"/>
      <point x="87" y="479"/>
      <point x="81" y="367" type="curve" smooth="yes"/>
      <point x="75" y="255"/>
      <point x="125" y="181"/>
    </contour>
    <contour>
      <point x="332" y="142" type="line"/>
      <point x="343" y="155" type="line"/>
      <point x="299" y="238" type="line"/>
      <point x="286" y="226" type="line"/>
    </contour>
    <contour>
      <point x="408" y="595" type="line"/>
      <point x="400" y="610" type="line"/>
      <point x="315" y="510" type="line"/>
      <point x="325" y="496" type="line"/>
    </contour>
  </outline>
</glyph>
<glyph name="yen" format="2">
  <advance width="384"/>
  <unicode hex="00A5"/>
  <outline>
    <contour>
      <point x="48" y="208" type="line"/>
      <point x="45" y="191" type="line"/>
      <point x="324" y="191" type="line"/>
      <point x="327" y="208" type="line"/>
    </contour>
    <contour>
      <point x="73" y="344" type="line"/>
      <point x="69" y="327" type="line"/>
      <point x="348" y="327" type="line"/>
      <point x="352" y="344" type="line"/>
    </contour>
    <contour>
      <point x="196" y="351" type="line"/>
      <point x="142" y="43" type="line" smooth="yes"/>
      <point x="138" y="21"/>
      <point x="113" y="15"/>
      <point x="82" y="15" type="curve" smooth="yes"/>
      <point x="72" y="15" type="line"/>
      <point x="69" y="0" type="line"/>
      <point x="235" y="0" type="line"/>
      <point x="239" y="15" type="line"/>
      <point x="227" y="15" type="line" smooth="yes"/>
      <point x="196" y="15"/>
      <point x="174" y="21"/>
      <point x="178" y="43" type="curve" smooth="yes"/>
      <point x="231" y="351" type="line"/>
    </contour>
    <contour>
      <point x="217" y="315" type="line"/>
      <point x="398" y="659" type="line" smooth="yes"/>
      <point x="416" y="690"/>
      <point x="434" y="695"/>
      <point x="454" y="695" type="curve" smooth="yes"/>
      <point x="457" y="695" type="line"/>
      <point x="460" y="710" type="line"/>
      <point x="336" y="710" type="line"/>
      <point x="333" y="695" type="line"/>
      <point x="345" y="695" type="line" smooth="yes"/>
      <point x="374" y="695"/>
      <point x="391" y="686"/>
      <point x="390" y="673" type="curve"/>
      <point x="212" y="336" type="line"/>
      <point x="226" y="347" type="line"/>
      <point x="164" y="684" type="line"/>
      <point x="166" y="691"/>
      <point x="197" y="695"/>
      <point x="220" y="695" type="curve" smooth="yes"/>
      <point x="231" y="695" type="line"/>
      <point x="234" y="710" type="line"/>
      <point x="90" y="710" type="line"/>
      <point x="88" y="695" type="line"/>
      <point x="91" y="695" type="line" smooth="yes"/>
      <point x="111" y="695"/>
      <point x="126" y="693"/>
      <point x="130" y="673" type="curve" smooth="yes"/>
      <point x="197" y="314" type="line"/>
    </contour>
  </outline>
</glyph>
<glyph name="section" format="2">
  <advance width="417"/>
  <unicode hex="00A7"/>
  <outline>
    <contour>
      <point x="145" y="-236" type="curve" smooth="yes"/>
      <point x="230" y="-236"/>
      <point x="297" y="-169"/>
      <point x="303" y="-54" type="curve" smooth="yes"/>
      <point x="308" y="31"/>
      <point x="252" y="78"/>
      <point x="193" y="136" type="curve" smooth="yes"/>
      <point x="138" y="190"/>
      <point x="84" y="233"/>
      <point x="89" y="304" type="curve" smooth="yes"/>
      <point x="94" y="395"/>
      <point x="154" y="427"/>
      <point x="230" y="413" type="curve"/>
      <point x="227" y="428" type="line"/>
      <point x="152" y="443"/>
      <point x="66" y="405"/>
      <point x="60" y="293" type="curve" smooth="yes"/>
      <point x="55" y="211"/>
      <point x="105" y="166"/>
      <point x="162" y="110" type="curve" smooth="yes"/>
      <point x="222" y="50"/>
      <point x="279" y="10"/>
      <point x="274" y="-78" type="curve" smooth="yes"/>
      <point x="269" y="-166"/>
      <point x="220" y="-219"/>
      <point x="146" y="-219" type="curve" smooth="yes"/>
      <point x="87" y="-219"/>
      <point x="38" y="-191"/>
      <point x="18" y="-145" type="curve"/>
      <point x="15" y="-154"/>
      <point x="17" y="-168"/>
      <point x="32" y="-196" type="curve"/>
      <point x="54" y="-77" type="line"/>
      <point x="17" y="-77" type="line"/>
      <point x="0" y="-167" type="line"/>
      <point x="20" y="-197"/>
      <point x="70" y="-236"/>
    </contour>
    <contour>
      <point x="245" y="51" type="line"/>
      <point x="333" y="53"/>
      <point x="385" y="112"/>
      <point x="389" y="197" type="curve" smooth="yes"/>
      <point x="394" y="282"/>
      <point x="348" y="327"/>
      <point x="276" y="399" type="curve" smooth="yes"/>
      <point x="224" y="450"/>
      <point x="172" y="492"/>
      <point x="177" y="571" type="curve" smooth="yes"/>
      <point x="181" y="643"/>
      <point x="222" y="703"/>
      <point x="300" y="703" type="curve" smooth="yes"/>
      <point x="357" y="703"/>
      <point x="391" y="675"/>
      <point x="405" y="631" type="curve"/>
      <point x="409" y="648"/>
      <point x="402" y="671"/>
      <point x="387" y="678" type="curve"/>
      <point x="370" y="587" type="line"/>
      <point x="408" y="587" type="line"/>
      <point x="421" y="660" type="line"/>
      <point x="405" y="689"/>
      <point x="364" y="720"/>
      <point x="300" y="720" type="curve" smooth="yes"/>
      <point x="215" y="720"/>
      <point x="154" y="658"/>
      <point x="148" y="559" type="curve" smooth="yes"/>
      <point x="143" y="475"/>
      <point x="195" y="422"/>
      <point x="249" y="369" type="curve" smooth="yes"/>
      <point x="309" y="311"/>
      <point x="365" y="258"/>
      <point x="361" y="192" type="curve" smooth="yes"/>
      <point x="358" y="117"/>
      <point x="325" y="69"/>
      <point x="243" y="66" type="curve"/>
    </contour>
  </outline>
</glyph>
<glyph name="dieresis" format="2">
  <advance width="343"/>
  <unicode hex="00A8"/>
  <anchor x="193" y="526" name="_top"/>
  <outline>
    <contour>
      <point x="163" y="657" type="curve" smooth="yes"/>
      <point x="178" y="657"/>
      <point x="190" y="670"/>
      <point x="191" y="692" type="curve" smooth="yes"/>
      <point x="192" y="714"/>
      <point x="181" y="728"/>
      <point x="166" y="728" type="curve" smooth="yes"/>
      <point x="151" y="728"/>
      <point x="141" y="714"/>
      <point x="140" y="692" type="curve" smooth="yes"/>
      <point x="139" y="670"/>
      <point x="148" y="657"/>
    </contour>
    <contour>
      <point x="277" y="657" type="curve" smooth="yes"/>
      <point x="292" y="657"/>
      <point x="304" y="670"/>
      <point x="305" y="692" type="curve" smooth="yes"/>
      <point x="306" y="714"/>
      <point x="295" y="728"/>
      <point x="280" y="728" type="curve" smooth="yes"/>
      <point x="265" y="728"/>
      <point x="254" y="714"/>
      <point x="253" y="692" type="curve" smooth="yes"/>
      <point x="252" y="670"/>
      <point x="262" y="657"/>
    </contour>
  </outline>
</glyph>
<glyph name="copyright" format="2">
  <advance width="576"/>
  <unicode hex="00A9"/>
  <outline>
    <contour>
      <point x="329" y="546" type="curve" smooth="yes"/>
      <point x="378" y="546"/>
      <point x="406" y="505"/>
      <point x="418" y="445" type="curve"/>
      <point x="430" y="445" type="line"/>
      <point x="436" y="552" type="line"/>
      <point x="425" y="552" type="line"/>
      <point x="415" y="481" type="line"/>
      <point x="421" y="470" type="line"/>
      <point x="411" y="528"/>
      <point x="374" y="563"/>
      <point x="329" y="563" type="curve" smooth="yes"/>
      <point x="246" y="563"/>
      <point x="185" y="476"/>
      <point x="179" y="354" type="curve" smooth="yes"/>
      <point x="172" y="231"/>
      <point x="226" y="147"/>
      <point x="305" y="147" type="curve" smooth="yes"/>
      <point x="366" y="147"/>
      <point x="415" y="204"/>
      <point x="430" y="274" type="curve"/>
      <point x="419" y="281" type="line"/>
      <point x="402" y="212"/>
      <point x="363" y="164"/>
      <point x="309" y="164" type="curve" smooth="yes"/>
      <point x="241" y="164"/>
      <point x="208" y="238"/>
      <point x="214" y="354" type="curve" smooth="yes"/>
      <point x="220" y="473"/>
      <point x="261" y="546"/>
    </contour>
    <contour>
      <point x="66" y="355" type="curve" smooth="yes"/>
      <point x="77" y="562"/>
      <point x="189" y="720"/>
      <point x="330" y="720" type="curve" smooth="yes"/>
      <point x="472" y="720"/>
      <point x="565" y="562"/>
      <point x="554" y="355" type="curve" smooth="yes"/>
      <point x="543" y="148"/>
      <point x="432" y="-10"/>
      <point x="290" y="-10" type="curve" smooth="yes"/>
      <point x="149" y="-10"/>
      <point x="55" y="148"/>
    </contour>
    <contour>
      <point x="50" y="355" type="curve" smooth="yes"/>
      <point x="39" y="138"/>
      <point x="142" y="-28"/>
      <point x="289" y="-28" type="curve" smooth="yes"/>
      <point x="437" y="-28"/>
      <point x="559" y="138"/>
      <point x="570" y="355" type="curve" smooth="yes"/>
      <point x="582" y="572"/>
      <point x="479" y="738"/>
      <point x="331" y="738" type="curve" smooth="yes"/>
      <point x="184" y="738"/>
      <point x="62" y="572"/>
    </contour>
  </outline>
</glyph>
<glyph name="logicalnot" format="2">
  <advance width="384"/>
  <unicode hex="00AC"/>
  <outline>
    <contour>
      <point x="328" y="356" type="line"/>
      <point x="295" y="175" type="line"/>
      <point x="310" y="175" type="line"/>
      <point x="343" y="362" type="line"/>
      <point x="96" y="362" type="line"/>
      <point x="93" y="345" type="line"/>
      <point x="331" y="345" type="line"/>
    </contour>
  </outline>
</glyph>
<glyph name="acute" format="2">
  <advance width="343"/>
  <unicode hex="00B4"/>
  <anchor x="159" y="527" name="_top"/>
  <outline>
    <contour>
      <point x="225" y="719" type="curve" smooth="yes"/>
      <point x="168" y="592" type="line"/>
      <point x="167" y="585" type="line"/>
      <point x="177" y="585" type="line"/>
      <point x="252" y="687" type="line" smooth="yes"/>
      <point x="266" y="705"/>
      <point x="278" y="721"/>
      <point x="279" y="739" type="curve" smooth="yes"/>
      <point x="280" y="755"/>
      <point x="273" y="765"/>
      <point x="262" y="765" type="curve" smooth="yes"/>
      <point x="247" y="765"/>
      <point x="239" y="748"/>
    </contour>
  </outline>
</glyph>
<glyph name="multiply" format="2">
  <advance width="384"/>
  <unicode hex="00D7"/>
  <outline>
    <contour>
      <point x="74" y="164" type="line"/>
      <point x="368" y="504" type="line"/>
      <point x="361" y="518" type="line"/>
      <point x="67" y="177" type="line"/>
    </contour>
    <contour>
      <point x="301" y="165" type="line"/>
      <point x="310" y="176" type="line"/>
      <point x="136" y="519" type="line"/>
      <point x="125" y="507" type="line"/>
    </contour>
  </outline>
</glyph>
<glyph name="icircumflex" format="2">
  <advance width="169"/>
  <unicode hex="00EE"/>
  <outline>
    <contour>
      <point x="180" y="749" type="line"/>
      <point x="225" y="608" type="line"/>
      <point x="224" y="603" type="line"/>
      <point x="214" y="603" type="line"/>
      <point x="147" y="730" type="line"/>
      <point x="171" y="730" type="line"/>
      <point x="62" y="603" type="line"/>
      <point x="49" y="603" type="line"/>
      <point x="50" y="608" type="line"/>
      <point x="143" y="749" type="line"/>
    </contour>
    <component base="dotlessi"/>
  </outline>
</glyph>
<glyph name="divide" format="2">
  <advance width="384"/>
  <unicode hex="00F7"/>
  <outline>
    <contour>
      <point x="266" y="501" type="curve" smooth="yes"/>
      <point x="267" y="524"/>
      <point x="257" y="540"/>
      <point x="240" y="540" type="curve" smooth="yes"/>
      <point x="225" y="540"/>
      <point x="212" y="524"/>
      <point x="211" y="501" type="curve" smooth="yes"/>
      <point x="210" y="477"/>
      <point x="221" y="461"/>
      <point x="236" y="461" type="curve" smooth="yes"/>
      <point x="253" y="461"/>
      <point x="265" y="477"/>
    </contour>
    <contour>
      <point x="212" y="183" type="curve" smooth="yes"/>
      <point x="213" y="207"/>
      <point x="203" y="222"/>
      <point x="186" y="222" type="curve" smooth="yes"/>
      <point x="170" y="222"/>
      <point x="158" y="207"/>
      <point x="157" y="183" type="curve" smooth="yes"/>
      <point x="155" y="159"/>
      <point x="165" y="144"/>
      <point x="181" y="144" type="curve" smooth="yes"/>
      <point x="198" y="144"/>
      <point x="210" y="159"/>
    </contour>
    <component base="minus" xOffset="1"/>
  </outline>
</glyph>
<glyph name="Aogonek" format="2">
  <advance width="444"/>
  <unicode hex="0104"/>
  <outline>
    <contour>
      <point x="261" y="-233" type="curve" smooth="yes"/>
      <point x="219" y="-233"/>
      <point x="196" y="-202"/>
      <point x="199" y="-154" type="curve" smooth="yes"/>
      <point x="202" y="-85"/>
      <point x="259" y="-32"/>
      <point x="345" y="20" type="curve"/>
      <point x="350" y="10" type="line"/>
      <point x="266" y="-47"/>
      <point x="237" y="-94"/>
      <point x="234" y="-154" type="curve" smooth="yes"/>
      <point x="232" y="-193"/>
      <point x="248" y="-216"/>
      <point x="270" y="-216" type="curve" smooth="yes"/>
      <point x="288" y="-216"/>
      <point x="305" y="-202"/>
      <point x="322" y="-178" type="curve"/>
      <point x="327" y="-190" type="line"/>
      <point x="309" y="-218"/>
      <point x="287" y="-233"/>
    </contour>
    <contour>
      <point x="118" y="271" type="line"/>
      <point x="125" y="289" type="line"/>
      <point x="327" y="289" type="line"/>
      <point x="325" y="271" type="line"/>
    </contour>
    <contour>
      <point x="294" y="680" type="line"/>
      <point x="29" y="38" type="line"/>
      <point x="28" y="25"/>
      <point x="44" y="15"/>
      <point x="73" y="15" type="curve" smooth="yes"/>
      <point x="85" y="15" type="line"/>
      <point x="82" y="0" type="line"/>
      <point x="-38" y="0" type="line"/>
      <point x="-34" y="15" type="line"/>
      <point x="-31" y="15" type="line"/>
      <point x="-9" y="15"/>
      <point x="8" y="26"/>
      <point x="21" y="56" type="curve" smooth="yes"/>
      <point x="291" y="710" type="line"/>
      <point x="321" y="710" type="line"/>
      <point x="364" y="44" type="line" smooth="yes"/>
      <point x="365" y="19"/>
      <point x="378" y="15"/>
      <point x="400" y="15" type="curve"/>
      <point x="403" y="15" type="line"/>
      <point x="400" y="0" type="line"/>
      <point x="330" y="0" type="line"/>
      <point x="287" y="683" type="line"/>
    </contour>
  </outline>
</glyph>
<glyph name="Hbar" format="2">
  <advance width="514"/>
  <unicode hex="0126"/>
  <outline>
    <contour>
      <point x="136" y="375" type="line"/>
      <point x="133" y="358" type="line"/>
      <point x="434" y="358" type="line"/>
      <point x="437" y="375" type="line"/>
    </contour>
    <contour>
      <point x="74" y="520" type="line"/>
      <point x="537" y="520" type="line"/>
      <point x="541" y="538" type="line"/>
      <point x="78" y="538" type="line"/>
    </contour>
    <contour>
      <point x="-15" y="0" type="line"/>
      <point x="138" y="0" type="line"/>
      <point x="142" y="15" type="line"/>
      <point x="136" y="15" type="line" smooth="yes"/>
      <point x="113" y="15"/>
      <point x="83" y="18"/>
      <point x="83" y="25" type="curve" smooth="yes"/>
      <point x="199" y="685" type="line" smooth="yes"/>
      <point x="201" y="692"/>
      <point x="231" y="695"/>
      <point x="254" y="695" type="curve" smooth="yes"/>
      <point x="260" y="695" type="line"/>
      <point x="263" y="710" type="line"/>
      <point x="110" y="710" type="line"/>
      <point x="107" y="695" type="line"/>
      <point x="114" y="695" type="line" smooth="yes"/>
      <point x="142" y="695"/>
      <point x="166" y="689"/>
      <point x="162" y="668" type="curve" smooth="yes"/>
      <point x="51" y="42" type="line" smooth="yes"/>
      <point x="48" y="20"/>
      <point x="24" y="15"/>
      <point x="-5" y="15" type="curve" smooth="yes"/>
      <point x="-11" y="15" type="line"/>
    </contour>
    <contour>
      <point x="292" y="0" type="line"/>
      <point x="445" y="0" type="line"/>
      <point x="449" y="15" type="line"/>
      <point x="441" y="15" type="line" smooth="yes"/>
      <point x="412" y="15"/>
      <point x="390" y="21"/>
      <point x="393" y="43" type="curve" smooth="yes"/>
      <point x="503" y="667" type="line" smooth="yes"/>
      <point x="507" y="689"/>
      <point x="530" y="695"/>
      <point x="560" y="695" type="curve" smooth="yes"/>
      <point x="567" y="695" type="line"/>
      <point x="571" y="710" type="line"/>
      <point x="417" y="710" type="line"/>
      <point x="414" y="695" type="line"/>
      <point x="420" y="695" type="line" smooth="yes"/>
      <point x="443" y="695"/>
      <point x="473" y="692"/>
      <point x="471" y="685" type="curve" smooth="yes"/>
      <point x="355" y="25" type="line" smooth="yes"/>
      <point x="355" y="18"/>
      <point x="325" y="15"/>
      <point x="302" y="15" type="curve" smooth="yes"/>
      <point x="295" y="15" type="line"/>
    </contour>
  </outline>
</glyph>
<glyph name="imacron" format="2">
  <advance width="168"/>
  <unicode hex="012B"/>
  <outline>
    <contour>
      <point x="78" y="688" type="line"/>
      <point x="73" y="667" type="line"/>
      <point x="223" y="667" type="line"/>
      <point x="228" y="688" type="line"/>
    </contour>
    <component base="dotlessi"/>
  </outline>
</glyph>
<glyph name="ibreve" format="2">
  <advance width="168"/>
  <unicode hex="012D"/>
  <outline>
    <contour>
      <point x="141" y="604" type="curve" smooth="yes"/>
      <point x="96" y="604"/>
      <point x="72" y="645"/>
      <point x="76" y="723" type="curve" smooth="yes"/>
      <point x="76" y="727"/>
      <point x="76" y="735"/>
      <point x="78" y="742" type="curve"/>
      <point x="91" y="742" type="line"/>
      <point x="89" y="682"/>
      <point x="99" y="644"/>
      <point x="146" y="644" type="curve" smooth="yes"/>
      <point x="183" y="644"/>
      <point x="207" y="673"/>
      <point x="222" y="742" type="curve"/>
      <point x="235" y="742" type="line"/>
      <point x="220" y="641"/>
      <point x="185" y="604"/>
    </contour>
    <component base="dotlessi"/>
  </outline>
</glyph>
<glyph name="Iogonek" format="2">
  <advance width="208"/>
  <unicode hex="012E"/>
  <outline>
    <contour>
      <point x="117" y="14" type="line"/>
      <point x="34" y="-36"/>
      <point x="-20" y="-88"/>
      <point x="-23" y="-154" type="curve" smooth="yes"/>
      <point x="-26" y="-202"/>
      <point x="-4" y="-233"/>
      <point x="38" y="-233" type="curve" smooth="yes"/>
      <point x="64" y="-233"/>
      <point x="86" y="-218"/>
      <point x="104" y="-190" type="curve"/>
      <point x="99" y="-178" type="line"/>
      <point x="83" y="-202"/>
      <point x="66" y="-216"/>
      <point x="47" y="-216" type="curve" smooth="yes"/>
      <point x="26" y="-216"/>
      <point x="10" y="-193"/>
      <point x="12" y="-154" type="curve" smooth="yes"/>
      <point x="14" y="-97"/>
      <point x="42" y="-50"/>
      <point x="121" y="3" type="curve"/>
    </contour>
    <component base="I"/>
  </outline>
</glyph>
<glyph name="iogonek" format="2">
  <advance width="168"/>
  <unicode hex="012F"/>
  <outline>
    <contour>
      <point x="134" y="17" type="line"/>
      <point x="54" y="-43"/>
      <point x="1" y="-90"/>
      <point x="-2" y="-154" type="curve" smooth="yes"/>
      <point x="-5" y="-202"/>
      <point x="18" y="-233"/>
      <point x="59" y="-233" type="curve" smooth="yes"/>
      <point x="86" y="-233"/>
      <point x="107" y="-218"/>
      <point x="126" y="-190" type="curve"/>
      <point x="121" y="-178" type="line"/>
      <point x="104" y="-202"/>
      <point x="87" y="-216"/>
      <point x="69" y="-216" type="curve" smooth="yes"/>
      <point x="47" y="-216"/>
      <point x="32" y="-193"/>
      <point x="34" y="-154" type="curve" smooth="yes"/>
      <point x="36" y="-98"/>
      <point x="62" y="-56"/>
      <point x="142" y="9" type="curve"/>
    </contour>
    <component base="i"/>
  </outline>
</glyph>
<glyph name="dotlessi" format="2">
  <advance width="169"/>
  <unicode hex="0131"/>
  <anchor x="116" y="518" name="top"/>
  <outline>
    <contour>
      <point x="100" y="174" type="curve" smooth="yes"/>
      <point x="162" y="518" type="line"/>
      <point x="73" y="518" type="line"/>
      <point x="70" y="503" type="line"/>
      <point x="86" y="501" type="line" smooth="yes"/>
      <point x="112" y="496"/>
      <point x="122" y="491"/>
      <point x="118" y="471" type="curve"/>
      <point x="69" y="193" type="line" smooth="yes"/>
      <point x="60" y="135"/>
      <point x="52" y="91"/>
      <point x="51" y="62" type="curve" smooth="yes"/>
      <point x="48" y="13"/>
      <point x="68" y="-7"/>
      <point x="100" y="-7" type="curve" smooth="yes"/>
      <point x="117" y="-7"/>
      <point x="136" y="2"/>
      <point x="144" y="11" type="curve"/>
      <point x="148" y="27" type="line"/>
      <point x="141" y="23"/>
      <point x="124" y="13"/>
      <point x="109" y="13" type="curve" smooth="yes"/>
      <point x="89" y="13"/>
      <point x="81" y="25"/>
      <point x="83" y="57" type="curve" smooth="yes"/>
      <point x="85" y="83"/>
      <point x="93" y="130"/>
    </contour>
  </outline>
</glyph>
<glyph name="Lslash" format="2">
  <advance width="385"/>
  <unicode hex="0141"/>
  <outline>
    <contour>
      <point x="27" y="238" type="line"/>
      <point x="299" y="472" type="line"/>
      <point x="304" y="497" type="line"/>
      <point x="32" y="262" type="line"/>
    </contour>
    <component base="L"/>
  </outline>
</glyph>
<glyph name="Eng" format="2">
  <advance width="491"/>
  <unicode hex="014A"/>
  <outline>
    <contour>
      <point x="230" y="-205" type="curve" smooth="yes"/>
      <point x="194" y="-205"/>
      <point x="169" y="-192"/>
      <point x="154" y="-179" type="curve"/>
      <point x="157" y="-159" type="line"/>
      <point x="175" y="-175"/>
      <point x="198" y="-187"/>
      <point x="232" y="-187" type="curve" smooth="yes"/>
      <point x="282" y="-187"/>
      <point x="322" y="-145"/>
      <point x="338" y="-48" type="curve" smooth="yes"/>
      <point x="350" y="16" type="line"/>
      <point x="347" y="-27" type="line"/>
      <point x="172" y="701" type="line"/>
      <point x="184" y="705" type="line"/>
      <point x="66" y="34" type="line" smooth="yes"/>
      <point x="65" y="25"/>
      <point x="91" y="15"/>
      <point x="118" y="15" type="curve" smooth="yes"/>
      <point x="130" y="15" type="line"/>
      <point x="126" y="0" type="line"/>
      <point x="-15" y="0" type="line"/>
      <point x="-11" y="15" type="line"/>
      <point x="-4" y="15" type="line" smooth="yes"/>
      <point x="25" y="15"/>
      <point x="50" y="27"/>
      <point x="55" y="54" type="curve" smooth="yes"/>
      <point x="161" y="667" type="line" smooth="yes"/>
      <point x="166" y="689"/>
      <point x="143" y="695"/>
      <point x="114" y="695" type="curve" smooth="yes"/>
      <point x="107" y="695" type="line"/>
      <point x="110" y="710" type="line"/>
      <point x="207" y="710" type="line"/>
      <point x="365" y="42" type="line"/>
      <point x="353" y="35" type="line"/>
      <point x="465" y="676" type="line"/>
      <point x="466" y="685"/>
      <point x="440" y="695"/>
      <point x="413" y="695" type="curve" smooth="yes"/>
      <point x="402" y="695" type="line"/>
      <point x="405" y="710" type="line"/>
      <point x="546" y="710" type="line"/>
      <point x="543" y="695" type="line"/>
      <point x="535" y="695" type="line" smooth="yes"/>
      <point x="506" y="695"/>
      <point x="481" y="683"/>
      <point x="477" y="657" type="curve" smooth="yes"/>
      <point x="354" y="-49" type="line" smooth="yes"/>
      <point x="336" y="-149"/>
      <point x="294" y="-205"/>
    </contour>
  </outline>
</glyph>
<glyph name="OE" format="2">
  <advance width="661"/>
  <unicode hex="0152"/>
  <outline>
    <contour>
      <point x="397" y="372" type="curve"/>
      <point x="394" y="356" type="line"/>
      <point x="485" y="354"/>
      <point x="529" y="353"/>
      <point x="570" y="346" type="curve"/>
      <point x="577" y="383" type="line"/>
      <point x="533" y="375"/>
      <point x="490" y="374"/>
    </contour>
    <contour>
      <point x="615" y="178" type="line"/>
      <point x="602" y="178" type="line"/>
      <point x="572" y="55" type="line" smooth="yes"/>
      <point x="563" y="24"/>
      <point x="541" y="18"/>
      <point x="480" y="18" type="curve" smooth="yes"/>
      <point x="347" y="18" type="line"/>
      <point x="465" y="692" type="line"/>
      <point x="590" y="692" type="line" smooth="yes"/>
      <point x="643" y="692"/>
      <point x="660" y="686"/>
      <point x="657" y="658" type="curve"/>
      <point x="646" y="557" type="line"/>
      <point x="659" y="557" type="line"/>
      <point x="687" y="710" type="line"/>
      <point x="368" y="710" type="line" smooth="yes"/>
      <point x="159" y="710"/>
      <point x="52" y="518"/>
      <point x="41" y="311" type="curve" smooth="yes"/>
      <point x="31" y="127"/>
      <point x="111" y="0"/>
      <point x="279" y="0" type="curve" smooth="yes"/>
      <point x="584" y="0" type="line"/>
    </contour>
    <contour>
      <point x="282" y="18" type="line" smooth="yes"/>
      <point x="129" y="18"/>
      <point x="70" y="137"/>
      <point x="79" y="310" type="curve" smooth="yes"/>
      <point x="89" y="502"/>
      <point x="174" y="692"/>
      <point x="365" y="692" type="curve" smooth="yes"/>
      <point x="430" y="692" type="line"/>
      <point x="312" y="18" type="line"/>
    </contour>
  </outline>
</glyph>
<glyph name="uhorn" format="2">
  <advance width="402"/>
  <unicode hex="01B0"/>
  <anchor x="182" y="518" name="top"/>
  <outline>
    <contour>
      <point x="74" y="518" type="line"/>
      <point x="71" y="503" type="line"/>
      <point x="87" y="501" type="line" smooth="yes"/>
      <point x="113" y="496"/>
      <point x="122" y="491"/>
      <point x="118" y="471" type="curve" smooth="yes"/>
      <point x="68" y="195" type="line" smooth="yes"/>
      <point x="62" y="158"/>
      <point x="58" y="122"/>
      <point x="57" y="96" type="curve" smooth="yes"/>
      <point x="53" y="31"/>
      <point x="77" y="-10"/>
      <point x="124" y="-10" type="curve" smooth="yes"/>
      <point x="187" y="-10"/>
      <point x="241" y="73"/>
      <point x="296" y="206" type="curve"/>
      <point x="290" y="219" type="line"/>
      <point x="235" y="92"/>
      <point x="186" y="11"/>
      <point x="134" y="11" type="curve" smooth="yes"/>
      <point x="102" y="11"/>
      <point x="88" y="42"/>
      <point x="91" y="94" type="curve" smooth="yes"/>
      <point x="93" y="123"/>
      <point x="97" y="155"/>
      <point x="103" y="192" type="curve" smooth="yes"/>
      <point x="163" y="518" type="line"/>
    </contour>
    <contour>
      <point x="369" y="512" type="line"/>
      <point x="353" y="503" type="line"/>
      <point x="436" y="506"/>
      <point x="474" y="559"/>
      <point x="498" y="660" type="curve"/>
      <point x="465" y="660" type="line"/>
      <point x="443" y="564"/>
      <point x="416" y="518"/>
      <point x="337" y="518" type="curve" smooth="yes"/>
      <point x="334" y="518" type="line"/>
      <point x="274" y="168" type="line"/>
      <point x="273" y="165" type="line"/>
      <point x="267" y="132"/>
      <point x="259" y="87"/>
      <point x="258" y="62" type="curve" smooth="yes"/>
      <point x="255" y="13"/>
      <point x="276" y="-7"/>
      <point x="307" y="-7" type="curve" smooth="yes"/>
      <point x="324" y="-7"/>
      <point x="343" y="2"/>
      <point x="352" y="11" type="curve"/>
      <point x="355" y="27" type="line"/>
      <point x="348" y="24"/>
      <point x="333" y="13"/>
      <point x="316" y="13" type="curve" smooth="yes"/>
      <point x="297" y="13"/>
      <point x="289" y="26"/>
      <point x="291" y="57" type="curve" smooth="yes"/>
      <point x="292" y="77"/>
      <point x="297" y="110"/>
      <point x="302" y="133" type="curve" smooth="yes"/>
    </contour>
  </outline>
</glyph>
<glyph name="icaron" format="2">
  <advance width="169"/>
  <unicode hex="01D0"/>
  <outline>
    <contour>
      <point x="121" y="603" type="line"/>
      <point x="77" y="744" type="line"/>
      <point x="77" y="749" type="line"/>
      <point x="88" y="749" type="line"/>
      <point x="156" y="620" type="line"/>
      <point x="128" y="621" type="line"/>
      <point x="239" y="749" type="line"/>
      <point x="252" y="749" type="line"/>
      <point x="251" y="744" type="line"/>
      <point x="158" y="603" type="line"/>
    </contour>
    <component base="dotlessi"/>
  </outline>
</glyph>
<glyph name="Oogonek" format="2">
  <advance width="502"/>
  <unicode hex="01EA"/>
  <outline>
    <contour>
      <point x="234" y="9" type="curve" smooth="yes"/>
      <point x="122" y="9"/>
      <point x="73" y="152"/>
      <point x="82" y="317" type="curve" smooth="yes"/>
      <point x="84" y="346"/>
      <point x="87" y="375"/>
      <point x="91" y="404" type="curve" smooth="yes"/>
      <point x="120" y="564"/>
      <point x="200" y="701"/>
      <point x="312" y="701" type="curve" smooth="yes"/>
      <point x="424" y="701"/>
      <point x="474" y="560"/>
      <point x="466" y="393" type="curve" smooth="yes"/>
      <point x="464" y="363"/>
      <point x="459" y="334"/>
      <point x="455" y="304" type="curve" smooth="yes"/>
      <point x="425" y="145"/>
      <point x="347" y="9"/>
    </contour>
    <contour>
      <point x="230" y="-233" type="curve" smooth="yes"/>
      <point x="257" y="-233"/>
      <point x="278" y="-217"/>
      <point x="297" y="-190" type="curve"/>
      <point x="291" y="-178" type="line"/>
      <point x="274" y="-201"/>
      <point x="257" y="-216"/>
      <point x="238" y="-216" type="curve" smooth="yes"/>
      <point x="215" y="-216"/>
      <point x="202" y="-195"/>
      <point x="204" y="-153" type="curve" smooth="yes"/>
      <point x="207" y="-89"/>
      <point x="244" y="-46"/>
      <point x="346" y="30" type="curve" smooth="yes"/>
      <point x="435" y="96"/>
      <point x="495" y="241"/>
      <point x="503" y="389" type="curve" smooth="yes"/>
      <point x="513" y="567"/>
      <point x="442" y="720"/>
      <point x="313" y="720" type="curve" smooth="yes"/>
      <point x="165" y="720"/>
      <point x="55" y="525"/>
      <point x="45" y="321" type="curve" smooth="yes"/>
      <point x="34" y="146"/>
      <point x="104" y="-10"/>
      <point x="232" y="-10" type="curve" smooth="yes"/>
      <point x="255" y="-10"/>
      <point x="277" y="-6"/>
      <point x="298" y="2" type="curve"/>
      <point x="303" y="12" type="line"/>
      <point x="224" y="-42"/>
      <point x="172" y="-90"/>
      <point x="169" y="-152" type="curve" smooth="yes"/>
      <point x="166" y="-201"/>
      <point x="189" y="-233"/>
    </contour>
  </outline>
</glyph>
<glyph name="dotlessj" format="2">
  <advance width="162"/>
  <unicode hex="0237"/>
  <anchor x="135" y="518" name="top"/>
  <outline>
    <contour>
      <point x="26" y="-94" type="line" smooth="yes"/>
      <point x="13" y="-180"/>
      <point x="-10" y="-215"/>
      <point x="-46" y="-215" type="curve" smooth="yes"/>
      <point x="-69" y="-215"/>
      <point x="-85" y="-207"/>
      <point x="-95" y="-200" type="curve"/>
      <point x="-98" y="-218" type="line"/>
      <point x="-89" y="-223"/>
      <point x="-70" y="-233"/>
      <point x="-46" y="-233" type="curve" smooth="yes"/>
      <point x="0" y="-233"/>
      <point x="42" y="-204"/>
      <point x="61" y="-92" type="curve" smooth="yes"/>
      <point x="162" y="518" type="line"/>
      <point x="73" y="518" type="line"/>
      <point x="70" y="503" type="line"/>
      <point x="86" y="501" type="line" smooth="yes"/>
      <point x="112" y="496"/>
      <point x="121" y="491"/>
      <point x="117" y="471" type="curve" smooth="yes"/>
    </contour>
  </outline>
</glyph>
<glyph name="schwa" format="2">
  <advance width="324"/>
  <unicode hex="0259"/>
  <outline>
    <contour>
      <point x="200" y="528" type="curve" smooth="yes"/>
      <point x="140" y="528"/>
      <point x="94" y="480"/>
      <point x="65" y="423" type="curve"/>
      <point x="74" y="411" type="line"/>
      <point x="104" y="472"/>
      <point x="145" y="510"/>
      <point x="198" y="510" type="curve" smooth="yes"/>
      <point x="255" y="510"/>
      <point x="291" y="447"/>
      <point x="284" y="306" type="curve" smooth="yes"/>
      <point x="275" y="139"/>
      <point x="205" y="7"/>
      <point x="121" y="7" type="curve" smooth="yes"/>
      <point x="79" y="7"/>
      <point x="58" y="52"/>
      <point x="61" y="107" type="curve" smooth="yes"/>
      <point x="66" y="204"/>
      <point x="123" y="267"/>
      <point x="295" y="302" type="curve"/>
      <point x="299" y="319" type="line"/>
      <point x="91" y="278"/>
      <point x="34" y="201"/>
      <point x="29" y="107" type="curve" smooth="yes"/>
      <point x="26" y="47"/>
      <point x="57" y="-10"/>
      <point x="119" y="-10" type="curve" smooth="yes"/>
      <point x="232" y="-10"/>
      <point x="311" y="145"/>
      <point x="321" y="304" type="curve" smooth="yes"/>
      <point x="328" y="456"/>
      <point x="276" y="528"/>
    </contour>
  </outline>
</glyph>
<glyph name="ring" format="2">
  <advance width="343"/>
  <unicode hex="02DA"/>
  <anchor x="197" y="526" name="_top"/>
  <outline>
    <contour>
      <point x="206" y="612" type="curve" smooth="yes"/>
      <point x="184" y="612"/>
      <point x="173" y="634"/>
      <point x="175" y="677" type="curve" smooth="yes"/>
      <point x="177" y="726"/>
      <point x="194" y="753"/>
      <point x="220" y="753" type="curve" smooth="yes"/>
      <point x="241" y="753"/>
      <point x="254" y="731"/>
      <point x="253" y="689" type="curve" smooth="yes"/>
      <point x="250" y="639"/>
      <point x="231" y="612"/>
    </contour>
    <contour>
      <point x="205" y="597" type="curve" smooth="yes"/>
      <point x="243" y="597"/>
      <point x="278" y="629"/>
      <point x="282" y="689" type="curve" smooth="yes"/>
      <point x="284" y="740"/>
      <point x="256" y="769"/>
      <point x="221" y="769" type="curve" smooth="yes"/>
      <point x="182" y="769"/>
      <point x="148" y="736"/>
      <point x="146" y="677" type="curve" smooth="yes"/>
      <point x="143" y="625"/>
      <point x="171" y="597"/>
    </contour>
  </outline>
</glyph>
<glyph name="Omega" format="2">
  <advance width="527"/>
  <unicode hex="03A9"/>
  <outline>
    <contour>
      <point x="329" y="702" type="curve" smooth="yes"/>
      <point x="219" y="702"/>
      <point x="139" y="595"/>
      <point x="129" y="397" type="curve" smooth="yes"/>
      <point x="121" y="253"/>
      <point x="147" y="153"/>
      <point x="201" y="29" type="curve"/>
      <point x="195" y="0" type="line"/>
      <point x="0" y="0" type="line"/>
      <point x="29" y="173" type="line"/>
      <point x="42" y="173" type="line"/>
      <point x="34" y="79" type="line" smooth="yes"/>
      <point x="31" y="44"/>
      <point x="51" y="36"/>
      <point x="111" y="36" type="curve" smooth="yes"/>
      <point x="189" y="36" type="line"/>
      <point x="189" y="18" type="line"/>
      <point x="127" y="156"/>
      <point x="85" y="276"/>
      <point x="92" y="398" type="curve" smooth="yes"/>
      <point x="103" y="601"/>
      <point x="201" y="720"/>
      <point x="330" y="720" type="curve" smooth="yes"/>
      <point x="447" y="720"/>
      <point x="519" y="606"/>
      <point x="510" y="452" type="curve" smooth="yes"/>
      <point x="502" y="294"/>
      <point x="420" y="179"/>
      <point x="275" y="16" type="curve"/>
      <point x="281" y="36" type="line"/>
      <point x="363" y="36" type="line" smooth="yes"/>
      <point x="422" y="36"/>
      <point x="446" y="43"/>
      <point x="457" y="79" type="curve" smooth="yes"/>
      <point x="479" y="173" type="line"/>
      <point x="490" y="173" type="line"/>
      <point x="462" y="0" type="line"/>
      <point x="263" y="0" type="line"/>
      <point x="269" y="29" type="line"/>
      <point x="395" y="177"/>
      <point x="466" y="295"/>
      <point x="474" y="451" type="curve" smooth="yes"/>
      <point x="482" y="598"/>
      <point x="430" y="702"/>
    </contour>
  </outline>
</glyph>
<glyph name="mu" format="2">
  <advance width="389"/>
  <unicode hex="03BC"/>
  <outline>
    <contour>
      <point x="304" y="-10" type="curve" smooth="yes"/>
      <point x="335" y="-10"/>
      <point x="361" y="20"/>
      <point x="379" y="60" type="curve"/>
      <point x="371" y="71" type="line"/>
      <point x="355" y="36"/>
      <point x="332" y="8"/>
      <point x="312" y="8" type="curve" smooth="yes"/>
      <point x="296" y="8"/>
      <point x="288" y="20"/>
      <point x="290" y="48" type="curve" smooth="yes"/>
      <point x="291" y="76"/>
      <point x="296" y="105"/>
      <point x="302" y="132" type="curve" smooth="yes"/>
      <point x="369" y="518" type="line"/>
      <point x="334" y="518" type="line"/>
      <point x="272" y="167" type="line"/>
      <point x="273" y="167" type="line"/>
      <point x="267" y="132"/>
      <point x="259" y="86"/>
      <point x="257" y="58" type="curve" smooth="yes"/>
      <point x="255" y="11"/>
      <point x="272" y="-10"/>
    </contour>
    <contour>
      <point x="-12" y="-250" type="line"/>
      <point x="26" y="-250" type="line"/>
      <point x="47" y="-118"/>
      <point x="41" y="-56"/>
      <point x="70" y="142" type="curve"/>
      <point x="63" y="111" type="line"/>
      <point x="55" y="17"/>
      <point x="83" y="-10"/>
      <point x="126" y="-10" type="curve" smooth="yes"/>
      <point x="187" y="-10"/>
      <point x="242" y="73"/>
      <point x="296" y="202" type="curve"/>
      <point x="290" y="216" type="line"/>
      <point x="237" y="94"/>
      <point x="185" y="11"/>
      <point x="133" y="11" type="curve" smooth="yes"/>
      <point x="101" y="11"/>
      <point x="85" y="37"/>
      <point x="89" y="97" type="curve" smooth="yes"/>
      <point x="90" y="124"/>
      <point x="95" y="154"/>
      <point x="101" y="191" type="curve" smooth="yes"/>
      <point x="161" y="518" type="line"/>
      <point x="126" y="518" type="line"/>
    </contour>
  </outline>
</glyph>
<glyph name="thai:baht" format="2">
  <advance width="384"/>
  <unicode hex="0E3F"/>
  <outline>
    <contour>
      <point x="69" y="18" type="line"/>
      <point x="129" y="364" type="line"/>
      <point x="216" y="364" type="line" smooth="yes"/>
      <point x="298" y="364"/>
      <point x="326" y="295"/>
      <point x="321" y="212" type="curve" smooth="yes"/>
      <point x="320" y="198"/>
      <point x="320" y="183"/>
      <point x="316" y="169" type="curve" smooth="yes"/>
      <point x="298" y="62"/>
      <point x="255" y="18"/>
      <point x="169" y="18" type="curve" smooth="yes"/>
    </contour>
    <contour>
      <point x="132" y="381" type="line"/>
      <point x="186" y="691" type="line"/>
      <point x="256" y="691" type="line" smooth="yes"/>
      <point x="336" y="691"/>
      <point x="363" y="636"/>
      <point x="358" y="556" type="curve" smooth="yes"/>
      <point x="357" y="545"/>
      <point x="356" y="533"/>
      <point x="354" y="522" type="curve" smooth="yes"/>
      <point x="337" y="433"/>
      <point x="300" y="381"/>
      <point x="211" y="381" type="curve" smooth="yes"/>
    </contour>
    <contour>
      <point x="128" y="-119" type="line"/>
      <point x="142" y="-119" type="line"/>
      <point x="164" y="7" type="line"/>
      <point x="166" y="17" type="line"/>
      <point x="285" y="694" type="line"/>
      <point x="285" y="702" type="line"/>
      <point x="301" y="790" type="line"/>
      <point x="287" y="790" type="line"/>
      <point x="271" y="702" type="line"/>
      <point x="271" y="693" type="line"/>
      <point x="152" y="16" type="line"/>
      <point x="150" y="6" type="line"/>
    </contour>
    <contour>
      <point x="-26" y="0" type="line"/>
      <point x="163" y="0" type="line" smooth="yes"/>
      <point x="288" y="0"/>
      <point x="353" y="80"/>
      <point x="359" y="210" type="curve" smooth="yes"/>
      <point x="364" y="303"/>
      <point x="327" y="373"/>
      <point x="226" y="377" type="curve"/>
      <point x="245" y="368" type="line"/>
      <point x="248" y="379" type="line"/>
      <point x="226" y="370" type="line"/>
      <point x="334" y="370"/>
      <point x="388" y="458"/>
      <point x="394" y="556" type="curve" smooth="yes"/>
      <point x="399" y="641"/>
      <point x="360" y="709"/>
      <point x="259" y="709" type="curve" smooth="yes"/>
      <point x="98" y="709" type="line"/>
      <point x="95" y="693" type="line"/>
      <point x="102" y="693" type="line" smooth="yes"/>
      <point x="129" y="693"/>
      <point x="151" y="688"/>
      <point x="146" y="666" type="curve" smooth="yes"/>
      <point x="37" y="42" type="line" smooth="yes"/>
      <point x="34" y="21"/>
      <point x="10" y="15"/>
      <point x="-16" y="15" type="curve" smooth="yes"/>
      <point x="-24" y="15" type="line"/>
    </contour>
  </outline>
</glyph>
<glyph name="idieresisacute" format="2">
  <advance width="169"/>
  <unicode hex="1E2F"/>
  <outline>
    <contour>
      <point x="89" y="631" type="curve" smooth="yes"/>
      <point x="74" y="631"/>
      <point x="64" y="644"/>
      <point x="65" y="666" type="curve" smooth="yes"/>
      <point x="67" y="688"/>
      <point x="78" y="702"/>
      <point x="93" y="702" type="curve" smooth="yes"/>
      <point x="108" y="702"/>
      <point x="119" y="688"/>
      <point x="117" y="666" type="curve" smooth="yes"/>
      <point x="116" y="644"/>
      <point x="104" y="631"/>
    </contour>
    <contour>
      <point x="203" y="631" type="curve" smooth="yes"/>
      <point x="188" y="631"/>
      <point x="179" y="644"/>
      <point x="180" y="666" type="curve" smooth="yes"/>
      <point x="182" y="688"/>
      <point x="192" y="702"/>
      <point x="207" y="702" type="curve" smooth="yes"/>
      <point x="222" y="702"/>
      <point x="233" y="688"/>
      <point x="231" y="666" type="curve" smooth="yes"/>
      <point x="230" y="644"/>
      <point x="218" y="631"/>
    </contour>
    <contour>
      <point x="196" y="875" type="curve" smooth="yes"/>
      <point x="138" y="748" type="line"/>
      <point x="137" y="741" type="line"/>
      <point x="146" y="741" type="line"/>
      <point x="222" y="843" type="line" smooth="yes"/>
      <point x="236" y="861"/>
      <point x="248" y="877"/>
      <point x="249" y="896" type="curve" smooth="yes"/>
      <point x="250" y="911"/>
      <point x="243" y="921"/>
      <point x="232" y="921" type="curve" smooth="yes"/>
      <point x="218" y="921"/>
      <point x="210" y="905"/>
    </contour>
    <component base="dotlessi"/>
  </outline>
</glyph>
<glyph name="endash" format="2">
  <advance width="394"/>
  <unicode hex="2013"/>
  <outline>
    <contour>
      <point x="63" y="326" type="line"/>
      <point x="59" y="305" type="line"/>
      <point x="366" y="305" type="line"/>
      <point x="370" y="326" type="line"/>
    </contour>
  </outline>
</glyph>
<glyph name="daggerdbl" format="2">
  <advance width="282"/>
  <unicode hex="2021"/>
  <outline>
    <contour>
      <point x="18" y="171" type="line"/>
      <point x="32" y="171" type="line"/>
      <point x="137" y="188" type="line"/>
      <point x="144" y="188" type="line"/>
      <point x="243" y="171" type="line"/>
      <point x="257" y="171" type="line"/>
      <point x="267" y="224" type="line"/>
      <point x="253" y="224" type="line"/>
      <point x="147" y="201" type="line"/>
      <point x="140" y="201" type="line"/>
      <point x="41" y="224" type="line"/>
      <point x="28" y="224" type="line"/>
    </contour>
    <contour>
      <point x="148" y="345" type="line"/>
      <point x="150" y="307"/>
      <point x="149" y="269"/>
      <point x="136" y="199" type="curve"/>
      <point x="122" y="114"/>
      <point x="99" y="52"/>
      <point x="94" y="25" type="curve" smooth="yes"/>
      <point x="89" y="0" type="line"/>
      <point x="127" y="0" type="line"/>
      <point x="131" y="25" type="line" smooth="yes"/>
      <point x="136" y="52"/>
      <point x="135" y="114"/>
      <point x="148" y="199" type="curve"/>
      <point x="162" y="269"/>
      <point x="173" y="307"/>
      <point x="189" y="345" type="curve"/>
      <point x="193" y="365" type="line"/>
      <point x="191" y="403"/>
      <point x="190" y="441"/>
      <point x="204" y="511" type="curve"/>
      <point x="219" y="596"/>
      <point x="242" y="658"/>
      <point x="247" y="685" type="curve" smooth="yes"/>
      <point x="251" y="710" type="line"/>
      <point x="214" y="710" type="line"/>
      <point x="210" y="685" type="line" smooth="yes"/>
      <point x="205" y="658"/>
      <point x="206" y="596"/>
      <point x="190" y="511" type="curve"/>
      <point x="178" y="441"/>
      <point x="167" y="403"/>
      <point x="151" y="365" type="curve"/>
    </contour>
    <contour>
      <point x="73" y="486" type="line"/>
      <point x="87" y="486" type="line"/>
      <point x="193" y="509" type="line"/>
      <point x="200" y="509" type="line"/>
      <point x="298" y="486" type="line"/>
      <point x="312" y="486" type="line"/>
      <point x="322" y="539" type="line"/>
      <point x="308" y="539" type="line"/>
      <point x="203" y="522" type="line"/>
      <point x="196" y="522" type="line"/>
      <point x="97" y="539" type="line"/>
      <point x="83" y="539" type="line"/>
    </contour>
  </outline>
</glyph>
<glyph name="perthousand" format="2">
  <advance width="741"/>
  <unicode hex="2030"/>
  <outline>
    <contour>
      <point x="147" y="382" type="curve" smooth="yes"/>
      <point x="211" y="382"/>
      <point x="262" y="468"/>
      <point x="268" y="579" type="curve" smooth="yes"/>
      <point x="273" y="655"/>
      <point x="242" y="720"/>
      <point x="187" y="720" type="curve" smooth="yes"/>
      <point x="123" y="720"/>
      <point x="70" y="633"/>
      <point x="64" y="523" type="curve" smooth="yes"/>
      <point x="60" y="447"/>
      <point x="93" y="382"/>
    </contour>
    <contour>
      <point x="146" y="398" type="curve" smooth="yes"/>
      <point x="112" y="398"/>
      <point x="93" y="440"/>
      <point x="98" y="522" type="curve" smooth="yes"/>
      <point x="104" y="616"/>
      <point x="137" y="704"/>
      <point x="189" y="704" type="curve" smooth="yes"/>
      <point x="223" y="704"/>
      <point x="240" y="660"/>
      <point x="235" y="580" type="curve" smooth="yes"/>
      <point x="230" y="486"/>
      <point x="197" y="398"/>
    </contour>
    <contour>
      <point x="349" y="-10" type="curve" smooth="yes"/>
      <point x="295" y="-10"/>
      <point x="264" y="55"/>
      <point x="269" y="131" type="curve" smooth="yes"/>
      <point x="274" y="241"/>
      <point x="326" y="328"/>
      <point x="391" y="328" type="curve" smooth="yes"/>
      <point x="446" y="328"/>
      <point x="475" y="263"/>
      <point x="471" y="187" type="curve" smooth="yes"/>
      <point x="465" y="76"/>
      <point x="414" y="-10"/>
    </contour>
    <contour>
      <point x="349" y="6" type="curve" smooth="yes"/>
      <point x="400" y="6"/>
      <point x="434" y="94"/>
      <point x="439" y="188" type="curve" smooth="yes"/>
      <point x="443" y="268"/>
      <point x="426" y="312"/>
      <point x="391" y="312" type="curve" smooth="yes"/>
      <point x="340" y="312"/>
      <point x="306" y="224"/>
      <point x="301" y="130" type="curve" smooth="yes"/>
      <point x="297" y="48"/>
      <point x="315" y="6"/>
    </contour>
    <contour>
      <point x="596" y="-10" type="curve" smooth="yes"/>
      <point x="542" y="-10"/>
      <point x="510" y="55"/>
      <point x="515" y="131" type="curve" smooth="yes"/>
      <point x="520" y="241"/>
      <point x="573" y="328"/>
      <point x="637" y="328" type="curve" smooth="yes"/>
      <point x="692" y="328"/>
      <point x="722" y="263"/>
      <point x="718" y="187" type="curve" smooth="yes"/>
      <point x="712" y="76"/>
      <point x="660" y="-10"/>
    </contour>
    <contour>
      <point x="595" y="6" type="curve" smooth="yes"/>
      <point x="645" y="6"/>
      <point x="679" y="94"/>
      <point x="684" y="188" type="curve" smooth="yes"/>
      <point x="688" y="268"/>
      <point x="672" y="312"/>
      <point x="638" y="312" type="curve" smooth="yes"/>
      <point x="586" y="312"/>
      <point x="552" y="224"/>
      <point x="547" y="130" type="curve" smooth="yes"/>
      <point x="543" y="48"/>
      <point x="561" y="6"/>
    </contour>
    <component base="fraction" xOffset="108"/>
  </outline>
</glyph>
<glyph name="guilsinglleft" format="2">
  <advance width="186"/>
  <unicode hex="2039"/>
  <outline>
    <contour>
      <point x="65" y="249" type="line"/>
      <point x="197" y="455" type="line"/>
      <point x="183" y="455" type="line"/>
      <point x="44" y="281" type="line"/>
      <point x="41" y="265" type="line"/>
      <point x="113" y="75" type="line"/>
      <point x="125" y="75" type="line"/>
      <point x="74" y="289" type="line"/>
    </contour>
  </outline>
</glyph>
<glyph name="lira" format="2">
  <advance width="384"/>
  <unicode hex="20A4"/>
  <outline>
    <contour>
      <point x="-11" y="-2" type="line"/>
      <point x="113" y="11"/>
      <point x="157" y="117"/>
      <point x="162" y="233" type="curve" smooth="yes"/>
      <point x="168" y="332"/>
      <point x="157" y="418"/>
      <point x="161" y="503" type="curve" smooth="yes"/>
      <point x="169" y="643"/>
      <point x="215" y="703"/>
      <point x="291" y="703" type="curve" smooth="yes"/>
      <point x="340" y="703"/>
      <point x="373" y="677"/>
      <point x="384" y="649" type="curve"/>
      <point x="384" y="654"/>
      <point x="378" y="667"/>
      <point x="371" y="678" type="curve"/>
      <point x="355" y="594" type="line"/>
      <point x="394" y="594" type="line"/>
      <point x="408" y="665" type="line"/>
      <point x="392" y="688"/>
      <point x="353" y="720"/>
      <point x="291" y="720" type="curve" smooth="yes"/>
      <point x="186" y="720"/>
      <point x="130" y="625"/>
      <point x="123" y="506" type="curve" smooth="yes"/>
      <point x="118" y="405"/>
      <point x="139" y="310"/>
      <point x="134" y="225" type="curve" smooth="yes"/>
      <point x="129" y="128"/>
      <point x="102" y="29"/>
      <point x="-8" y="15" type="curve"/>
    </contour>
    <contour>
      <point x="254" y="-10" type="curve" smooth="yes"/>
      <point x="304" y="-10"/>
      <point x="328" y="41"/>
      <point x="358" y="142" type="curve"/>
      <point x="348" y="150" type="line"/>
      <point x="320" y="73"/>
      <point x="301" y="37"/>
      <point x="258" y="37" type="curve" smooth="yes"/>
      <point x="224" y="37"/>
      <point x="184" y="49"/>
      <point x="127" y="121" type="curve"/>
      <point x="119" y="108" type="line"/>
      <point x="174" y="34"/>
      <point x="210" y="-10"/>
    </contour>
    <contour>
      <point x="36" y="272" type="line"/>
      <point x="33" y="254" type="line"/>
      <point x="278" y="254" type="line"/>
      <point x="282" y="272" type="line"/>
    </contour>
    <contour>
      <point x="61" y="418" type="line"/>
      <point x="58" y="400" type="line"/>
      <point x="304" y="400" type="line"/>
      <point x="307" y="418" type="line"/>
    </contour>
  </outline>
</glyph>
<glyph name="naira" format="2">
  <advance width="384"/>
  <unicode hex="20A6"/>
  <outline>
    <contour>
      <point x="-26" y="0" type="line"/>
      <point x="99" y="0" type="line"/>
      <point x="102" y="15" type="line"/>
      <point x="95" y="15" type="line" smooth="yes"/>
      <point x="72" y="15"/>
      <point x="45" y="25"/>
      <point x="47" y="33" type="curve" smooth="yes"/>
      <point x="165" y="705" type="line"/>
      <point x="154" y="701" type="line"/>
      <point x="260" y="0" type="line"/>
      <point x="285" y="0" type="line"/>
      <point x="400" y="659" type="line" smooth="yes"/>
      <point x="404" y="684"/>
      <point x="428" y="695"/>
      <point x="453" y="695" type="curve" smooth="yes"/>
      <point x="458" y="695" type="line"/>
      <point x="461" y="710" type="line"/>
      <point x="336" y="710" type="line"/>
      <point x="333" y="695" type="line"/>
      <point x="338" y="695" type="line" smooth="yes"/>
      <point x="363" y="695"/>
      <point x="388" y="685"/>
      <point x="388" y="676" type="curve"/>
      <point x="276" y="35" type="line"/>
      <point x="286" y="49" type="line"/>
      <point x="188" y="710" type="line"/>
      <point x="99" y="710" type="line"/>
      <point x="96" y="695" type="line"/>
      <point x="103" y="695" type="line" smooth="yes"/>
      <point x="125" y="695"/>
      <point x="146" y="688"/>
      <point x="141" y="666" type="curve" smooth="yes"/>
      <point x="34" y="51" type="line" smooth="yes"/>
      <point x="29" y="26"/>
      <point x="8" y="15"/>
      <point x="-18" y="15" type="curve" smooth="yes"/>
      <point x="-23" y="15" type="line"/>
    </contour>
    <contour>
      <point x="108" y="435" type="line"/>
      <point x="50" y="435" type="line"/>
      <point x="48" y="418" type="line"/>
      <point x="107" y="418" type="line"/>
    </contour>
    <contour>
      <point x="212" y="418" type="line"/>
      <point x="348" y="418" type="line"/>
      <point x="354" y="418" type="line"/>
      <point x="408" y="418" type="line"/>
      <point x="410" y="435" type="line"/>
      <point x="210" y="435" type="line"/>
    </contour>
    <contour>
      <point x="323" y="259" type="line"/>
      <point x="380" y="259" type="line"/>
      <point x="383" y="276" type="line"/>
      <point x="326" y="276" type="line"/>
    </contour>
    <contour>
      <point x="231" y="276" type="line"/>
      <point x="84" y="276" type="line"/>
      <point x="80" y="276" type="line"/>
      <point x="23" y="276" type="line"/>
      <point x="20" y="259" type="line"/>
      <point x="235" y="259" type="line"/>
    </contour>
  </outline>
</glyph>
<glyph name="peseta" format="2">
  <advance width="384"/>
  <unicode hex="20A7"/>
  <outline>
    <contour>
      <point x="-33" y="0" type="line"/>
      <point x="93" y="0" type="line"/>
      <point x="95" y="15" type="line"/>
      <point x="85" y="15" type="line" smooth="yes"/>
      <point x="68" y="15"/>
      <point x="46" y="18"/>
      <point x="47" y="25" type="curve" smooth="yes"/>
      <point x="91" y="283" type="line"/>
      <point x="109" y="283" type="line" smooth="yes"/>
      <point x="215" y="283"/>
      <point x="281" y="400"/>
      <point x="288" y="530" type="curve" smooth="yes"/>
      <point x="294" y="638"/>
      <point x="259" y="710"/>
      <point x="169" y="710" type="curve" smooth="yes"/>
      <point x="91" y="710" type="line"/>
      <point x="88" y="695" type="line"/>
      <point x="95" y="695" type="line" smooth="yes"/>
      <point x="115" y="695"/>
      <point x="129" y="690"/>
      <point x="126" y="671" type="curve" smooth="yes"/>
      <point x="15" y="39" type="line" smooth="yes"/>
      <point x="12" y="20"/>
      <point x="-4" y="15"/>
      <point x="-24" y="15" type="curve" smooth="yes"/>
      <point x="-31" y="15" type="line"/>
    </contour>
    <contour>
      <point x="169" y="693" type="line" smooth="yes"/>
      <point x="235" y="693"/>
      <point x="261" y="636"/>
      <point x="254" y="537" type="curve" smooth="yes"/>
      <point x="252" y="517"/>
      <point x="250" y="497"/>
      <point x="245" y="475" type="curve" smooth="yes"/>
      <point x="228" y="372"/>
      <point x="181" y="300"/>
      <point x="110" y="300" type="curve" smooth="yes"/>
      <point x="94" y="300" type="line"/>
      <point x="164" y="693" type="line"/>
    </contour>
    <contour>
      <point x="327" y="510" type="line"/>
      <point x="265" y="161" type="line" smooth="yes"/>
      <point x="260" y="129"/>
      <point x="258" y="103"/>
      <point x="257" y="82" type="curve"/>
      <point x="253" y="12"/>
      <point x="282" y="-10"/>
      <point x="318" y="-10" type="curve" smooth="yes"/>
      <point x="331" y="-10"/>
      <point x="344" y="-5"/>
      <point x="352" y="-1" type="curve"/>
      <point x="354" y="16" type="line"/>
      <point x="346" y="11"/>
      <point x="337" y="7"/>
      <point x="323" y="7" type="curve" smooth="yes"/>
      <point x="301" y="7"/>
      <point x="285" y="20"/>
      <point x="289" y="80" type="curve" smooth="yes"/>
      <point x="290" y="98"/>
      <point x="293" y="122"/>
      <point x="298" y="155" type="curve" smooth="yes"/>
      <point x="382" y="631" type="line"/>
      <point x="361" y="631" type="line"/>
      <point x="350" y="574" type="line" smooth="yes"/>
      <point x="339" y="524"/>
      <point x="314" y="515"/>
      <point x="280" y="515" type="curve" smooth="yes"/>
      <point x="269" y="515" type="line"/>
      <point x="266" y="501" type="line"/>
      <point x="430" y="501" type="line"/>
      <point x="434" y="518" type="line"/>
      <point x="358" y="518" type="line"/>
    </contour>
  </outline>
</glyph>
<glyph name="peso" format="2">
  <advance width="384"/>
  <unicode hex="20B1"/>
  <outline>
    <contour>
      <point x="64" y="497" type="line"/>
      <point x="60" y="479" type="line"/>
      <point x="134" y="479" type="line"/>
      <point x="143" y="479" type="line"/>
      <point x="353" y="479" type="line"/>
      <point x="359" y="479" type="line"/>
      <point x="428" y="479" type="line"/>
      <point x="431" y="497" type="line"/>
      <point x="364" y="497" type="line"/>
      <point x="355" y="497" type="line"/>
      <point x="146" y="497" type="line"/>
      <point x="138" y="497" type="line"/>
    </contour>
    <contour>
      <point x="-18" y="0" type="line"/>
      <point x="143" y="0" type="line"/>
      <point x="147" y="15" type="line"/>
      <point x="130" y="15" type="line" smooth="yes"/>
      <point x="108" y="15"/>
      <point x="79" y="19"/>
      <point x="80" y="27" type="curve" smooth="yes"/>
      <point x="122" y="269" type="line"/>
      <point x="172" y="269" type="line" smooth="yes"/>
      <point x="307" y="269"/>
      <point x="374" y="386"/>
      <point x="381" y="514" type="curve" smooth="yes"/>
      <point x="387" y="633"/>
      <point x="339" y="710"/>
      <point x="229" y="710" type="curve" smooth="yes"/>
      <point x="107" y="710" type="line"/>
      <point x="104" y="695" type="line"/>
      <point x="110" y="695" type="line" smooth="yes"/>
      <point x="138" y="695"/>
      <point x="161" y="689"/>
      <point x="157" y="668" type="curve" smooth="yes"/>
      <point x="47" y="42" type="line" smooth="yes"/>
      <point x="43" y="21"/>
      <point x="20" y="15"/>
      <point x="-8" y="15" type="curve" smooth="yes"/>
      <point x="-15" y="15" type="line"/>
    </contour>
    <contour>
      <point x="228" y="692" type="line" smooth="yes"/>
      <point x="317" y="692"/>
      <point x="350" y="625"/>
      <point x="344" y="514" type="curve" smooth="yes"/>
      <point x="343" y="496"/>
      <point x="341" y="479"/>
      <point x="338" y="461" type="curve" smooth="yes"/>
      <point x="320" y="363"/>
      <point x="268" y="286"/>
      <point x="172" y="286" type="curve" smooth="yes"/>
      <point x="125" y="286" type="line"/>
      <point x="197" y="692" type="line"/>
    </contour>
  </outline>
</glyph>
<glyph name="guarani" format="2">
  <advance width="383"/>
  <unicode hex="20B2"/>
  <outline>
    <contour>
      <point x="283" y="790" type="line"/>
      <point x="266" y="691" type="line"/>
      <point x="265" y="686" type="line"/>
      <point x="150" y="30" type="line"/>
      <point x="148" y="24" type="line"/>
      <point x="123" y="-120" type="line"/>
      <point x="138" y="-120" type="line"/>
      <point x="163" y="22" type="line"/>
      <point x="165" y="28" type="line"/>
      <point x="279" y="686" type="line"/>
      <point x="280" y="692" type="line"/>
      <point x="297" y="790" type="line"/>
    </contour>
    <contour>
      <point x="180" y="10" type="curve" smooth="yes"/>
      <point x="236" y="10"/>
      <point x="284" y="52"/>
      <point x="311" y="89" type="curve"/>
      <point x="350" y="309" type="line" smooth="yes"/>
      <point x="353" y="333"/>
      <point x="368" y="338"/>
      <point x="387" y="338" type="curve" smooth="yes"/>
      <point x="390" y="338" type="line"/>
      <point x="393" y="353" type="line"/>
      <point x="282" y="353" type="line"/>
      <point x="279" y="338" type="line"/>
      <point x="284" y="338" type="line" smooth="yes"/>
      <point x="306" y="338"/>
      <point x="322" y="333"/>
      <point x="317" y="309" type="curve" smooth="yes"/>
      <point x="279" y="83" type="line"/>
      <point x="264" y="64"/>
      <point x="228" y="27"/>
      <point x="182" y="27" type="curve" smooth="yes"/>
      <point x="109" y="27"/>
      <point x="66" y="102"/>
      <point x="75" y="280" type="curve" smooth="yes"/>
      <point x="77" y="311"/>
      <point x="80" y="355"/>
      <point x="88" y="394" type="curve" smooth="yes"/>
      <point x="120" y="581"/>
      <point x="186" y="683"/>
      <point x="277" y="683" type="curve" smooth="yes"/>
      <point x="337" y="683"/>
      <point x="372" y="650"/>
      <point x="381" y="615" type="curve"/>
      <point x="390" y="620"/>
      <point x="384" y="649"/>
      <point x="367" y="653" type="curve"/>
      <point x="349" y="561" type="line"/>
      <point x="388" y="561" type="line"/>
      <point x="402" y="639" type="line"/>
      <point x="388" y="661"/>
      <point x="347" y="700"/>
      <point x="279" y="700" type="curve" smooth="yes"/>
      <point x="145" y="700"/>
      <point x="50" y="516"/>
      <point x="37" y="281" type="curve" smooth="yes"/>
      <point x="28" y="104"/>
      <point x="91" y="10"/>
    </contour>
  </outline>
</glyph>
<glyph name="cedi" format="2">
  <advance width="384"/>
  <unicode hex="20B5"/>
  <outline>
    <contour>
      <point x="290" y="683" type="curve" smooth="yes"/>
      <point x="347" y="683"/>
      <point x="391" y="651"/>
      <point x="399" y="620" type="curve"/>
      <point x="405" y="631"/>
      <point x="403" y="644"/>
      <point x="390" y="652" type="curve"/>
      <point x="372" y="556" type="line"/>
      <point x="411" y="556" type="line"/>
      <point x="424" y="630" type="line"/>
      <point x="404" y="665"/>
      <point x="360" y="700"/>
      <point x="291" y="700" type="curve" smooth="yes"/>
      <point x="149" y="700"/>
      <point x="53" y="508"/>
      <point x="42" y="300" type="curve" smooth="yes"/>
      <point x="33" y="117"/>
      <point x="100" y="10"/>
      <point x="192" y="10" type="curve" smooth="yes"/>
      <point x="270" y="10"/>
      <point x="330" y="85"/>
      <point x="368" y="215" type="curve"/>
      <point x="358" y="225" type="line"/>
      <point x="323" y="108"/>
      <point x="268" y="27"/>
      <point x="194" y="27" type="curve" smooth="yes"/>
      <point x="114" y="27"/>
      <point x="70" y="120"/>
      <point x="79" y="298" type="curve" smooth="yes"/>
      <point x="83" y="359"/>
      <point x="92" y="416"/>
      <point x="105" y="466" type="curve" smooth="yes"/>
      <point x="143" y="601"/>
      <point x="205" y="683"/>
    </contour>
    <contour>
      <point x="297" y="790" type="line"/>
      <point x="280" y="691" type="line"/>
      <point x="279" y="686" type="line"/>
      <point x="164" y="30" type="line"/>
      <point x="162" y="24" type="line"/>
      <point x="137" y="-120" type="line"/>
      <point x="152" y="-120" type="line"/>
      <point x="177" y="22" type="line"/>
      <point x="179" y="28" type="line"/>
      <point x="294" y="686" type="line"/>
      <point x="294" y="692" type="line"/>
      <point x="311" y="790" type="line"/>
    </contour>
  </outline>
</glyph>
<glyph name="servicemark" format="2">
  <advance width="522"/>
  <unicode hex="2120"/>
  <outline>
    <contour>
      <point x="269" y="395" type="line"/>
      <point x="330" y="395" type="line"/>
      <point x="333" y="408" type="line"/>
      <point x="330" y="408" type="line" smooth="yes"/>
      <point x="324" y="408"/>
      <point x="312" y="411"/>
      <point x="312" y="413" type="curve" smooth="yes"/>
      <point x="362" y="702" type="line"/>
      <point x="359" y="701" type="line"/>
      <point x="382" y="394" type="line"/>
      <point x="395" y="394" type="line"/>
      <point x="525" y="702" type="line"/>
      <point x="522" y="702" type="line"/>
      <point x="473" y="413" type="line" smooth="yes"/>
      <point x="473" y="411"/>
      <point x="462" y="408"/>
      <point x="454" y="408" type="curve" smooth="yes"/>
      <point x="451" y="408" type="line"/>
      <point x="448" y="395" type="line"/>
      <point x="525" y="395" type="line"/>
      <point x="528" y="408" type="line"/>
      <point x="522" y="408" type="line" smooth="yes"/>
      <point x="508" y="408"/>
      <point x="501" y="412"/>
      <point x="503" y="425" type="curve" smooth="yes"/>
      <point x="547" y="681" type="line" smooth="yes"/>
      <point x="549" y="695"/>
      <point x="558" y="697"/>
      <point x="573" y="697" type="curve" smooth="yes"/>
      <point x="578" y="697" type="line"/>
      <point x="580" y="710" type="line"/>
      <point x="517" y="710" type="line"/>
      <point x="400" y="435" type="line"/>
      <point x="404" y="435" type="line"/>
      <point x="388" y="710" type="line"/>
      <point x="325" y="710" type="line"/>
      <point x="323" y="697" type="line"/>
      <point x="327" y="697" type="line" smooth="yes"/>
      <point x="341" y="697"/>
      <point x="350" y="696"/>
      <point x="347" y="684" type="curve" smooth="yes"/>
      <point x="302" y="422" type="line" smooth="yes"/>
      <point x="300" y="411"/>
      <point x="290" y="408"/>
      <point x="277" y="408" type="curve"/>
      <point x="273" y="408" type="line"/>
    </contour>
    <contour>
      <point x="115" y="637" type="curve" smooth="yes"/>
      <point x="112" y="588"/>
      <point x="137" y="564"/>
      <point x="165" y="544" type="curve" smooth="yes"/>
      <point x="204" y="517"/>
      <point x="221" y="500"/>
      <point x="219" y="465" type="curve" smooth="yes"/>
      <point x="218" y="426"/>
      <point x="196" y="400"/>
      <point x="164" y="400" type="curve" smooth="yes"/>
      <point x="133" y="400"/>
      <point x="105" y="425"/>
      <point x="95" y="486" type="curve"/>
      <point x="85" y="486" type="line"/>
      <point x="69" y="391" type="line"/>
      <point x="79" y="391" type="line"/>
      <point x="95" y="468" type="line"/>
      <point x="88" y="463" type="line"/>
      <point x="100" y="409"/>
      <point x="132" y="386"/>
      <point x="163" y="386" type="curve" smooth="yes"/>
      <point x="208" y="386"/>
      <point x="239" y="420"/>
      <point x="242" y="479" type="curve" smooth="yes"/>
      <point x="244" y="526"/>
      <point x="224" y="547"/>
      <point x="183" y="576" type="curve" smooth="yes"/>
      <point x="158" y="594"/>
      <point x="134" y="608"/>
      <point x="136" y="648" type="curve" smooth="yes"/>
      <point x="138" y="684"/>
      <point x="155" y="706"/>
      <point x="186" y="706" type="curve" smooth="yes"/>
      <point x="217" y="706"/>
      <point x="235" y="678"/>
      <point x="241" y="637" type="curve"/>
      <point x="251" y="637" type="line"/>
      <point x="266" y="716" type="line"/>
      <point x="256" y="716" type="line"/>
      <point x="242" y="657" type="line"/>
      <point x="247" y="657" type="line"/>
      <point x="241" y="692"/>
      <point x="220" y="720"/>
      <point x="186" y="720" type="curve" smooth="yes"/>
      <point x="145" y="720"/>
      <point x="118" y="688"/>
    </contour>
  </outline>
</glyph>
<glyph name="estimated" format="2">
  <advance width="575"/>
  <unicode hex="212E"/>
  <outline>
    <contour>
      <point x="134" y="107" type="line"/>
      <point x="168" y="45"/>
      <point x="224" y="8"/>
      <point x="291" y="8" type="curve" smooth="yes"/>
      <point x="399" y="8"/>
      <point x="483" y="96"/>
      <point x="530" y="236" type="curve"/>
      <point x="546" y="236" type="line"/>
      <point x="504" y="98"/>
      <point x="409" y="-10"/>
      <point x="290" y="-10" type="curve" smooth="yes"/>
      <point x="147" y="-10"/>
      <point x="45" y="150"/>
      <point x="56" y="355" type="curve" smooth="yes"/>
      <point x="67" y="560"/>
      <point x="187" y="720"/>
      <point x="330" y="720" type="curve" smooth="yes"/>
      <point x="472" y="720"/>
      <point x="574" y="560"/>
      <point x="563" y="355" type="curve"/>
      <point x="117" y="355" type="line"/>
      <point x="119" y="373" type="line"/>
      <point x="474" y="373" type="line"/>
      <point x="486" y="604" type="line"/>
      <point x="452" y="667"/>
      <point x="395" y="702"/>
      <point x="329" y="702" type="curve" smooth="yes"/>
      <point x="262" y="702"/>
      <point x="199" y="665"/>
      <point x="161" y="604" type="curve"/>
    </contour>
  </outline>
</glyph>
<glyph name="product" format="2">
  <advance width="480"/>
  <unicode hex="220F"/>
  <outline>
    <contour>
      <point x="278" y="693" type="line"/>
      <point x="258" y="693"/>
      <point x="239" y="693"/>
      <point x="218" y="693" type="curve"/>
      <point x="63" y="-198" type="line"/>
      <point x="61" y="-205"/>
      <point x="90" y="-208"/>
      <point x="113" y="-208" type="curve" smooth="yes"/>
      <point x="120" y="-208" type="line"/>
      <point x="117" y="-223" type="line"/>
      <point x="-36" y="-223" type="line"/>
      <point x="-34" y="-208" type="line"/>
      <point x="-26" y="-208" type="line" smooth="yes"/>
      <point x="3" y="-208"/>
      <point x="27" y="-202"/>
      <point x="31" y="-180" type="curve" smooth="yes"/>
      <point x="178" y="667" type="line" smooth="yes"/>
      <point x="183" y="689"/>
      <point x="163" y="695"/>
      <point x="131" y="695" type="curve" smooth="yes"/>
      <point x="124" y="695" type="line"/>
      <point x="127" y="710" type="line"/>
      <point x="533" y="710" type="line"/>
      <point x="530" y="695" type="line"/>
      <point x="523" y="695" type="line" smooth="yes"/>
      <point x="496" y="695"/>
      <point x="471" y="690"/>
      <point x="466" y="667" type="curve" smooth="yes"/>
      <point x="319" y="-180" type="line" smooth="yes"/>
      <point x="314" y="-202"/>
      <point x="336" y="-208"/>
      <point x="366" y="-208" type="curve" smooth="yes"/>
      <point x="372" y="-208" type="line"/>
      <point x="370" y="-223" type="line"/>
      <point x="216" y="-223" type="line"/>
      <point x="220" y="-208" type="line"/>
      <point x="225" y="-208" type="line" smooth="yes"/>
      <point x="249" y="-208"/>
      <point x="279" y="-205"/>
      <point x="281" y="-198" type="curve" smooth="yes"/>
      <point x="436" y="693" type="line"/>
      <point x="416" y="693"/>
      <point x="397" y="693"/>
      <point x="376" y="693" type="curve"/>
    </contour>
  </outline>
</glyph>
<glyph name="radical" format="2">
  <advance width="401"/>
  <unicode hex="221A"/>
  <outline>
    <contour>
      <point x="61" y="341" type="line"/>
      <point x="143" y="341" type="line"/>
      <point x="120" y="347" type="line"/>
      <point x="150" y="0" type="line"/>
      <point x="169" y="0" type="line"/>
      <point x="181" y="39" type="line"/>
      <point x="155" y="360" type="line"/>
      <point x="65" y="360" type="line"/>
    </contour>
    <contour>
      <point x="441" y="710" type="line"/>
      <point x="158" y="0" type="line"/>
      <point x="175" y="0" type="line"/>
      <point x="459" y="710" type="line"/>
    </contour>
  </outline>
</glyph>
<glyph name="approxequal" format="2">
  <advance width="384"/>
  <unicode hex="2248"/>
  <outline>
    <contour>
      <point x="255" y="160" type="curve" smooth="yes"/>
      <point x="211" y="160"/>
      <point x="191" y="251"/>
      <point x="134" y="251" type="curve" smooth="yes"/>
      <point x="90" y="251"/>
      <point x="64" y="196"/>
      <point x="54" y="142" type="curve"/>
      <point x="65" y="137" type="line"/>
      <point x="74" y="179"/>
      <point x="92" y="223"/>
      <point x="129" y="223" type="curve" smooth="yes"/>
      <point x="175" y="223"/>
      <point x="198" y="132"/>
      <point x="250" y="132" type="curve" smooth="yes"/>
      <point x="293" y="132"/>
      <point x="313" y="189"/>
      <point x="329" y="243" type="curve"/>
      <point x="318" y="248" type="line"/>
      <point x="305" y="211"/>
      <point x="290" y="160"/>
    </contour>
    <contour>
      <point x="288" y="358" type="curve" smooth="yes"/>
      <point x="243" y="358"/>
      <point x="222" y="449"/>
      <point x="166" y="449" type="curve" smooth="yes"/>
      <point x="122" y="449"/>
      <point x="98" y="394"/>
      <point x="86" y="341" type="curve"/>
      <point x="97" y="336" type="line"/>
      <point x="107" y="377"/>
      <point x="124" y="421"/>
      <point x="161" y="421" type="curve" smooth="yes"/>
      <point x="206" y="421"/>
      <point x="229" y="330"/>
      <point x="281" y="330" type="curve" smooth="yes"/>
      <point x="324" y="330"/>
      <point x="345" y="387"/>
      <point x="360" y="441" type="curve"/>
      <point x="350" y="447" type="line"/>
      <point x="338" y="410"/>
      <point x="323" y="358"/>
    </contour>
  </outline>
</glyph>
<glyph name="lozenge" format="2">
  <advance width="437"/>
  <unicode hex="25CA"/>
  <outline>
    <contour>
      <point x="189" y="9" type="line"/>
      <point x="70" y="363" type="line"/>
      <point x="67" y="347" type="line"/>
      <point x="309" y="700" type="line"/>
      <point x="297" y="701" type="line"/>
      <point x="416" y="348" type="line"/>
      <point x="419" y="365" type="line"/>
      <point x="177" y="10" type="line"/>
    </contour>
    <contour>
      <point x="173" y="0" type="line"/>
      <point x="189" y="0" type="line"/>
      <point x="428" y="347" type="line"/>
      <point x="430" y="363" type="line"/>
      <point x="314" y="710" type="line"/>
      <point x="298" y="710" type="line"/>
      <point x="59" y="363" type="line"/>
      <point x="56" y="347" type="line"/>
    </contour>
  </outline>
</glyph>
<glyph name="uni27F7" format="2">
  <advance width="890"/>
  <unicode hex="27F7"/>
  <outline>
    <contour>
      <point x="811" y="344" type="line"/>
      <point x="665" y="171" type="line"/>
      <point x="670" y="160" type="line"/>
      <point x="870" y="349" type="line"/>
      <point x="871" y="358" type="line"/>
      <point x="692" y="547" type="line"/>
      <point x="685" y="536" type="line"/>
      <point x="812" y="362" type="line"/>
      <point x="125" y="362" type="line"/>
      <point x="270" y="536" type="line"/>
      <point x="265" y="547" type="line"/>
      <point x="67" y="358" type="line"/>
      <point x="66" y="349" type="line"/>
      <point x="243" y="160" type="line"/>
      <point x="250" y="171" type="line"/>
      <point x="124" y="344" type="line"/>
    </contour>
  </outline>
</glyph>
<glyph name="three.den" format="2">
  <advance width="211"/>
  <unicode hex="E405"/>
  <outline>
    <contour>
      <point x="116" y="332" type="curve" smooth="yes"/>
      <point x="89" y="332"/>
      <point x="69" y="318"/>
      <point x="56" y="301" type="curve"/>
      <point x="60" y="315"/>
      <point x="67" y="325"/>
      <point x="78" y="327" type="curve"/>
      <point x="67" y="263" type="line"/>
      <point x="34" y="263" type="line"/>
      <point x="44" y="316" type="line"/>
      <point x="59" y="331"/>
      <point x="86" y="347"/>
      <point x="116" y="347" type="curve" smooth="yes"/>
      <point x="165" y="347"/>
      <point x="194" y="318"/>
      <point x="191" y="268" type="curve" smooth="yes"/>
      <point x="188" y="214"/>
      <point x="145" y="181"/>
      <point x="101" y="179" type="curve"/>
      <point x="92" y="187" type="line"/>
      <point x="154" y="179"/>
      <point x="176" y="144"/>
      <point x="174" y="95" type="curve" smooth="yes"/>
      <point x="171" y="38"/>
      <point x="133" y="-6"/>
      <point x="76" y="-6" type="curve" smooth="yes"/>
      <point x="24" y="-6"/>
      <point x="-1" y="34"/>
      <point x="-9" y="86" type="curve"/>
      <point x="1" y="93" type="line"/>
      <point x="10" y="44"/>
      <point x="28" y="9"/>
      <point x="77" y="9" type="curve" smooth="yes"/>
      <point x="113" y="9"/>
      <point x="137" y="46"/>
      <point x="140" y="96" type="curve" smooth="yes"/>
      <point x="142" y="138"/>
      <point x="126" y="174"/>
      <point x="80" y="174" type="curve" smooth="yes"/>
      <point x="59" y="174" type="line"/>
      <point x="63" y="189" type="line"/>
      <point x="86" y="189" type="line" smooth="yes"/>
      <point x="136" y="189"/>
      <point x="154" y="223"/>
      <point x="156" y="265" type="curve" smooth="yes"/>
      <point x="159" y="307"/>
      <point x="144" y="332"/>
    </contour>
  </outline>
</glyph>
<glyph name="f_f" format="2">
  <advance width="387"/>
  <unicode hex="FB00"/>
  <outline>
    <contour>
      <point x="69" y="518" type="line"/>
      <point x="66" y="501" type="line"/>
      <point x="239" y="501" type="line"/>
      <point x="243" y="518" type="line"/>
    </contour>
    <contour>
      <point x="260" y="726" type="curve" smooth="yes"/>
      <point x="281" y="726"/>
      <point x="298" y="716"/>
      <point x="305" y="709" type="curve"/>
      <point x="307" y="730" type="line"/>
      <point x="297" y="740"/>
      <point x="280" y="744"/>
      <point x="260" y="744" type="curve" smooth="yes"/>
      <point x="198" y="744"/>
      <point x="151" y="689"/>
      <point x="135" y="594" type="curve" smooth="yes"/>
      <point x="13" y="-223" type="line"/>
      <point x="42" y="-223" type="line"/>
      <point x="170" y="595" type="line" smooth="yes"/>
      <point x="184" y="683"/>
      <point x="210" y="726"/>
    </contour>
    <contour>
      <point x="227" y="518" type="line"/>
      <point x="224" y="501" type="line"/>
      <point x="424" y="501" type="line"/>
      <point x="427" y="518" type="line"/>
    </contour>
    <contour>
      <point x="446" y="741" type="curve" smooth="yes"/>
      <point x="469" y="741"/>
      <point x="486" y="728"/>
      <point x="494" y="719" type="curve"/>
      <point x="499" y="741" type="line"/>
      <point x="484" y="752"/>
      <point x="468" y="758"/>
      <point x="447" y="758" type="curve" smooth="yes"/>
      <point x="386" y="758"/>
      <point x="338" y="704"/>
      <point x="322" y="611" type="curve" smooth="yes"/>
      <point x="202" y="-193" type="line"/>
      <point x="231" y="-193" type="line"/>
      <point x="357" y="608" type="line" smooth="yes"/>
      <point x="371" y="697"/>
      <point x="400" y="741"/>
    </contour>
  </outline>
</glyph>
<glyph name="f_f_i" format="2">
  <advance width="537"/>
  <unicode hex="FB03"/>
  <outline>
    <contour>
      <point x="69" y="518" type="line"/>
      <point x="66" y="501" type="line"/>
      <point x="239" y="501" type="line"/>
      <point x="243" y="518" type="line"/>
    </contour>
    <contour>
      <point x="260" y="726" type="curve" smooth="yes"/>
      <point x="282" y="726"/>
      <point x="298" y="716"/>
      <point x="306" y="709" type="curve"/>
      <point x="308" y="730" type="line"/>
      <point x="297" y="740"/>
      <point x="280" y="744"/>
      <point x="260" y="744" type="curve" smooth="yes"/>
      <point x="198" y="744"/>
      <point x="151" y="689"/>
      <point x="135" y="594" type="curve" smooth="yes"/>
      <point x="13" y="-223" type="line"/>
      <point x="42" y="-223" type="line"/>
      <point x="170" y="595" type="line" smooth="yes"/>
      <point x="184" y="683"/>
      <point x="210" y="726"/>
    </contour>
    <contour>
      <point x="536" y="658" type="curve" smooth="yes"/>
      <point x="551" y="658"/>
      <point x="563" y="672"/>
      <point x="564" y="694" type="curve" smooth="yes"/>
      <point x="565" y="716"/>
      <point x="554" y="729"/>
      <point x="539" y="729" type="curve" smooth="yes"/>
      <point x="524" y="729"/>
      <point x="513" y="716"/>
      <point x="512" y="694" type="curve" smooth="yes"/>
      <point x="511" y="672"/>
      <point x="521" y="658"/>
    </contour>
    <contour>
      <point x="227" y="518" type="line"/>
      <point x="224" y="501" type="line"/>
      <point x="442" y="501" type="line" smooth="yes"/>
      <point x="478" y="501"/>
      <point x="489" y="491"/>
      <point x="486" y="471" type="curve"/>
      <point x="437" y="193" type="line" smooth="yes"/>
      <point x="428" y="135"/>
      <point x="419" y="91"/>
      <point x="418" y="62" type="curve" smooth="yes"/>
      <point x="415" y="13"/>
      <point x="437" y="-7"/>
      <point x="467" y="-7" type="curve" smooth="yes"/>
      <point x="485" y="-7"/>
      <point x="504" y="2"/>
      <point x="512" y="11" type="curve"/>
      <point x="516" y="27" type="line"/>
      <point x="508" y="23"/>
      <point x="492" y="13"/>
      <point x="476" y="13" type="curve" smooth="yes"/>
      <point x="457" y="13"/>
      <point x="449" y="25"/>
      <point x="451" y="57" type="curve" smooth="yes"/>
      <point x="453" y="83"/>
      <point x="461" y="130"/>
      <point x="468" y="174" type="curve" smooth="yes"/>
      <point x="529" y="518" type="line"/>
    </contour>
    <contour>
      <point x="439" y="741" type="curve" smooth="yes"/>
      <point x="458" y="741"/>
      <point x="472" y="731"/>
      <point x="480" y="726" type="curve"/>
      <point x="483" y="747" type="line"/>
      <point x="472" y="754"/>
      <point x="456" y="758"/>
      <point x="438" y="758" type="curve" smooth="yes"/>
      <point x="384" y="758"/>
      <point x="340" y="716"/>
      <point x="326" y="627" type="curve" smooth="yes"/>
      <point x="202" y="-193" type="line"/>
      <point x="231" y="-193" type="line"/>
      <point x="360" y="624" type="line" smooth="yes"/>
      <point x="374" y="707"/>
      <point x="397" y="741"/>
    </contour>
  </outline>
</glyph>
<glyph name="f_f_l" format="2">
  <advance width="536"/>
  <unicode hex="FB04"/>
  <outline>
    <contour>
      <point x="177" y="518" type="line"/>
      <point x="174" y="501" type="line"/>
      <point x="377" y="501" type="line"/>
      <point x="381" y="518" type="line"/>
    </contour>
    <contour>
      <point x="114" y="518" type="line"/>
      <point x="110" y="501" type="line"/>
      <point x="278" y="501" type="line"/>
      <point x="281" y="518" type="line"/>
    </contour>
    <contour>
      <point x="260" y="726" type="curve" smooth="yes"/>
      <point x="282" y="726"/>
      <point x="298" y="716"/>
      <point x="306" y="709" type="curve"/>
      <point x="308" y="730" type="line"/>
      <point x="297" y="740"/>
      <point x="280" y="744"/>
      <point x="260" y="744" type="curve" smooth="yes"/>
      <point x="198" y="744"/>
      <point x="151" y="689"/>
      <point x="135" y="594" type="curve" smooth="yes"/>
      <point x="13" y="-223" type="line"/>
      <point x="42" y="-223" type="line"/>
      <point x="170" y="595" type="line" smooth="yes"/>
      <point x="184" y="683"/>
      <point x="210" y="726"/>
    </contour>
    <contour>
      <point x="468" y="174" type="curve"/>
      <point x="570" y="750" type="line"/>
      <point x="497" y="750" type="line"/>
      <point x="531" y="730" type="line"/>
      <point x="437" y="193" type="line" smooth="yes"/>
      <point x="428" y="135"/>
      <point x="419" y="91"/>
      <point x="418" y="62" type="curve" smooth="yes"/>
      <point x="415" y="13"/>
      <point x="437" y="-7"/>
      <point x="467" y="-7" type="curve" smooth="yes"/>
      <point x="485" y="-7"/>
      <point x="504" y="2"/>
      <point x="512" y="11" type="curve"/>
      <point x="516" y="27" type="line"/>
      <point x="508" y="23"/>
      <point x="492" y="13"/>
      <point x="476" y="13" type="curve" smooth="yes"/>
      <point x="457" y="13"/>
      <point x="449" y="25"/>
      <point x="451" y="57" type="curve" smooth="yes"/>
      <point x="453" y="83"/>
      <point x="461" y="130"/>
    </contour>
    <contour>
      <point x="462" y="741" type="curve" smooth="yes"/>
      <point x="499" y="741"/>
      <point x="527" y="724"/>
      <point x="544" y="707" type="curve"/>
      <point x="556" y="728" type="line"/>
      <point x="541" y="744"/>
      <point x="506" y="758"/>
      <point x="464" y="758" type="curve" smooth="yes"/>
      <point x="387" y="758"/>
      <point x="338" y="703"/>
      <point x="322" y="606" type="curve" smooth="yes"/>
      <point x="202" y="-193" type="line"/>
      <point x="231" y="-193" type="line"/>
      <point x="356" y="603" type="line" smooth="yes"/>
      <point x="371" y="694"/>
      <point x="400" y="741"/>
    </contour>
  </outline>
</glyph>
<glyph name="OE.alt" format="2">
  <advance width="661"/>
  <outline>
    <contour>
      <point x="396" y="373" type="line"/>
      <point x="392" y="355" type="line"/>
      <point x="529" y="355" type="line" smooth="yes"/>
      <point x="551" y="355"/>
      <point x="552" y="337"/>
      <point x="545" y="292" type="curve" smooth="yes"/>
      <point x="544" y="284" type="line"/>
      <point x="557" y="284" type="line"/>
      <point x="586" y="446" type="line"/>
      <point x="573" y="446" type="line"/>
      <point x="571" y="440" type="line" smooth="yes"/>
      <point x="565" y="401"/>
      <point x="554" y="373"/>
      <point x="534" y="373" type="curve" smooth="yes"/>
    </contour>
    <contour>
      <point x="615" y="178" type="line"/>
      <point x="602" y="178" type="line"/>
      <point x="572" y="55" type="line" smooth="yes"/>
      <point x="563" y="24"/>
      <point x="541" y="18"/>
      <point x="480" y="18" type="curve" smooth="yes"/>
      <point x="347" y="18" type="line"/>
      <point x="465" y="692" type="line"/>
      <point x="590" y="692" type="line" smooth="yes"/>
      <point x="643" y="692"/>
      <point x="660" y="686"/>
      <point x="657" y="658" type="curve"/>
      <point x="646" y="557" type="line"/>
      <point x="659" y="557" type="line"/>
      <point x="687" y="710" type="line"/>
      <point x="368" y="710" type="line" smooth="yes"/>
      <point x="159" y="710"/>
      <point x="52" y="518"/>
      <point x="41" y="311" type="curve" smooth="yes"/>
      <point x="31" y="127"/>
      <point x="111" y="0"/>
      <point x="279" y="0" type="curve" smooth="yes"/>
      <point x="584" y="0" type="line"/>
    </contour>
    <contour>
      <point x="282" y="18" type="line" smooth="yes"/>
      <point x="129" y="18"/>
      <point x="70" y="137"/>
      <point x="79" y="310" type="curve" smooth="yes"/>
      <point x="89" y="502"/>
      <point x="174" y="692"/>
      <point x="365" y="692" type="curve" smooth="yes"/>
      <point x="430" y="692" type="line"/>
      <point x="312" y="18" type="line"/>
    </contour>
  </outline>
</glyph>
<glyph name="acute.uc" format="2">
  <advance width="343"/>
  <anchor x="162" y="727" name="_top"/>
  <outline>
    <contour>
      <point x="232" y="870" type="curve" smooth="yes"/>
      <point x="166" y="772" type="line"/>
      <point x="163" y="766" type="line"/>
      <point x="173" y="766" type="line"/>
      <point x="250" y="835" type="line" smooth="yes"/>
      <point x="273" y="854"/>
      <point x="286" y="864"/>
      <point x="287" y="882" type="curve" smooth="yes"/>
      <point x="288" y="894"/>
      <point x="282" y="907"/>
      <point x="270" y="907" type="curve" smooth="yes"/>
      <point x="257" y="907"/>
      <point x="247" y="892"/>
    </contour>
  </outline>
</glyph>
<glyph name="at.uc" format="2">
  <advance width="593"/>
  <outline>
    <contour>
      <point x="270" y="121" type="curve" smooth="yes"/>
      <point x="312" y="121"/>
      <point x="345" y="161"/>
      <point x="383" y="245" type="curve"/>
      <point x="380" y="267" type="line"/>
      <point x="342" y="180"/>
      <point x="310" y="137"/>
      <point x="274" y="137" type="curve" smooth="yes"/>
      <point x="236" y="137"/>
      <point x="219" y="183"/>
      <point x="223" y="268" type="curve" smooth="yes"/>
      <point x="231" y="400"/>
      <point x="288" y="530"/>
      <point x="360" y="530" type="curve" smooth="yes"/>
      <point x="391" y="530"/>
      <point x="422" y="507"/>
      <point x="424" y="410" type="curve"/>
      <point x="432" y="443" type="line"/>
      <point x="428" y="514"/>
      <point x="395" y="546"/>
      <point x="357" y="546" type="curve" smooth="yes"/>
      <point x="269" y="546"/>
      <point x="197" y="407"/>
      <point x="190" y="270" type="curve" smooth="yes"/>
      <point x="184" y="175"/>
      <point x="219" y="121"/>
    </contour>
    <contour>
      <point x="291" y="-72" type="curve" smooth="yes"/>
      <point x="356" y="-72"/>
      <point x="407" y="-48"/>
      <point x="446" y="-20" type="curve"/>
      <point x="444" y="-4" type="line"/>
      <point x="405" y="-32"/>
      <point x="359" y="-56"/>
      <point x="292" y="-56" type="curve" smooth="yes"/>
      <point x="171" y="-56"/>
      <point x="58" y="50"/>
      <point x="71" y="289" type="curve" smooth="yes"/>
      <point x="84" y="530"/>
      <point x="217" y="717"/>
      <point x="371" y="717" type="curve" smooth="yes"/>
      <point x="503" y="717"/>
      <point x="577" y="588"/>
      <point x="568" y="412" type="curve" smooth="yes"/>
      <point x="559" y="266"/>
      <point x="498" y="137"/>
      <point x="428" y="137" type="curve" smooth="yes"/>
      <point x="397" y="137"/>
      <point x="383" y="160"/>
      <point x="385" y="195" type="curve" smooth="yes"/>
      <point x="387" y="217"/>
      <point x="390" y="230"/>
      <point x="396" y="252" type="curve" smooth="yes"/>
      <point x="471" y="540" type="line"/>
      <point x="452" y="540" type="line"/>
      <point x="421" y="465" type="line"/>
      <point x="420" y="476" type="line"/>
      <point x="351" y="201" type="line"/>
      <point x="356" y="208" type="line"/>
      <point x="354" y="163"/>
      <point x="374" y="121"/>
      <point x="425" y="121" type="curve" smooth="yes"/>
      <point x="505" y="121"/>
      <point x="584" y="252"/>
      <point x="593" y="412" type="curve" smooth="yes"/>
      <point x="603" y="599"/>
      <point x="516" y="733"/>
      <point x="372" y="733" type="curve" smooth="yes"/>
      <point x="206" y="733"/>
      <point x="60" y="539"/>
      <point x="47" y="289" type="curve" smooth="yes"/>
      <point x="33" y="34"/>
      <point x="158" y="-72"/>
    </contour>
  </outline>
</glyph>
<glyph name="backslash.uc" format="2">
  <advance width="283"/>
  <outline>
    <contour>
      <point x="91" y="741" type="line"/>
      <point x="204" y="-36" type="line"/>
      <point x="189" y="-36" type="line"/>
      <point x="76" y="741" type="line"/>
    </contour>
  </outline>
</glyph>
<glyph name="blackcircle" format="2">
  <advance width="405"/>
  <outline>
    <contour>
      <point x="207" y="80" type="curve" smooth="yes"/>
      <point x="294" y="80"/>
      <point x="366" y="177"/>
      <point x="374" y="304" type="curve" smooth="yes"/>
      <point x="380" y="431"/>
      <point x="317" y="528"/>
      <point x="230" y="528" type="curve" smooth="yes"/>
      <point x="145" y="528"/>
      <point x="71" y="431"/>
      <point x="65" y="304" type="curve" smooth="yes"/>
      <point x="57" y="177"/>
      <point x="122" y="80"/>
    </contour>
  </outline>
</glyph>
<glyph name="braceleft.uc" format="2">
  <advance width="208"/>
  <outline>
    <contour>
      <point x="23" y="60" type="curve" smooth="yes"/>
      <point x="19" y="-17"/>
      <point x="62" y="-61"/>
      <point x="150" y="-62" type="curve"/>
      <point x="150" y="-62" type="line"/>
      <point x="154" y="-47" type="line"/>
      <point x="154" y="-47" type="line"/>
      <point x="73" y="-44"/>
      <point x="49" y="-5"/>
      <point x="53" y="62" type="curve" smooth="yes"/>
      <point x="56" y="146"/>
      <point x="162" y="271"/>
      <point x="163" y="297" type="curve" smooth="yes"/>
      <point x="164" y="315"/>
      <point x="154" y="321"/>
      <point x="81" y="359" type="curve"/>
      <point x="82" y="361" type="line"/>
      <point x="170" y="390"/>
      <point x="180" y="391"/>
      <point x="181" y="414" type="curve" smooth="yes"/>
      <point x="182" y="443"/>
      <point x="141" y="554"/>
      <point x="145" y="626" type="curve" smooth="yes"/>
      <point x="150" y="712"/>
      <point x="197" y="747"/>
      <point x="278" y="745" type="curve"/>
      <point x="278" y="745" type="line"/>
      <point x="278" y="760" type="line"/>
      <point x="278" y="760" type="line"/>
      <point x="195" y="763"/>
      <point x="120" y="730"/>
      <point x="115" y="623" type="curve" smooth="yes"/>
      <point x="111" y="559"/>
      <point x="141" y="489"/>
      <point x="164" y="397" type="curve"/>
      <point x="168" y="410" type="line"/>
      <point x="57" y="368" type="line"/>
      <point x="54" y="355" type="line"/>
      <point x="148" y="298" type="line"/>
      <point x="151" y="308" type="line"/>
      <point x="88" y="209"/>
      <point x="28" y="135"/>
    </contour>
  </outline>
</glyph>
<glyph name="breve_grave.uc" format="2">
  <advance width="350"/>
  <anchor x="223" y="744" name="_top"/>
  <outline>
    <contour>
      <point x="229" y="1018" type="curve" smooth="yes"/>
      <point x="270" y="922" type="line"/>
      <point x="270" y="916" type="line"/>
      <point x="262" y="916" type="line"/>
      <point x="205" y="987" type="line" smooth="yes"/>
      <point x="187" y="1006"/>
      <point x="178" y="1017"/>
      <point x="179" y="1032" type="curve" smooth="yes"/>
      <point x="179" y="1045"/>
      <point x="187" y="1057"/>
      <point x="199" y="1057" type="curve" smooth="yes"/>
      <point x="211" y="1057"/>
      <point x="217" y="1045"/>
    </contour>
    <component base="breve.uc"/>
  </outline>
</glyph>
<glyph name="breve_hook.uc" format="2">
  <advance width="343"/>
  <anchor x="201" y="724" name="_top"/>
  <outline>
    <contour>
      <point x="176" y="985" type="line"/>
      <point x="185" y="1029"/>
      <point x="214" y="1058"/>
      <point x="254" y="1058" type="curve" smooth="yes"/>
      <point x="296" y="1058"/>
      <point x="316" y="1034"/>
      <point x="314" y="996" type="curve" smooth="yes"/>
      <point x="312" y="954"/>
      <point x="277" y="924"/>
      <point x="225" y="918" type="curve"/>
      <point x="239" y="930" type="line"/>
      <point x="232" y="887" type="line"/>
      <point x="213" y="887" type="line"/>
      <point x="222" y="934" type="line"/>
      <point x="259" y="943"/>
      <point x="281" y="963"/>
      <point x="282" y="995" type="curve" smooth="yes"/>
      <point x="283" y="1023"/>
      <point x="273" y="1040"/>
      <point x="251" y="1040" type="curve" smooth="yes"/>
      <point x="224" y="1040"/>
      <point x="211" y="1017"/>
      <point x="204" y="985" type="curve"/>
    </contour>
    <contour>
      <point x="212" y="761" type="curve" smooth="yes"/>
      <point x="165" y="761"/>
      <point x="143" y="803"/>
      <point x="147" y="868" type="curve" smooth="yes"/>
      <point x="147" y="873"/>
      <point x="148" y="879"/>
      <point x="149" y="885" type="curve"/>
      <point x="162" y="885" type="line"/>
      <point x="160" y="832"/>
      <point x="171" y="801"/>
      <point x="217" y="801" type="curve" smooth="yes"/>
      <point x="252" y="801"/>
      <point x="279" y="826"/>
      <point x="292" y="885" type="curve"/>
      <point x="305" y="885" type="line"/>
      <point x="292" y="796"/>
      <point x="256" y="761"/>
    </contour>
  </outline>
</glyph>
<glyph name="cedi.proportional" format="2">
  <advance width="454"/>
  <outline>
    <contour>
      <point x="236" y="10" type="curve" smooth="yes"/>
      <point x="322" y="10"/>
      <point x="389" y="85"/>
      <point x="428" y="216" type="curve"/>
      <point x="418" y="227" type="line"/>
      <point x="382" y="105"/>
      <point x="320" y="27"/>
      <point x="238" y="27" type="curve" smooth="yes"/>
      <point x="147" y="27"/>
      <point x="81" y="127"/>
      <point x="91" y="310" type="curve" smooth="yes"/>
      <point x="102" y="515"/>
      <point x="188" y="683"/>
      <point x="315" y="683" type="curve" smooth="yes"/>
      <point x="393" y="683"/>
      <point x="439" y="633"/>
      <point x="455" y="594" type="curve"/>
      <point x="462" y="604"/>
      <point x="459" y="607"/>
      <point x="439" y="627" type="curve"/>
      <point x="422" y="526" type="line"/>
      <point x="463" y="526" type="line"/>
      <point x="476" y="607" type="line"/>
      <point x="457" y="646"/>
      <point x="403" y="700"/>
      <point x="316" y="700" type="curve" smooth="yes"/>
      <point x="180" y="700"/>
      <point x="65" y="546"/>
      <point x="53" y="312" type="curve" smooth="yes"/>
      <point x="43" y="126"/>
      <point x="126" y="10"/>
    </contour>
    <contour>
      <point x="336" y="790" type="line"/>
      <point x="319" y="691" type="line"/>
      <point x="318" y="686" type="line"/>
      <point x="201" y="25" type="line"/>
      <point x="201" y="19" type="line"/>
      <point x="176" y="-120" type="line"/>
      <point x="191" y="-120" type="line"/>
      <point x="215" y="17" type="line"/>
      <point x="216" y="23" type="line"/>
      <point x="333" y="687" type="line"/>
      <point x="334" y="692" type="line"/>
      <point x="350" y="790" type="line"/>
    </contour>
  </outline>
</glyph>
<glyph name="circumflex.uc" format="2">
  <advance width="343"/>
  <anchor x="203" y="694" name="_top"/>
  <outline>
    <contour>
      <point x="260" y="886" type="line"/>
      <point x="310" y="755" type="line"/>
      <point x="309" y="750" type="line"/>
      <point x="300" y="750" type="line"/>
      <point x="224" y="867" type="line"/>
      <point x="249" y="867" type="line"/>
      <point x="130" y="750" type="line"/>
      <point x="119" y="750" type="line"/>
      <point x="120" y="755" type="line"/>
      <point x="218" y="886" type="line"/>
    </contour>
  </outline>
</glyph>
<glyph name="circumflex_acute" format="2">
  <advance width="350"/>
  <anchor x="170" y="558" name="_top"/>
  <outline>
    <contour>
      <point x="353" y="827" type="curve" smooth="yes"/>
      <point x="295" y="701" type="line"/>
      <point x="295" y="694" type="line"/>
      <point x="304" y="694" type="line"/>
      <point x="378" y="795" type="line" smooth="yes"/>
      <point x="392" y="813"/>
      <point x="405" y="829"/>
      <point x="406" y="848" type="curve" smooth="yes"/>
      <point x="407" y="863"/>
      <point x="399" y="873"/>
      <point x="389" y="873" type="curve" smooth="yes"/>
      <point x="374" y="873"/>
      <point x="366" y="856"/>
    </contour>
    <component base="circumflex" xOffset="-4"/>
  </outline>
</glyph>
<glyph name="circumflex_acute.uc" format="2">
  <advance width="349"/>
  <anchor x="192" y="749" name="_top"/>
  <outline>
    <contour>
      <point x="353" y="929" type="curve" smooth="yes"/>
      <point x="310" y="844" type="line"/>
      <point x="308" y="837" type="line"/>
      <point x="316" y="837" type="line"/>
      <point x="375" y="902" type="line" smooth="yes"/>
      <point x="393" y="922"/>
      <point x="406" y="936"/>
      <point x="407" y="954" type="curve" smooth="yes"/>
      <point x="408" y="967"/>
      <point x="401" y="977"/>
      <point x="390" y="977" type="curve" smooth="yes"/>
      <point x="378" y="977"/>
      <point x="369" y="963"/>
    </contour>
    <component base="circumflex.uc" xOffset="-1"/>
  </outline>
</glyph>
<glyph name="circumflex_grave" format="2">
  <advance width="350"/>
  <anchor x="190" y="564" name="_top"/>
  <outline>
    <contour>
      <point x="313" y="828" type="curve" smooth="yes"/>
      <point x="357" y="701" type="line"/>
      <point x="357" y="694" type="line"/>
      <point x="349" y="694" type="line"/>
      <point x="283" y="796" type="line" smooth="yes"/>
      <point x="271" y="813"/>
      <point x="262" y="829"/>
      <point x="263" y="847" type="curve" smooth="yes"/>
      <point x="264" y="862"/>
      <point x="272" y="873"/>
      <point x="282" y="873" type="curve" smooth="yes"/>
      <point x="297" y="873"/>
      <point x="303" y="856"/>
    </contour>
    <component base="circumflex" xOffset="3"/>
  </outline>
</glyph>
<glyph name="circumflex_tilde" format="2">
  <advance width="343"/>
  <anchor x="188" y="551" name="_top"/>
  <outline>
    <contour>
      <point x="247" y="749" type="line"/>
      <point x="292" y="608" type="line"/>
      <point x="291" y="603" type="line"/>
      <point x="280" y="603" type="line"/>
      <point x="213" y="731" type="line"/>
      <point x="240" y="731" type="line"/>
      <point x="129" y="603" type="line"/>
      <point x="116" y="603" type="line"/>
      <point x="117" y="608" type="line"/>
      <point x="211" y="749" type="line"/>
    </contour>
    <contour>
      <point x="214" y="900" type="curve" smooth="yes"/>
      <point x="187" y="900"/>
      <point x="167" y="871"/>
      <point x="150" y="813" type="curve"/>
      <point x="161" y="806" type="line"/>
      <point x="172" y="844"/>
      <point x="186" y="862"/>
      <point x="204" y="862" type="curve" smooth="yes"/>
      <point x="229" y="862"/>
      <point x="245" y="810"/>
      <point x="279" y="810" type="curve" smooth="yes"/>
      <point x="305" y="810"/>
      <point x="324" y="838"/>
      <point x="343" y="895" type="curve"/>
      <point x="332" y="902" type="line"/>
      <point x="318" y="864"/>
      <point x="307" y="848"/>
      <point x="289" y="848" type="curve" smooth="yes"/>
      <point x="264" y="848"/>
      <point x="246" y="900"/>
    </contour>
  </outline>
</glyph>
<glyph name="circumflex_tilde.uc" format="2">
  <advance width="343"/>
  <anchor x="198" y="694" name="_top"/>
  <outline>
    <contour>
      <point x="277" y="906" type="curve" smooth="yes"/>
      <point x="303" y="906"/>
      <point x="322" y="934"/>
      <point x="341" y="987" type="curve"/>
      <point x="329" y="995" type="line"/>
      <point x="315" y="959"/>
      <point x="305" y="944"/>
      <point x="287" y="944" type="curve" smooth="yes"/>
      <point x="261" y="944"/>
      <point x="244" y="994"/>
      <point x="211" y="994" type="curve" smooth="yes"/>
      <point x="185" y="994"/>
      <point x="166" y="966"/>
      <point x="150" y="911" type="curve"/>
      <point x="160" y="904" type="line"/>
      <point x="171" y="939"/>
      <point x="184" y="957"/>
      <point x="201" y="957" type="curve" smooth="yes"/>
      <point x="227" y="957"/>
      <point x="243" y="906"/>
    </contour>
    <contour>
      <point x="255" y="880" type="line"/>
      <point x="305" y="754" type="line"/>
      <point x="304" y="749" type="line"/>
      <point x="293" y="749" type="line"/>
      <point x="218" y="861" type="line"/>
      <point x="244" y="861" type="line"/>
      <point x="127" y="749" type="line"/>
      <point x="114" y="749" type="line"/>
      <point x="115" y="754" type="line"/>
      <point x="212" y="880" type="line"/>
    </contour>
  </outline>
</glyph>
<glyph name="colonmonetary.proportional" format="2">
  <advance width="467"/>
  <outline>
    <contour>
      <point x="240" y="10" type="curve" smooth="yes"/>
      <point x="329" y="10"/>
      <point x="401" y="86"/>
      <point x="441" y="220" type="curve"/>
      <point x="430" y="230" type="line"/>
      <point x="395" y="109"/>
      <point x="328" y="27"/>
      <point x="242" y="27" type="curve" smooth="yes"/>
      <point x="141" y="27"/>
      <point x="80" y="146"/>
      <point x="90" y="314" type="curve" smooth="yes"/>
      <point x="101" y="526"/>
      <point x="184" y="683"/>
      <point x="327" y="683" type="curve" smooth="yes"/>
      <point x="402" y="683"/>
      <point x="458" y="642"/>
      <point x="467" y="605" type="curve"/>
      <point x="472" y="616"/>
      <point x="471" y="630"/>
      <point x="457" y="638" type="curve"/>
      <point x="438" y="537" type="line"/>
      <point x="475" y="537" type="line"/>
      <point x="491" y="616" type="line"/>
      <point x="466" y="659"/>
      <point x="415" y="700"/>
      <point x="328" y="700" type="curve" smooth="yes"/>
      <point x="166" y="700"/>
      <point x="64" y="527"/>
      <point x="53" y="318" type="curve" smooth="yes"/>
      <point x="44" y="140"/>
      <point x="127" y="10"/>
    </contour>
    <contour>
      <point x="314" y="790" type="line"/>
      <point x="289" y="691" type="line"/>
      <point x="286" y="685" type="line"/>
      <point x="132" y="84" type="line"/>
      <point x="129" y="74" type="line"/>
      <point x="79" y="-120" type="line"/>
      <point x="94" y="-120" type="line"/>
      <point x="141" y="62" type="line"/>
      <point x="143" y="71" type="line"/>
      <point x="303" y="687" type="line"/>
      <point x="304" y="694" type="line"/>
      <point x="329" y="790" type="line"/>
    </contour>
    <contour>
      <point x="413" y="790" type="line"/>
      <point x="387" y="687" type="line"/>
      <point x="385" y="680" type="line"/>
      <point x="216" y="24" type="line"/>
      <point x="214" y="17" type="line"/>
      <point x="179" y="-120" type="line"/>
      <point x="194" y="-120" type="line"/>
      <point x="230" y="17" type="line"/>
      <point x="231" y="21" type="line"/>
      <point x="399" y="674" type="line"/>
      <point x="401" y="682" type="line"/>
      <point x="428" y="790" type="line"/>
    </contour>
  </outline>
</glyph>
<glyph name="commaaccent" format="2">
  <advance width="343"/>
  <anchor x="165" y="33" name="_bottom"/>
  <outline>
    <contour>
      <point x="133" y="-246" type="line"/>
      <point x="174" y="-217"/>
      <point x="202" y="-171"/>
      <point x="204" y="-129" type="curve" smooth="yes"/>
      <point x="205" y="-101"/>
      <point x="193" y="-87"/>
      <point x="177" y="-87" type="curve" smooth="yes"/>
      <point x="162" y="-87"/>
      <point x="150" y="-102"/>
      <point x="149" y="-121" type="curve" smooth="yes"/>
      <point x="148" y="-143"/>
      <point x="160" y="-155"/>
      <point x="172" y="-155" type="curve" smooth="yes"/>
      <point x="183" y="-155"/>
      <point x="192" y="-147"/>
      <point x="193" y="-132" type="curve"/>
      <point x="191" y="-132"/>
      <point x="189" y="-135"/>
      <point x="189" y="-140" type="curve"/>
      <point x="179" y="-176"/>
      <point x="162" y="-201"/>
      <point x="118" y="-228" type="curve"/>
    </contour>
  </outline>
</glyph>
<glyph name="dblgrave.uc" format="2">
  <advance width="343"/>
  <anchor x="255" y="734" name="_top"/>
  <outline>
    <contour>
      <point x="263" y="858" type="line" smooth="yes"/>
      <point x="257" y="895"/>
      <point x="250" y="911"/>
      <point x="236" y="911" type="curve" smooth="yes"/>
      <point x="226" y="911"/>
      <point x="217" y="902"/>
      <point x="216" y="885" type="curve" smooth="yes"/>
      <point x="215" y="868"/>
      <point x="224" y="852"/>
      <point x="235" y="834" type="curve" smooth="yes"/>
      <point x="271" y="758" type="line"/>
      <point x="280" y="758" type="line"/>
      <point x="280" y="764" type="line"/>
    </contour>
    <contour>
      <point x="181" y="858" type="line" smooth="yes"/>
      <point x="175" y="895"/>
      <point x="169" y="911"/>
      <point x="155" y="911" type="curve" smooth="yes"/>
      <point x="145" y="911"/>
      <point x="135" y="902"/>
      <point x="134" y="885" type="curve" smooth="yes"/>
      <point x="133" y="868"/>
      <point x="142" y="852"/>
      <point x="153" y="834" type="curve" smooth="yes"/>
      <point x="189" y="758" type="line"/>
      <point x="198" y="758" type="line"/>
      <point x="198" y="764" type="line"/>
    </contour>
  </outline>
</glyph>
<glyph name="dollar.alt" format="2">
  <advance width="384"/>
  <outline>
    <contour>
      <point x="178" y="9" type="curve" smooth="yes"/>
      <point x="269" y="9"/>
      <point x="339" y="77"/>
      <point x="345" y="198" type="curve" smooth="yes"/>
      <point x="351" y="300"/>
      <point x="293" y="344"/>
      <point x="241" y="379" type="curve" smooth="yes"/>
      <point x="179" y="420"/>
      <point x="130" y="456"/>
      <point x="135" y="539" type="curve" smooth="yes"/>
      <point x="140" y="624"/>
      <point x="188" y="680"/>
      <point x="270" y="680" type="curve" smooth="yes"/>
      <point x="313" y="680"/>
      <point x="355" y="664"/>
      <point x="375" y="637" type="curve"/>
      <point x="374" y="646"/>
      <point x="372" y="653"/>
      <point x="367" y="657" type="curve"/>
      <point x="349" y="561" type="line"/>
      <point x="387" y="561" type="line"/>
      <point x="402" y="642" type="line"/>
      <point x="380" y="670"/>
      <point x="336" y="698"/>
      <point x="274" y="698" type="curve" smooth="yes"/>
      <point x="177" y="698"/>
      <point x="112" y="633"/>
      <point x="107" y="530" type="curve" smooth="yes"/>
      <point x="102" y="429"/>
      <point x="154" y="389"/>
      <point x="206" y="353" type="curve" smooth="yes"/>
      <point x="264" y="311"/>
      <point x="319" y="281"/>
      <point x="314" y="190" type="curve" smooth="yes"/>
      <point x="309" y="86"/>
      <point x="256" y="27"/>
      <point x="182" y="27" type="curve" smooth="yes"/>
      <point x="121" y="27"/>
      <point x="68" y="50"/>
      <point x="44" y="96" type="curve"/>
      <point x="42" y="87"/>
      <point x="43" y="78"/>
      <point x="46" y="68" type="curve"/>
      <point x="66" y="179" type="line"/>
      <point x="25" y="179" type="line"/>
      <point x="12" y="98" type="line"/>
      <point x="35" y="57"/>
      <point x="92" y="9"/>
    </contour>
    <contour>
      <point x="129" y="-120" type="line"/>
      <point x="144" y="-120" type="line"/>
      <point x="168" y="19" type="line"/>
      <point x="153" y="19" type="line"/>
    </contour>
    <contour>
      <point x="286" y="688" type="line"/>
      <point x="302" y="787" type="line"/>
      <point x="288" y="787" type="line"/>
      <point x="271" y="689" type="line"/>
    </contour>
  </outline>
</glyph>
<glyph name="dollar.proportional" format="2">
  <advance width="411"/>
  <outline>
    <contour>
      <point x="195" y="9" type="curve" smooth="yes"/>
      <point x="289" y="9"/>
      <point x="362" y="77"/>
      <point x="368" y="198" type="curve" smooth="yes"/>
      <point x="374" y="300"/>
      <point x="312" y="341"/>
      <point x="258" y="378" type="curve" smooth="yes"/>
      <point x="194" y="422"/>
      <point x="141" y="451"/>
      <point x="146" y="539" type="curve" smooth="yes"/>
      <point x="151" y="624"/>
      <point x="199" y="680"/>
      <point x="287" y="680" type="curve" smooth="yes"/>
      <point x="333" y="680"/>
      <point x="377" y="665"/>
      <point x="399" y="637" type="curve"/>
      <point x="398" y="646"/>
      <point x="397" y="652"/>
      <point x="390" y="657" type="curve"/>
      <point x="372" y="561" type="line"/>
      <point x="410" y="561" type="line"/>
      <point x="425" y="642" type="line"/>
      <point x="402" y="671"/>
      <point x="355" y="698"/>
      <point x="291" y="698" type="curve" smooth="yes"/>
      <point x="190" y="698"/>
      <point x="122" y="633"/>
      <point x="117" y="530" type="curve" smooth="yes"/>
      <point x="112" y="429"/>
      <point x="170" y="391"/>
      <point x="223" y="353" type="curve" smooth="yes"/>
      <point x="283" y="309"/>
      <point x="342" y="281"/>
      <point x="337" y="190" type="curve" smooth="yes"/>
      <point x="332" y="86"/>
      <point x="278" y="27"/>
      <point x="198" y="27" type="curve" smooth="yes"/>
      <point x="135" y="27"/>
      <point x="79" y="49"/>
      <point x="54" y="96" type="curve"/>
      <point x="51" y="87"/>
      <point x="52" y="77"/>
      <point x="57" y="68" type="curve"/>
      <point x="76" y="179" type="line"/>
      <point x="36" y="179" type="line"/>
      <point x="23" y="98" type="line"/>
      <point x="45" y="56"/>
      <point x="106" y="9"/>
    </contour>
    <contour>
      <point x="304" y="787" type="line"/>
      <point x="289" y="691" type="line"/>
      <point x="287" y="684" type="line"/>
      <point x="170" y="21" type="line"/>
      <point x="170" y="16" type="line"/>
      <point x="146" y="-120" type="line"/>
      <point x="160" y="-120" type="line"/>
      <point x="184" y="13" type="line"/>
      <point x="185" y="19" type="line"/>
      <point x="302" y="687" type="line"/>
      <point x="303" y="692" type="line"/>
      <point x="319" y="787" type="line"/>
    </contour>
  </outline>
</glyph>
<glyph name="eight.lintab" format="2">
  <advance width="384"/>
  <outline>
    <contour>
      <point x="181" y="8" type="curve" smooth="yes"/>
      <point x="107" y="8"/>
      <point x="65" y="82"/>
      <point x="70" y="188" type="curve" smooth="yes"/>
      <point x="71" y="200"/>
      <point x="72" y="212"/>
      <point x="74" y="223" type="curve" smooth="yes"/>
      <point x="89" y="309"/>
      <point x="139" y="367"/>
      <point x="207" y="367" type="curve" smooth="yes"/>
      <point x="286" y="367"/>
      <point x="322" y="295"/>
      <point x="316" y="199" type="curve" smooth="yes"/>
      <point x="316" y="184"/>
      <point x="314" y="169"/>
      <point x="311" y="153" type="curve" smooth="yes"/>
      <point x="296" y="72"/>
      <point x="250" y="8"/>
    </contour>
    <contour>
      <point x="237" y="385" type="curve" smooth="yes"/>
      <point x="182" y="385"/>
      <point x="145" y="440"/>
      <point x="151" y="534" type="curve" smooth="yes"/>
      <point x="152" y="548"/>
      <point x="153" y="560"/>
      <point x="156" y="572" type="curve" smooth="yes"/>
      <point x="170" y="651"/>
      <point x="211" y="702"/>
      <point x="267" y="702" type="curve" smooth="yes"/>
      <point x="323" y="702"/>
      <point x="359" y="642"/>
      <point x="354" y="551" type="curve" smooth="yes"/>
      <point x="353" y="536"/>
      <point x="351" y="521"/>
      <point x="348" y="508" type="curve" smooth="yes"/>
      <point x="333" y="430"/>
      <point x="291" y="385"/>
    </contour>
    <contour>
      <point x="180" y="-10" type="curve" smooth="yes"/>
      <point x="277" y="-10"/>
      <point x="349" y="81"/>
      <point x="354" y="197" type="curve" smooth="yes"/>
      <point x="359" y="280"/>
      <point x="321" y="352"/>
      <point x="255" y="375" type="curve"/>
      <point x="259" y="366" type="line"/>
      <point x="261" y="376" type="line"/>
      <point x="254" y="370" type="line"/>
      <point x="329" y="381"/>
      <point x="384" y="454"/>
      <point x="390" y="550" type="curve" smooth="yes"/>
      <point x="395" y="648"/>
      <point x="342" y="720"/>
      <point x="268" y="720" type="curve" smooth="yes"/>
      <point x="183" y="720"/>
      <point x="122" y="638"/>
      <point x="116" y="536" type="curve" smooth="yes"/>
      <point x="111" y="456"/>
      <point x="147" y="399"/>
      <point x="194" y="378" type="curve"/>
      <point x="190" y="386" type="line"/>
      <point x="188" y="376" type="line"/>
      <point x="195" y="383" type="line"/>
      <point x="103" y="376"/>
      <point x="38" y="291"/>
      <point x="32" y="188" type="curve" smooth="yes"/>
      <point x="26" y="74"/>
      <point x="90" y="-10"/>
    </contour>
  </outline>
</glyph>
<glyph name="eight.midprop" format="2">
  <advance width="398"/>
  <outline>
    <contour>
      <point x="191" y="8" type="curve" smooth="yes"/>
      <point x="110" y="8"/>
      <point x="68" y="79"/>
      <point x="73" y="186" type="curve" smooth="yes"/>
      <point x="74" y="200"/>
      <point x="75" y="213"/>
      <point x="77" y="225" type="curve" smooth="yes"/>
      <point x="93" y="311"/>
      <point x="148" y="367"/>
      <point x="217" y="367" type="curve" smooth="yes"/>
      <point x="298" y="367"/>
      <point x="339" y="300"/>
      <point x="333" y="199" type="curve" smooth="yes"/>
      <point x="333" y="183"/>
      <point x="331" y="169"/>
      <point x="328" y="154" type="curve" smooth="yes"/>
      <point x="312" y="66"/>
      <point x="263" y="8"/>
    </contour>
    <contour>
      <point x="247" y="385" type="curve" smooth="yes"/>
      <point x="193" y="385"/>
      <point x="148" y="441"/>
      <point x="154" y="537" type="curve" smooth="yes"/>
      <point x="155" y="551"/>
      <point x="157" y="566"/>
      <point x="158" y="578" type="curve" smooth="yes"/>
      <point x="174" y="653"/>
      <point x="216" y="702"/>
      <point x="276" y="702" type="curve" smooth="yes"/>
      <point x="340" y="702"/>
      <point x="376" y="642"/>
      <point x="371" y="548" type="curve" smooth="yes"/>
      <point x="370" y="536"/>
      <point x="368" y="523"/>
      <point x="366" y="512" type="curve" smooth="yes"/>
      <point x="352" y="433"/>
      <point x="305" y="385"/>
    </contour>
    <contour>
      <point x="190" y="-10" type="curve" smooth="yes"/>
      <point x="291" y="-10"/>
      <point x="366" y="81"/>
      <point x="371" y="197" type="curve" smooth="yes"/>
      <point x="376" y="277"/>
      <point x="336" y="355"/>
      <point x="264" y="378" type="curve"/>
      <point x="268" y="368" type="line"/>
      <point x="272" y="379" type="line"/>
      <point x="261" y="372" type="line"/>
      <point x="340" y="379"/>
      <point x="400" y="456"/>
      <point x="406" y="550" type="curve" smooth="yes"/>
      <point x="411" y="648"/>
      <point x="357" y="720"/>
      <point x="278" y="720" type="curve" smooth="yes"/>
      <point x="188" y="720"/>
      <point x="124" y="640"/>
      <point x="118" y="541" type="curve" smooth="yes"/>
      <point x="114" y="469"/>
      <point x="148" y="400"/>
      <point x="209" y="379" type="curve"/>
      <point x="204" y="387" type="line"/>
      <point x="202" y="378" type="line"/>
      <point x="210" y="384" type="line"/>
      <point x="110" y="380"/>
      <point x="41" y="288"/>
      <point x="35" y="187" type="curve" smooth="yes"/>
      <point x="29" y="70"/>
      <point x="95" y="-10"/>
    </contour>
  </outline>
</glyph>
<glyph name="eight.oldtab" format="2">
  <advance width="384"/>
  <outline>
    <contour>
      <point x="189" y="8" type="curve" smooth="yes"/>
      <point x="114" y="8"/>
      <point x="71" y="78"/>
      <point x="77" y="183" type="curve" smooth="yes"/>
      <point x="77" y="197"/>
      <point x="79" y="210"/>
      <point x="82" y="223" type="curve" smooth="yes"/>
      <point x="98" y="311"/>
      <point x="149" y="367"/>
      <point x="215" y="367" type="curve" smooth="yes"/>
      <point x="291" y="367"/>
      <point x="330" y="301"/>
      <point x="325" y="201" type="curve" smooth="yes"/>
      <point x="324" y="186"/>
      <point x="322" y="171"/>
      <point x="319" y="157" type="curve" smooth="yes"/>
      <point x="303" y="67"/>
      <point x="256" y="8"/>
    </contour>
    <contour>
      <point x="245" y="385" type="curve" smooth="yes"/>
      <point x="194" y="385"/>
      <point x="153" y="440"/>
      <point x="159" y="534" type="curve" smooth="yes"/>
      <point x="160" y="549"/>
      <point x="162" y="565"/>
      <point x="164" y="575" type="curve" smooth="yes"/>
      <point x="179" y="652"/>
      <point x="219" y="702"/>
      <point x="274" y="702" type="curve" smooth="yes"/>
      <point x="332" y="702"/>
      <point x="366" y="642"/>
      <point x="361" y="551" type="curve" smooth="yes"/>
      <point x="360" y="538"/>
      <point x="359" y="526"/>
      <point x="357" y="514" type="curve" smooth="yes"/>
      <point x="343" y="434"/>
      <point x="299" y="385"/>
    </contour>
    <contour>
      <point x="187" y="-10" type="curve" smooth="yes"/>
      <point x="284" y="-10"/>
      <point x="357" y="82"/>
      <point x="362" y="199" type="curve" smooth="yes"/>
      <point x="367" y="277"/>
      <point x="330" y="353"/>
      <point x="263" y="377" type="curve"/>
      <point x="265" y="371" type="line"/>
      <point x="268" y="378" type="line"/>
      <point x="263" y="373" type="line"/>
      <point x="336" y="380"/>
      <point x="391" y="456"/>
      <point x="397" y="550" type="curve" smooth="yes"/>
      <point x="402" y="648"/>
      <point x="349" y="720"/>
      <point x="276" y="720" type="curve" smooth="yes"/>
      <point x="191" y="720"/>
      <point x="129" y="638"/>
      <point x="123" y="536" type="curve" smooth="yes"/>
      <point x="119" y="466"/>
      <point x="150" y="401"/>
      <point x="206" y="380" type="curve"/>
      <point x="203" y="386" type="line"/>
      <point x="202" y="379" type="line"/>
      <point x="207" y="384" type="line"/>
      <point x="112" y="380"/>
      <point x="45" y="285"/>
      <point x="40" y="184" type="curve" smooth="yes"/>
      <point x="34" y="69"/>
      <point x="98" y="-10"/>
    </contour>
  </outline>
</glyph>
<glyph name="f_f.short" format="2">
  <advance width="376"/>
  <outline>
    <contour>
      <point x="222" y="518" type="line"/>
      <point x="219" y="501" type="line"/>
      <point x="411" y="501" type="line"/>
      <point x="415" y="518" type="line"/>
    </contour>
    <contour>
      <point x="227" y="-223" type="line"/>
      <point x="357" y="608" type="line" smooth="yes"/>
      <point x="371" y="700"/>
      <point x="396" y="741"/>
      <point x="438" y="741" type="curve" smooth="yes"/>
      <point x="457" y="741"/>
      <point x="472" y="733"/>
      <point x="481" y="727" type="curve"/>
      <point x="485" y="746" type="line"/>
      <point x="472" y="754"/>
      <point x="456" y="758"/>
      <point x="440" y="758" type="curve" smooth="yes"/>
      <point x="383" y="758"/>
      <point x="338" y="708"/>
      <point x="322" y="611" type="curve" smooth="yes"/>
      <point x="198" y="-223" type="line"/>
    </contour>
    <contour>
      <point x="69" y="518" type="line"/>
      <point x="66" y="501" type="line"/>
      <point x="260" y="501" type="line"/>
      <point x="264" y="518" type="line"/>
    </contour>
    <contour>
      <point x="42" y="-223" type="line"/>
      <point x="170" y="595" type="line" smooth="yes"/>
      <point x="184" y="683"/>
      <point x="210" y="726"/>
      <point x="260" y="726" type="curve" smooth="yes"/>
      <point x="282" y="726"/>
      <point x="297" y="716"/>
      <point x="305" y="709" type="curve"/>
      <point x="307" y="730" type="line"/>
      <point x="297" y="740"/>
      <point x="280" y="744"/>
      <point x="260" y="744" type="curve" smooth="yes"/>
      <point x="198" y="744"/>
      <point x="151" y="689"/>
      <point x="135" y="594" type="curve" smooth="yes"/>
      <point x="13" y="-223" type="line"/>
    </contour>
  </outline>
</glyph>
<glyph name="f_f_h.alt" format="2">
  <advance width="745"/>
  <outline>
    <contour>
      <point x="114" y="518" type="line"/>
      <point x="110" y="501" type="line"/>
      <point x="283" y="501" type="line"/>
      <point x="286" y="518" type="line"/>
    </contour>
    <contour>
      <point x="231" y="-193" type="line"/>
      <point x="356" y="603" type="line" smooth="yes"/>
      <point x="371" y="694"/>
      <point x="400" y="741"/>
      <point x="462" y="741" type="curve" smooth="yes"/>
      <point x="499" y="741"/>
      <point x="527" y="724"/>
      <point x="544" y="707" type="curve"/>
      <point x="556" y="728" type="line"/>
      <point x="541" y="744"/>
      <point x="506" y="758"/>
      <point x="464" y="758" type="curve" smooth="yes"/>
      <point x="387" y="758"/>
      <point x="338" y="703"/>
      <point x="322" y="606" type="curve" smooth="yes"/>
      <point x="202" y="-193" type="line"/>
    </contour>
    <contour>
      <point x="438" y="0" type="line"/>
      <point x="570" y="750" type="line"/>
      <point x="481" y="750" type="line"/>
      <point x="531" y="726" type="line"/>
      <point x="404" y="0" type="line"/>
    </contour>
    <contour>
      <point x="646" y="194" type="line" smooth="yes"/>
      <point x="637" y="136"/>
      <point x="629" y="91"/>
      <point x="628" y="62" type="curve" smooth="yes"/>
      <point x="625" y="13"/>
      <point x="646" y="-7"/>
      <point x="677" y="-7" type="curve" smooth="yes"/>
      <point x="694" y="-7"/>
      <point x="713" y="2"/>
      <point x="722" y="11" type="curve"/>
      <point x="726" y="27" type="line"/>
      <point x="718" y="23"/>
      <point x="701" y="13"/>
      <point x="686" y="13" type="curve" smooth="yes"/>
      <point x="666" y="13"/>
      <point x="658" y="25"/>
      <point x="660" y="57" type="curve" smooth="yes"/>
      <point x="662" y="83"/>
      <point x="671" y="131"/>
      <point x="677" y="175" type="curve" smooth="yes"/>
      <point x="708" y="326" type="line" smooth="yes"/>
      <point x="714" y="360"/>
      <point x="720" y="394"/>
      <point x="722" y="426" type="curve" smooth="yes"/>
      <point x="724" y="486"/>
      <point x="700" y="528"/>
      <point x="651" y="528" type="curve" smooth="yes"/>
      <point x="588" y="528"/>
      <point x="533" y="445"/>
      <point x="477" y="316" type="curve"/>
      <point x="483" y="302" type="line"/>
      <point x="540" y="425"/>
      <point x="589" y="507"/>
      <point x="643" y="507" type="curve" smooth="yes"/>
      <point x="676" y="507"/>
      <point x="690" y="482"/>
      <point x="688" y="429" type="curve" smooth="yes"/>
      <point x="686" y="395"/>
      <point x="680" y="364"/>
      <point x="674" y="329" type="curve" smooth="yes"/>
    </contour>
    <contour>
      <point x="177" y="518" type="line"/>
      <point x="174" y="501" type="line"/>
      <point x="380" y="501" type="line"/>
      <point x="383" y="518" type="line"/>
    </contour>
    <contour>
      <point x="364" y="691" type="line"/>
      <point x="348" y="717"/>
      <point x="316" y="743"/>
      <point x="268" y="743" type="curve" smooth="yes"/>
      <point x="208" y="743"/>
      <point x="153" y="703"/>
      <point x="136" y="598" type="curve" smooth="yes"/>
      <point x="13" y="-223" type="line"/>
      <point x="42" y="-223" type="line"/>
      <point x="170" y="595" type="line" smooth="yes"/>
      <point x="186" y="696"/>
      <point x="221" y="725"/>
      <point x="267" y="725" type="curve" smooth="yes"/>
      <point x="308" y="725"/>
      <point x="338" y="699"/>
      <point x="347" y="671" type="curve"/>
      <point x="346" y="685"/>
      <point x="343" y="697"/>
      <point x="338" y="705" type="curve"/>
      <point x="323" y="608" type="line"/>
      <point x="348" y="592" type="line"/>
    </contour>
  </outline>
</glyph>
<glyph name="f_f_i.alt" format="2">
  <advance width="537"/>
  <outline>
    <contour>
      <point x="69" y="518" type="line"/>
      <point x="66" y="501" type="line"/>
      <point x="239" y="501" type="line"/>
      <point x="243" y="518" type="line"/>
    </contour>
    <contour>
      <point x="468" y="741" type="curve" smooth="yes"/>
      <point x="498" y="741"/>
      <point x="525" y="726"/>
      <point x="535" y="712" type="curve"/>
      <point x="538" y="721"/>
      <point x="533" y="731"/>
      <point x="525" y="735" type="curve"/>
      <point x="512" y="660" type="line"/>
      <point x="546" y="660" type="line"/>
      <point x="558" y="725" type="line"/>
      <point x="545" y="739"/>
      <point x="513" y="758"/>
      <point x="470" y="758" type="curve" smooth="yes"/>
      <point x="395" y="758"/>
      <point x="339" y="713"/>
      <point x="320" y="598" type="curve" smooth="yes"/>
      <point x="202" y="-193" type="line"/>
      <point x="231" y="-193" type="line"/>
      <point x="355" y="598" type="line" smooth="yes"/>
      <point x="373" y="704"/>
      <point x="407" y="741"/>
    </contour>
    <contour>
      <point x="226" y="518" type="line"/>
      <point x="224" y="501" type="line"/>
      <point x="442" y="501" type="line" smooth="yes"/>
      <point x="478" y="501"/>
      <point x="489" y="491"/>
      <point x="486" y="471" type="curve"/>
      <point x="437" y="193" type="line" smooth="yes"/>
      <point x="428" y="135"/>
      <point x="419" y="91"/>
      <point x="418" y="62" type="curve" smooth="yes"/>
      <point x="415" y="13"/>
      <point x="437" y="-7"/>
      <point x="467" y="-7" type="curve" smooth="yes"/>
      <point x="485" y="-7"/>
      <point x="504" y="2"/>
      <point x="512" y="11" type="curve"/>
      <point x="516" y="27" type="line"/>
      <point x="508" y="23"/>
      <point x="492" y="13"/>
      <point x="476" y="13" type="curve" smooth="yes"/>
      <point x="457" y="13"/>
      <point x="449" y="25"/>
      <point x="451" y="57" type="curve" smooth="yes"/>
      <point x="453" y="83"/>
      <point x="461" y="130"/>
      <point x="468" y="174" type="curve" smooth="yes"/>
      <point x="529" y="518" type="line"/>
    </contour>
    <contour>
      <point x="267" y="725" type="curve" smooth="yes"/>
      <point x="308" y="725"/>
      <point x="338" y="699"/>
      <point x="347" y="671" type="curve"/>
      <point x="349" y="683"/>
      <point x="345" y="696"/>
      <point x="338" y="707" type="curve"/>
      <point x="320" y="598" type="line"/>
      <point x="347" y="587" type="line"/>
      <point x="364" y="691" type="line"/>
      <point x="348" y="717"/>
      <point x="316" y="743"/>
      <point x="268" y="743" type="curve" smooth="yes"/>
      <point x="208" y="743"/>
      <point x="153" y="703"/>
      <point x="136" y="598" type="curve" smooth="yes"/>
      <point x="13" y="-223" type="line"/>
      <point x="42" y="-223" type="line"/>
      <point x="170" y="595" type="line" smooth="yes"/>
      <point x="186" y="696"/>
      <point x="221" y="725"/>
    </contour>
  </outline>
</glyph>
<glyph name="f_f_j.alt" format="2">
  <advance width="529"/>
  <outline>
    <contour>
      <point x="69" y="518" type="line"/>
      <point x="66" y="501" type="line"/>
      <point x="239" y="501" type="line"/>
      <point x="243" y="518" type="line"/>
    </contour>
    <contour>
      <point x="328" y="-233" type="curve" smooth="yes"/>
      <point x="371" y="-233"/>
      <point x="410" y="-205"/>
      <point x="427" y="-101" type="curve" smooth="yes"/>
      <point x="529" y="518" type="line"/>
      <point x="211" y="518" type="line"/>
      <point x="208" y="501" type="line"/>
      <point x="442" y="501" type="line" smooth="yes"/>
      <point x="478" y="501"/>
      <point x="489" y="491"/>
      <point x="486" y="471" type="curve" smooth="yes"/>
      <point x="392" y="-104" type="line" smooth="yes"/>
      <point x="380" y="-180"/>
      <point x="360" y="-215"/>
      <point x="328" y="-215" type="curve" smooth="yes"/>
      <point x="308" y="-215"/>
      <point x="294" y="-208"/>
      <point x="284" y="-201" type="curve"/>
      <point x="281" y="-219" type="line"/>
      <point x="289" y="-225"/>
      <point x="306" y="-233"/>
    </contour>
    <contour>
      <point x="201" y="-193" type="line"/>
      <point x="230" y="-193" type="line"/>
      <point x="355" y="598" type="line" smooth="yes"/>
      <point x="373" y="704"/>
      <point x="407" y="741"/>
      <point x="468" y="741" type="curve" smooth="yes"/>
      <point x="498" y="741"/>
      <point x="525" y="726"/>
      <point x="535" y="712" type="curve"/>
      <point x="539" y="723"/>
      <point x="534" y="732"/>
      <point x="525" y="735" type="curve"/>
      <point x="512" y="660" type="line"/>
      <point x="546" y="660" type="line"/>
      <point x="558" y="725" type="line"/>
      <point x="545" y="739"/>
      <point x="513" y="758"/>
      <point x="470" y="758" type="curve" smooth="yes"/>
      <point x="395" y="758"/>
      <point x="339" y="713"/>
      <point x="320" y="598" type="curve" smooth="yes"/>
    </contour>
    <contour>
      <point x="13" y="-223" type="line"/>
      <point x="42" y="-223" type="line"/>
      <point x="170" y="595" type="line" smooth="yes"/>
      <point x="186" y="696"/>
      <point x="221" y="725"/>
      <point x="267" y="725" type="curve" smooth="yes"/>
      <point x="308" y="725"/>
      <point x="338" y="699"/>
      <point x="347" y="671" type="curve"/>
      <point x="351" y="683"/>
      <point x="346" y="697"/>
      <point x="338" y="707" type="curve"/>
      <point x="320" y="598" type="line"/>
      <point x="347" y="587" type="line"/>
      <point x="364" y="691" type="line"/>
      <point x="348" y="717"/>
      <point x="316" y="743"/>
      <point x="268" y="743" type="curve" smooth="yes"/>
      <point x="208" y="743"/>
      <point x="153" y="703"/>
      <point x="136" y="598" type="curve" smooth="yes"/>
    </contour>
  </outline>
</glyph>
<glyph name="f_f_j" format="2">
  <advance width="530"/>
  <outline>
    <contour>
      <point x="69" y="518" type="line"/>
      <point x="66" y="501" type="line"/>
      <point x="239" y="501" type="line"/>
      <point x="243" y="518" type="line"/>
    </contour>
    <contour>
      <point x="42" y="-223" type="line"/>
      <point x="170" y="595" type="line" smooth="yes"/>
      <point x="184" y="683"/>
      <point x="210" y="726"/>
      <point x="260" y="726" type="curve" smooth="yes"/>
      <point x="282" y="726"/>
      <point x="298" y="716"/>
      <point x="306" y="709" type="curve"/>
      <point x="308" y="730" type="line"/>
      <point x="297" y="740"/>
      <point x="280" y="744"/>
      <point x="260" y="744" type="curve" smooth="yes"/>
      <point x="198" y="744"/>
      <point x="151" y="689"/>
      <point x="135" y="594" type="curve" smooth="yes"/>
      <point x="13" y="-223" type="line"/>
    </contour>
    <contour>
      <point x="231" y="-193" type="line"/>
      <point x="360" y="624" type="line" smooth="yes"/>
      <point x="374" y="707"/>
      <point x="396" y="741"/>
      <point x="439" y="741" type="curve" smooth="yes"/>
      <point x="458" y="741"/>
      <point x="472" y="731"/>
      <point x="479" y="726" type="curve"/>
      <point x="483" y="747" type="line"/>
      <point x="472" y="754"/>
      <point x="456" y="758"/>
      <point x="438" y="758" type="curve" smooth="yes"/>
      <point x="384" y="758"/>
      <point x="340" y="716"/>
      <point x="326" y="627" type="curve" smooth="yes"/>
      <point x="202" y="-193" type="line"/>
    </contour>
    <contour>
      <point x="536" y="658" type="curve" smooth="yes"/>
      <point x="551" y="658"/>
      <point x="563" y="672"/>
      <point x="564" y="694" type="curve" smooth="yes"/>
      <point x="565" y="716"/>
      <point x="554" y="729"/>
      <point x="539" y="729" type="curve" smooth="yes"/>
      <point x="524" y="729"/>
      <point x="513" y="716"/>
      <point x="512" y="694" type="curve" smooth="yes"/>
      <point x="511" y="672"/>
      <point x="521" y="658"/>
    </contour>
    <contour>
      <point x="216" y="518" type="line"/>
      <point x="213" y="501" type="line"/>
      <point x="442" y="501" type="line" smooth="yes"/>
      <point x="478" y="501"/>
      <point x="489" y="491"/>
      <point x="485" y="471" type="curve" smooth="yes"/>
      <point x="391" y="-104" type="line" smooth="yes"/>
      <point x="381" y="-180"/>
      <point x="361" y="-215"/>
      <point x="330" y="-215" type="curve" smooth="yes"/>
      <point x="311" y="-215"/>
      <point x="296" y="-209"/>
      <point x="287" y="-202" type="curve"/>
      <point x="284" y="-220" type="line"/>
      <point x="292" y="-226"/>
      <point x="309" y="-233"/>
      <point x="330" y="-233" type="curve" smooth="yes"/>
      <point x="372" y="-233"/>
      <point x="410" y="-205"/>
      <point x="427" y="-101" type="curve" smooth="yes"/>
      <point x="529" y="518" type="line"/>
    </contour>
  </outline>
</glyph>
<glyph name="f_f_k.alt" format="2">
  <advance width="708"/>
  <outline>
    <contour>
      <point x="114" y="518" type="line"/>
      <point x="110" y="501" type="line"/>
      <point x="283" y="501" type="line"/>
      <point x="286" y="518" type="line"/>
    </contour>
    <contour>
      <point x="231" y="-193" type="line"/>
      <point x="356" y="603" type="line" smooth="yes"/>
      <point x="371" y="694"/>
      <point x="400" y="741"/>
      <point x="462" y="741" type="curve" smooth="yes"/>
      <point x="499" y="741"/>
      <point x="527" y="724"/>
      <point x="544" y="707" type="curve"/>
      <point x="556" y="728" type="line"/>
      <point x="541" y="744"/>
      <point x="506" y="758"/>
      <point x="464" y="758" type="curve" smooth="yes"/>
      <point x="387" y="758"/>
      <point x="338" y="703"/>
      <point x="322" y="606" type="curve" smooth="yes"/>
      <point x="202" y="-193" type="line"/>
    </contour>
    <contour>
      <point x="438" y="0" type="line"/>
      <point x="570" y="750" type="line"/>
      <point x="481" y="750" type="line"/>
      <point x="531" y="729" type="line"/>
      <point x="404" y="0" type="line"/>
    </contour>
    <contour>
      <point x="641" y="-7" type="curve" smooth="yes"/>
      <point x="607" y="-7"/>
      <point x="590" y="14"/>
      <point x="569" y="94" type="curve" smooth="yes"/>
      <point x="520" y="292" type="line"/>
      <point x="521" y="297" type="line"/>
      <point x="607" y="374"/>
      <point x="653" y="438"/>
      <point x="704" y="518" type="curve"/>
      <point x="738" y="518" type="line"/>
      <point x="738" y="513" type="line"/>
      <point x="678" y="429"/>
      <point x="613" y="364"/>
      <point x="536" y="295" type="curve"/>
      <point x="550" y="314" type="line"/>
      <point x="602" y="109" type="line" smooth="yes"/>
      <point x="621" y="36"/>
      <point x="632" y="13"/>
      <point x="652" y="13" type="curve" smooth="yes"/>
      <point x="665" y="13"/>
      <point x="680" y="26"/>
      <point x="686" y="29" type="curve"/>
      <point x="682" y="12" type="line"/>
      <point x="673" y="3"/>
      <point x="658" y="-7"/>
    </contour>
    <contour>
      <point x="177" y="518" type="line"/>
      <point x="174" y="501" type="line"/>
      <point x="380" y="501" type="line"/>
      <point x="383" y="518" type="line"/>
    </contour>
    <contour>
      <point x="364" y="691" type="line"/>
      <point x="348" y="717"/>
      <point x="316" y="743"/>
      <point x="268" y="743" type="curve" smooth="yes"/>
      <point x="208" y="743"/>
      <point x="153" y="703"/>
      <point x="136" y="598" type="curve" smooth="yes"/>
      <point x="13" y="-223" type="line"/>
      <point x="42" y="-223" type="line"/>
      <point x="170" y="595" type="line" smooth="yes"/>
      <point x="186" y="696"/>
      <point x="221" y="725"/>
      <point x="267" y="725" type="curve" smooth="yes"/>
      <point x="308" y="725"/>
      <point x="338" y="699"/>
      <point x="347" y="671" type="curve"/>
      <point x="349" y="685"/>
      <point x="345" y="697"/>
      <point x="338" y="705" type="curve"/>
      <point x="323" y="608" type="line"/>
      <point x="348" y="592" type="line"/>
    </contour>
  </outline>
</glyph>
<glyph name="f_h" format="2">
  <advance width="560"/>
  <outline>
    <contour>
      <point x="69" y="518" type="line"/>
      <point x="66" y="501" type="line"/>
      <point x="238" y="501" type="line"/>
      <point x="242" y="518" type="line"/>
    </contour>
    <contour>
      <point x="254" y="0" type="line"/>
      <point x="385" y="750" type="line"/>
      <point x="291" y="750" type="line"/>
      <point x="347" y="729" type="line"/>
      <point x="219" y="0" type="line"/>
    </contour>
    <contour>
      <point x="461" y="194" type="line" smooth="yes"/>
      <point x="452" y="136"/>
      <point x="444" y="91"/>
      <point x="443" y="62" type="curve" smooth="yes"/>
      <point x="440" y="13"/>
      <point x="461" y="-7"/>
      <point x="492" y="-7" type="curve" smooth="yes"/>
      <point x="510" y="-7"/>
      <point x="528" y="2"/>
      <point x="537" y="11" type="curve"/>
      <point x="541" y="27" type="line"/>
      <point x="533" y="23"/>
      <point x="516" y="13"/>
      <point x="501" y="13" type="curve" smooth="yes"/>
      <point x="482" y="13"/>
      <point x="474" y="25"/>
      <point x="476" y="57" type="curve" smooth="yes"/>
      <point x="478" y="83"/>
      <point x="486" y="131"/>
      <point x="493" y="175" type="curve" smooth="yes"/>
      <point x="523" y="326" type="line" smooth="yes"/>
      <point x="530" y="360"/>
      <point x="535" y="394"/>
      <point x="537" y="426" type="curve" smooth="yes"/>
      <point x="539" y="486"/>
      <point x="515" y="528"/>
      <point x="466" y="528" type="curve" smooth="yes"/>
      <point x="403" y="528"/>
      <point x="348" y="445"/>
      <point x="293" y="316" type="curve"/>
      <point x="298" y="302" type="line"/>
      <point x="355" y="425"/>
      <point x="404" y="507"/>
      <point x="459" y="507" type="curve" smooth="yes"/>
      <point x="492" y="507"/>
      <point x="505" y="482"/>
      <point x="503" y="429" type="curve" smooth="yes"/>
      <point x="501" y="395"/>
      <point x="496" y="364"/>
      <point x="489" y="329" type="curve" smooth="yes"/>
    </contour>
    <contour>
      <point x="277" y="741" type="curve" smooth="yes"/>
      <point x="314" y="741"/>
      <point x="343" y="724"/>
      <point x="360" y="707" type="curve"/>
      <point x="371" y="728" type="line"/>
      <point x="357" y="744"/>
      <point x="321" y="758"/>
      <point x="279" y="758" type="curve" smooth="yes"/>
      <point x="202" y="758"/>
      <point x="153" y="703"/>
      <point x="138" y="606" type="curve" smooth="yes"/>
      <point x="13" y="-223" type="line"/>
      <point x="42" y="-223" type="line"/>
      <point x="172" y="603" type="line" smooth="yes"/>
      <point x="186" y="694"/>
      <point x="215" y="741"/>
    </contour>
  </outline>
</glyph>
<glyph name="f_i" format="2">
  <advance width="352"/>
  <outline>
    <contour>
      <point x="352" y="658" type="curve" smooth="yes"/>
      <point x="366" y="658"/>
      <point x="378" y="672"/>
      <point x="379" y="694" type="curve" smooth="yes"/>
      <point x="380" y="716"/>
      <point x="369" y="729"/>
      <point x="355" y="729" type="curve" smooth="yes"/>
      <point x="340" y="729"/>
      <point x="328" y="716"/>
      <point x="327" y="694" type="curve" smooth="yes"/>
      <point x="326" y="672"/>
      <point x="337" y="658"/>
    </contour>
    <contour>
      <point x="69" y="518" type="line"/>
      <point x="66" y="501" type="line"/>
      <point x="257" y="501" type="line" smooth="yes"/>
      <point x="293" y="501"/>
      <point x="304" y="491"/>
      <point x="301" y="471" type="curve"/>
      <point x="252" y="193" type="line" smooth="yes"/>
      <point x="243" y="135"/>
      <point x="235" y="91"/>
      <point x="234" y="62" type="curve" smooth="yes"/>
      <point x="231" y="13"/>
      <point x="252" y="-7"/>
      <point x="283" y="-7" type="curve" smooth="yes"/>
      <point x="300" y="-7"/>
      <point x="319" y="2"/>
      <point x="328" y="11" type="curve"/>
      <point x="332" y="27" type="line"/>
      <point x="323" y="23"/>
      <point x="307" y="13"/>
      <point x="292" y="13" type="curve" smooth="yes"/>
      <point x="272" y="13"/>
      <point x="264" y="25"/>
      <point x="266" y="57" type="curve" smooth="yes"/>
      <point x="268" y="83"/>
      <point x="276" y="130"/>
      <point x="283" y="174" type="curve" smooth="yes"/>
      <point x="345" y="518" type="line"/>
    </contour>
    <contour>
      <point x="254" y="741" type="curve" smooth="yes"/>
      <point x="273" y="741"/>
      <point x="287" y="731"/>
      <point x="295" y="726" type="curve"/>
      <point x="298" y="747" type="line"/>
      <point x="287" y="754"/>
      <point x="271" y="758"/>
      <point x="253" y="758" type="curve" smooth="yes"/>
      <point x="199" y="758"/>
      <point x="155" y="716"/>
      <point x="141" y="627" type="curve" smooth="yes"/>
      <point x="13" y="-223" type="line"/>
      <point x="42" y="-223" type="line"/>
      <point x="176" y="624" type="line" smooth="yes"/>
      <point x="189" y="707"/>
      <point x="212" y="741"/>
    </contour>
  </outline>
</glyph>
<glyph name="f_k" format="2">
  <advance width="524"/>
  <outline>
    <contour>
      <point x="69" y="518" type="line"/>
      <point x="66" y="501" type="line"/>
      <point x="238" y="501" type="line"/>
      <point x="242" y="518" type="line"/>
    </contour>
    <contour>
      <point x="365" y="314" type="line"/>
      <point x="418" y="109" type="line" smooth="yes"/>
      <point x="436" y="36"/>
      <point x="448" y="13"/>
      <point x="467" y="13" type="curve" smooth="yes"/>
      <point x="480" y="13"/>
      <point x="495" y="26"/>
      <point x="502" y="29" type="curve"/>
      <point x="498" y="12" type="line"/>
      <point x="488" y="3"/>
      <point x="474" y="-7"/>
      <point x="457" y="-7" type="curve" smooth="yes"/>
      <point x="423" y="-7"/>
      <point x="405" y="14"/>
      <point x="385" y="94" type="curve" smooth="yes"/>
      <point x="335" y="292" type="line"/>
      <point x="336" y="297" type="line"/>
      <point x="422" y="374"/>
      <point x="468" y="438"/>
      <point x="519" y="518" type="curve"/>
      <point x="554" y="518" type="line"/>
      <point x="554" y="513" type="line"/>
      <point x="493" y="429"/>
      <point x="429" y="364"/>
      <point x="351" y="295" type="curve"/>
    </contour>
    <contour>
      <point x="254" y="0" type="line"/>
      <point x="385" y="750" type="line"/>
      <point x="296" y="750" type="line"/>
      <point x="347" y="726" type="line"/>
      <point x="219" y="0" type="line"/>
    </contour>
    <contour>
      <point x="277" y="741" type="curve" smooth="yes"/>
      <point x="314" y="741"/>
      <point x="343" y="724"/>
      <point x="360" y="707" type="curve"/>
      <point x="371" y="728" type="line"/>
      <point x="357" y="744"/>
      <point x="321" y="758"/>
      <point x="279" y="758" type="curve" smooth="yes"/>
      <point x="202" y="758"/>
      <point x="153" y="703"/>
      <point x="138" y="606" type="curve" smooth="yes"/>
      <point x="13" y="-223" type="line"/>
      <point x="42" y="-223" type="line"/>
      <point x="172" y="603" type="line" smooth="yes"/>
      <point x="186" y="694"/>
      <point x="215" y="741"/>
    </contour>
  </outline>
</glyph>
<glyph name="f_l" format="2">
  <advance width="351"/>
  <outline>
    <contour>
      <point x="69" y="518" type="line"/>
      <point x="66" y="501" type="line"/>
      <point x="238" y="501" type="line"/>
      <point x="242" y="518" type="line"/>
    </contour>
    <contour>
      <point x="283" y="174" type="curve"/>
      <point x="385" y="750" type="line"/>
      <point x="313" y="750" type="line"/>
      <point x="347" y="730" type="line"/>
      <point x="252" y="193" type="line" smooth="yes"/>
      <point x="243" y="135"/>
      <point x="235" y="91"/>
      <point x="234" y="62" type="curve" smooth="yes"/>
      <point x="231" y="13"/>
      <point x="252" y="-7"/>
      <point x="283" y="-7" type="curve" smooth="yes"/>
      <point x="300" y="-7"/>
      <point x="319" y="2"/>
      <point x="328" y="11" type="curve"/>
      <point x="332" y="27" type="line"/>
      <point x="323" y="23"/>
      <point x="307" y="13"/>
      <point x="292" y="13" type="curve" smooth="yes"/>
      <point x="272" y="13"/>
      <point x="264" y="25"/>
      <point x="266" y="57" type="curve" smooth="yes"/>
      <point x="268" y="83"/>
      <point x="276" y="130"/>
    </contour>
    <contour>
      <point x="277" y="741" type="curve" smooth="yes"/>
      <point x="314" y="741"/>
      <point x="343" y="724"/>
      <point x="360" y="707" type="curve"/>
      <point x="371" y="728" type="line"/>
      <point x="357" y="744"/>
      <point x="321" y="758"/>
      <point x="279" y="758" type="curve" smooth="yes"/>
      <point x="202" y="758"/>
      <point x="153" y="703"/>
      <point x="138" y="606" type="curve" smooth="yes"/>
      <point x="13" y="-223" type="line"/>
      <point x="42" y="-223" type="line"/>
      <point x="172" y="603" type="line" smooth="yes"/>
      <point x="186" y="694"/>
      <point x="215" y="741"/>
    </contour>
  </outline>
</glyph>
